<svg id="Capa_1" enable-background="new 0 0 505 505" height="512" viewBox="0 0 505 505" width="512" xmlns="http://www.w3.org/2000/svg"><g><g><path d="m278.609 497.5h-52.293c-68.331 0-123.723-55.393-123.723-123.723v-242.554c0-68.33 55.392-123.723 123.723-123.723h52.293c68.331 0 123.723 55.393 123.723 123.723v242.553c0 68.331-55.393 123.724-123.723 123.724z" fill="#d7d0d6"/><path d="m364.702 138.53v223.44c-.01 8.7-1.24 20.55-6.13 34.77-3.1 8.44-7.29 16.35-12.4 23.56-18.29 25.81-48.41 42.67-82.45 42.67h-23.64c-17.97 0-34.83-4.7-49.45-12.93-20.14-11.32-36.02-29.37-44.55-51.11-2.79-7.05-4.8-14.5-5.93-22.25-.7-4.8-1.06-9.71-1.06-14.71v-223.44c0-11.79 2.02-23.12 5.75-33.64.47-1.02-.19-.15 3.36-8.3 15.92-34.84 51.07-59.04 91.88-59.04h23.64c40.81 0 75.96 24.2 91.87 59.04.4 1 0-.36 2.59 6.19.28.7.53 1.4.78 2.11 3.73 10.52 5.74 21.85 5.74 33.64z" fill="#b3ceec"/><path d="m364.707 138.534v.577h-225.613v-.577c0-11.794 2.015-23.123 5.75-33.642h214.122c3.726 10.519 5.741 21.848 5.741 33.642z" fill="#98bce5"/><path d="m358.966 104.893h-214.122c13.85-39.23 51.258-67.345 95.236-67.345h23.639c43.98 0 81.388 28.114 95.247 67.345z" fill="#685e68"/><path d="m346.919 104.893h-190.027c18.203-26.413 48.676-43.735 83.189-43.735h23.639c34.513-.001 64.986 17.321 83.199 43.735z" fill="#7a6d79"/><path d="m364.702 329.39v32.58c-.01 8.7-1.24 20.55-6.13 34.77-3.1 8.44-7.29 16.35-12.4 23.56-18.29 25.81-48.41 42.67-82.45 42.67h-23.64c-17.97 0-34.83-4.7-49.45-12.93-20.14-11.32-36.02-29.37-44.55-51.11-2.79-7.05-4.8-14.5-5.93-22.25-.7-4.8-1.06-9.71-1.06-14.71v-32.58z" fill="#0473ce"/><path d="m364.709 265.936v96.038c0 4.074-.236 8.082-.707 12.022l-157.561-135.527h86.43z" fill="#ffefd2"/><path d="m266.504 181.551c0 11.045-8.96 20.005-20.005 20.005-7.168 0-13.435-3.786-16.968-9.446-5.234 7.765-14.113 12.868-24.176 12.868-6.854 0-13.141-2.359-18.112-6.317-6.601 5.376-15.014 8.605-24.186 8.605-9.071 0-17.403-3.149-23.963-8.433v-59.711c6.56-5.285 14.892-8.433 23.963-8.433 13.596 0 25.523 7.087 32.316 17.757 3.108-1.134 6.469-1.762 9.982-1.762 12.928 0 23.882 8.433 27.699 20.086 3.553-3.23 8.261-5.224 13.445-5.224 11.045 0 20.005 8.96 20.005 20.005z" fill="#eaf6ff"/><path d="m331.986 436.402c-8.504 7.806-18.345 14.174-29.147 18.709-12.027 5.062-25.249 7.856-39.119 7.856h-23.639c-17.97 0-34.826-4.698-49.445-12.928-19.215-10.802-34.553-27.719-43.32-48.129-.435-.982-.84-1.974-1.235-2.977-2.602-6.601-4.536-13.546-5.68-20.754l91.602 11.977c13.009 1.701 23.852 10.812 27.76 23.346 2.047 6.047 7.418 12.362 15.965 13.819z" fill="#037e73"/><path d="m302.839 455.111c-12.027 5.062-25.249 7.856-39.119 7.856h-23.639c-17.97 0-34.826-4.698-49.445-12.928-19.215-10.802-34.553-27.719-43.32-48.129l65.775 8.605c13.009 1.701 23.852 10.812 27.76 23.346 2.047 6.047 7.418 12.361 15.966 13.819z" fill="#01998d"/><path d="m148.216 96.591c-.304.678-.607 1.357-.911 2.035.292-.685-.017-.007.911-2.035z" fill="#c0cff9"/></g><g><path d="m402.332 140.691c4.112-.078 8.182-4.163 7.5-9.467 0-72.357-58.867-131.224-131.223-131.224h-52.293c-72.357 0-131.223 58.867-131.223 131.224v242.553c0 72.356 58.866 131.223 131.223 131.223h52.293c72.356 0 131.223-58.867 131.223-131.224v-205.899c0-4.142-3.358-7.5-7.5-7.5s-7.5 3.358-7.5 7.5v205.899c0 64.086-52.138 116.224-116.223 116.224h-52.293c-64.085 0-116.223-52.138-116.223-116.224v-242.552c0-64.086 52.137-116.224 116.223-116.224h52.293c64.085 0 116.223 52.138 116.223 116.224-.693 3.772 2.252 9.336 7.5 9.467z"/><path d="m131.862 369.595c4.707 56.015 51.392 100.873 108.219 100.873h23.64c59.017-2.443 108.489-47.523 108.489-108.493l-.002-223.439c0-25.948-9.461-51.377-26.468-70.978-20.22-23.307-49.941-37.509-82.018-37.509h-23.639-.001c-38.745 0-74.07 20.701-93.335 53.157-10.014 16.867-15.228 36.311-15.151 55.916-.002 0-.126 222.884.266 230.473zm14.732-226.642c4.901-3.127 10.528-4.764 16.463-4.764 10.579 0 20.294 5.34 25.989 14.285 1.89 2.968 5.591 4.223 8.896 3.018 2.379-.868 4.873-1.308 7.413-1.308 9.381 0 17.648 5.996 20.572 14.921.792 2.417 2.753 4.268 5.212 4.917 2.458.648 5.078.008 6.96-1.702 2.322-2.111 5.305-3.274 8.399-3.274 6.896 0 12.505 5.61 12.505 12.505s-5.61 12.505-12.505 12.505c-4.327 0-8.292-2.212-10.606-5.918-1.346-2.155-3.691-3.482-6.231-3.527-2.533-.006-4.93 1.2-6.35 3.307-4.035 5.986-10.747 9.56-17.957 9.56-4.944 0-9.591-1.62-13.439-4.684-2.758-2.196-6.674-2.176-9.409.051-5.559 4.528-12.285 6.921-19.45 6.921-5.935 0-11.563-1.637-16.463-4.764v-52.049zm16.464 71.813c8.607 0 17.059-2.454 24.313-6.992 5.449 3.091 11.572 4.704 17.985 4.704 9.063 0 17.66-3.334 24.282-9.197 4.745 3.703 10.63 5.775 16.862 5.775 15.167 0 27.505-12.339 27.505-27.505s-12.339-27.505-27.505-27.505c-3.558 0-7.044.691-10.287 2.006-6.62-10.355-18.133-16.869-30.857-16.869-2.352 0-4.68.223-6.968.666-8.651-10.522-21.493-16.662-35.33-16.662-5.351 0-10.639.954-15.615 2.759.617-4.594 1.582-9.118 2.876-13.552h203.17c2.457 8.437 3.718 17.203 3.718 26.139v116.503l-61.657-23.574c-.855-.327-1.763-.495-2.679-.495h-86.43c-3.136 0-5.941 1.951-7.032 4.892-1.091 2.94-.237 6.249 2.141 8.294l90.375 77.736h-145.331v-110.201c5.221 2.011 10.807 3.078 16.464 3.078zm191.545 168.664c-3.227 15.472-12.595 32.786-25.115 44.972l-52.499-8.474c-5.545-.946-8.846-5.131-10.098-8.76-4.789-15.218-18.09-26.38-33.917-28.449l-85.87-11.228c-.394-3.737-.543-7.506-.509-11.264h91.563c4.142 0 7.5-3.358 7.5-7.5s-3.358-7.5-7.5-7.5h-91.563v-8.335h162.77l46.548 40.038c-.251 1.449-.437 2.44-1.31 6.5zm-118.014-137.461 120.618 102.135v10.153l-130.545-112.288zm23.212 0h31.685l65.72 25.128v57.352zm-19.72 209.498c-16.039 0-31.864-4.137-45.772-11.967-10.544-5.924-19.789-13.827-27.258-23.16-6.047-7.51-13.276-19.631-16.704-32.09-.072-.246-.143-.492-.213-.739-.049-.172-.097-.343-.145-.515l81.041 10.596c10.079 1.318 18.547 8.439 21.572 18.142.018.058.037.115.056.172 2.62 7.741 9.725 16.747 21.874 18.819l39.05 6.303c-9.23 5.818-19.441 10.009-30.169 12.33-4.155.723-7.6 1.878-19.692 2.109zm23.639-410.419c33.822-.244 68.701 20.045 83.971 52.348h-191.575c17.411-39.569 64.504-57.157 107.604-52.348z"/><path d="m219.521 77.355c0 4.142 3.358 7.5 7.5 7.5h54.669c4.142 0 7.5-3.358 7.5-7.5s-3.358-7.5-7.5-7.5h-54.669c-4.143 0-7.5 3.358-7.5 7.5z"/><path d="m287.765 345.227h-16.198c-4.142 0-7.5 3.358-7.5 7.5s3.358 7.5 7.5 7.5h16.198c4.142 0 7.5-3.358 7.5-7.5s-3.358-7.5-7.5-7.5z"/></g></g></svg>