<svg id="Capa_1" enable-background="new 0 0 505.046 505.046" height="512" viewBox="0 0 505.046 505.046" width="512" xmlns="http://www.w3.org/2000/svg"><g><g><path d="m299.924 496.988-221.059-46.597c-15.177-3.199-24.887-18.096-21.687-33.272l80.164-380.301c3.199-15.177 18.096-24.887 33.272-21.687l221.059 46.597c15.177 3.199 24.887 18.096 21.687 33.272l-80.164 380.301c-3.198 15.176-18.095 24.886-33.272 21.687z" fill="#f9eaca"/><path d="m379.479 88.408-31.43 149.07-48.52 230.17c-3.26 15.48-18.44 25.37-33.91 22.11l-26.09-5.5-4.29-.9-189.63-39.98c-14.178-2.688-25.648-18.337-22.1-33.91l79.95-379.24c3.26-15.47 18.43-25.37 33.9-22.11 11.843 2.497 215.226 45.365 220.01 46.38 15.47 3.25 25.36 18.44 22.11 33.91z" fill="#d8aa5e"/><path d="m348.489 80.378-31.43 149.07-48.52 230.17c-2.92 13.83-15.36 24.81-29.01 24.64l-4.29-.9-189.63-39.98c-14.178-2.688-25.648-18.337-22.1-33.91l79.95-379.24c3.26-15.47 18.43-25.37 33.9-22.11l197.59 41.65c10.34 6.06 16.13 18.25 13.54 30.61z" fill="#e9b665"/><path d="m348.046 237.474-48.52 230.179c-3.261 15.47-18.436 25.366-33.906 22.105l-30.38-6.4v-245.884z" fill="#d8aa5e"/><path d="m143.864 77.599-68.496 324.95c-1.815 8.609-10.263 14.116-18.872 12.301l-17.082-3.601c-8.609-1.815-14.116-10.263-12.301-18.872l68.496-324.95c1.815-8.609 10.263-14.116 18.872-12.301l17.082 3.601c8.609 1.815 14.116 10.263 12.301 18.872z" fill="#d8aa5e"/><path d="m172.699 84.258-56.12 266.23-12.38 58.73c-5.13 19.202-26.304 10.976-39.43 7.53-6.55-3.07-10.38-10.32-8.82-17.7l12.37-58.71 56.12-266.25c1.777-7.864 10.049-14.245 18.88-12.3l17.08 3.61c8.61 1.81 14.11 10.26 12.3 18.86z" fill="#0ab69f"/><path d="m116.579 350.488-12.38 58.73c-5.13 19.202-26.304 10.976-39.43 7.53-6.55-3.07-10.38-10.32-8.82-17.7l12.37-58.71z" fill="#01998d"/><path d="m148.849 79.148-56.14 266.32-12.36 58.63c-1.266 6.711-8.27 12.649-15.58 12.65-6.55-3.07-10.38-10.32-8.82-17.7l12.37-58.71 56.12-266.25c1.266-6.711 8.28-12.65 15.58-12.65 6.56 3.06 10.4 10.33 8.83 17.71z" fill="#5de1c4"/><path d="m92.709 345.468-12.36 58.63c-1.266 6.711-8.27 12.649-15.58 12.65-6.55-3.07-10.38-10.32-8.82-17.7l12.37-58.71z" fill="#0ab69f"/><path d="m265.079 237.474h217.073v219.112h-217.073z" fill="#eaf6ff"/><path d="m291.332 263.971h164.568v148.792h-164.568z" fill="#b3ceec"/><path d="m455.9 338.897v73.866h-164.568v-69.158l72.602-47.022h25.478z" fill="#7a6d79"/><path d="m455.9 359.208v53.555h-164.568v-69.158c47.939 4.78 164.568 15.603 164.568 15.603z" fill="#bb5d4c"/><path d="m455.9 359.208v70.555h-164.568v-40.022z" fill="#0473ce"/></g><g><path d="m291.409 137.968c3.149.672 7.466-1.101 8.886-5.792.854-4.053-1.739-8.031-5.792-8.886l-59.836-12.613c-4.053-.854-8.031 1.739-8.886 5.792-.854 4.053 1.739 8.031 5.792 8.886z"/><path d="m322.292 144.478 15.442 3.255c8.558 1.9 13.058-11.899 3.094-14.678l-15.442-3.255c-4.053-.853-8.031 1.739-8.886 5.792s1.739 8.031 5.792 8.886z"/><path d="m482.149 396.828c4.143 0 7.5-3.358 7.5-7.5v-151.85c0-4.142-3.357-7.5-7.5-7.5h-89.575l5.852-27.762 22.164-105.144c.007-.033.011-.067.019-.1l.09-.427c.031-.146.047-.291.069-.436 3.503-19.154-8.905-37.791-28.072-41.831l-33.778-7.12c-31.308-6.6-185.88-39.182-220.01-46.377-19.494-4.11-38.687 8.407-42.794 27.895-13.783 65.392-25.196 119.54-34.647 164.382-.006.028-.016.055-.023.083-.008.037-.011.074-.018.111-45.437 215.586-45.477 215.818-45.502 215.962-2.566 14.771 4.408 29.781 17.353 37.349 5.726 4.791 62.197 14.38 69.958 16.629 4.053.854 8.031-1.739 8.886-5.792.854-4.053-1.739-8.031-5.792-8.886-9.805-2.641-59.081-11.117-65.48-14.901-7.534-4.405-11.609-13.121-10.165-21.722.846-4.042 23.057-109.437 43.876-208.219l14.251 3.104-40.201 190.718c-2.184 11.354 4.329 25.071 18.093 27.758l17.082 3.601c10.887 2.707 25.43-5.209 27.758-18.093l40.113-190.297 105.924 23.069v213.055c0 4.142 3.357 7.5 7.5 7.5h27.538c-1.325 11.552-13.305 21.001-25.45 18.33l-126.654-26.697c-4.047-.854-8.031 1.739-8.886 5.792-.854 4.053 1.739 8.031 5.792 8.886 38.82 8.181 122.975 25.928 160.962 33.928 29.043 5.172 42.739-18.488 44.843-40.238h138.925c4.143 0 7.5-3.358 7.5-7.5v-31.6c0-4.142-3.357-7.5-7.5-7.5s-7.5 3.358-7.5 7.5v24.1h-137.46c-.012 0-.023 0-.035 0h-35.241c-.018 0-.035-.003-.052-.003h-29.283v-204.107h110.729c.01 0 .019.001.028.001.011 0 .022-.001.034-.001h91.279v144.35c0 4.142 3.357 7.5 7.5 7.5zm-92.548-327.873c11.362 2.395 18.667 13.562 16.329 24.923l-22.199 105.322-6.487 30.774h-19.949l29.515-140.022c-.593-1.21 3.677-5.984-2.306-22.071zm-302.723 345.22-17.082-3.601c-4.548-.958-7.468-5.438-6.509-9.986l10.832-51.388 33.577 7.078-10.832 51.388c-.958 4.549-5.441 7.468-9.986 6.509zm23.912-72.574-33.577-7.078 26.255-124.554 33.53 7.302zm54.571-258.885c0 .001 0 .001 0 0l-25.269 119.878-33.53-7.303 25.222-119.653c1.467-3.323 2.744-7.166 9.986-6.509l17.082 3.601c3.379.794 7.392 4.343 6.509 9.986zm10.313 23.8 3.705.781c4.764 1.004 7.824 5.698 6.819 10.462-.008.038-.016.076-.023.114l-14.064 72.308c-.791 4.066 1.864 8.003 5.93 8.794 3.164.626 7.429-1.221 8.794-5.93l14.054-72.257c2.669-12.835-5.581-25.463-18.417-28.169l-3.705-.781 1.271-6.028c2.625-11.173-5.145-25.337-18.093-27.758l-17.082-3.601c-6.124-1.29-12.384-.12-17.626 3.297-5.243 3.417-8.841 8.671-10.132 14.795l-25.2 119.556-14.252-3.104c17.28-81.986 32.787-155.562 33.138-157.226 2.402-11.395 13.628-18.713 25.023-16.311l33.768 7.118c29.194 6.155 160.107 33.749 186.24 39.258 10.424 2.667 18.779 12.05 16.31 25.023l-30.167 143.116h-76.159l-111.057-24.188zm150.186 367.235c-2.32 12.929-17.284 19.369-30.045 14.705 23.515-27.646-2.315-24.637 32.08-24.368z"/><path d="m319.374 299.036c4.133 0 7.484-3.351 7.484-7.484 0-4.134-3.351-7.484-7.484-7.484s-7.484 3.351-7.484 7.484c0 4.134 3.351 7.484 7.484 7.484z"/><path d="m291.331 256.471c-4.143 0-7.5 3.358-7.5 7.5v79.634 46.136 40.022c0 4.142 3.357 7.5 7.5 7.5h164.569c4.143 0 7.5-3.358 7.5-7.5v-70.555-20.311-74.926c0-4.142-3.357-7.5-7.5-7.5zm7.5 95.412c27.192 2.67 69.113 6.631 102.711 9.782l-102.711 19.056zm14.59-13.649 52.73-34.151h21.077l61.172 38.931v7.965c-23.222-2.162-90.61-8.449-134.979-12.745zm134.979-66.763v53.763l-54.961-34.978c-1.203-.766-2.6-1.173-4.026-1.173h-25.479c-1.447 0-2.862.418-4.077 1.205l-61.025 39.524v-58.341zm0 150.792h-149.569v-26.286l149.568-27.75v54.036z"/></g></g></svg>