<svg id="Capa_1" enable-background="new 0 0 505 505" height="512" viewBox="0 0 505 505" width="512" xmlns="http://www.w3.org/2000/svg"><g><g><path d="m497.5 221.07v234.69c0 13.04-10.57 23.6-23.61 23.6h-442.79c-13.04 0-23.6-10.56-23.6-23.6v-234.69c0-13.04 10.56-23.6 23.6-23.6h240.61l3.69-30.65c1.18-9.77 9.47-17.12 19.31-17.12h68.36c9.85 0 18.13 7.35 19.3 17.12l3.7 30.65h87.82c13.04 0 23.61 10.56 23.61 23.6z" fill="#d7d0d6"/><path d="m497.5 221.07v234.69c0 13.04-10.57 23.6-23.61 23.6h-21.03v-281.89h21.03c13.04 0 23.61 10.56 23.61 23.6z" fill="#baafb9"/><path d="m7.5 261.73h490v155.44h-490z" fill="#bb5d4c"/><path d="m217.056 261.73h-119.016c-15.32 22.93-24.26 50.49-24.26 80.14 0 27.59 7.74 53.38 21.17 75.3h122.106z" fill="#a44f3e"/><path d="m452.86 261.73h44.64v155.44h-44.64z" fill="#a44f3e"/><circle cx="208.182" cy="341.871" fill="#aa9ea9" r="105.071"/><circle cx="208.182" cy="341.871" fill="#7b7179" r="63.775"/><path d="m50.15 163.175h71.413v34.296h-71.413z" fill="#aa9ea9"/><path d="m364.619 338.013h88.24v39.574h-88.24z" fill="#fee903"/></g><g><path d="m473.888 189.971h-22.843c3.957-12.211 10.661-34.221 16.029-58.51 11.053-50.017 10.649-83.874-1.199-100.63-5.869-8.301-14.603-12.689-25.254-12.689s-19.384 4.388-25.254 12.689c-11.849 16.756-12.252 50.613-1.199 100.63 5.368 24.289 12.072 46.299 16.029 58.511h-37.474l-2.9-24.046c-1.626-13.523-13.127-23.721-26.751-23.721h-68.361c-13.624 0-25.125 10.198-26.751 23.718l-2.9 24.049h-135.997v-26.796c0-4.142-3.357-7.5-7.5-7.5h-71.413c-4.143 0-7.5 3.358-7.5 7.5v26.796h-11.548c-17.15-.001-31.102 13.951-31.102 31.1v234.685c0 17.149 13.952 31.101 31.102 31.101h61.397c4.143 0 7.5-3.358 7.5-7.5s-3.357-7.5-7.5-7.5h-34.849v-47.188h74.352c20.061 18.472 46.824 29.771 76.18 29.771 29.355 0 56.118-11.299 76.179-29.771h164.454v47.188h-320.583c-4.143 0-7.5 3.358-7.5 7.5s3.357 7.5 7.5 7.5h345.655c17.155 0 31.112-13.952 31.112-31.101v-234.685c.001-17.149-13.956-31.101-31.111-31.101zm-46.274-150.48c3.063-4.332 7.195-6.349 13.006-6.349s9.943 2.017 13.006 6.348c9.035 12.776 8.62 44.241-1.169 88.599-3.72 16.851-8.182 32.814-11.838 44.917-3.644-12.063-8.09-27.968-11.805-44.781-9.818-44.431-10.245-75.944-1.2-88.734zm-369.964 131.184h56.413v19.296h-56.413zm-26.548 34.296h240.605c3.795 0 6.991-2.834 7.446-6.602l3.697-30.653c.721-5.993 5.818-10.512 11.858-10.512h68.361c6.04 0 11.138 4.519 11.858 10.515l3.697 30.65c.455 3.767 3.651 6.602 7.446 6.602h87.815c8.885 0 16.112 7.223 16.112 16.101v33.16h-110.766c-4.143 0-7.5 3.358-7.5 7.5s3.357 7.5 7.5 7.5h110.769v140.439h-192.016c14.283-18.871 22.769-42.362 22.769-67.799 0-27.662-10.035-53.02-26.647-72.64h49.671c4.143 0 7.5-3.358 7.5-7.5s-3.357-7.5-7.5-7.5h-65.031c-19.318-15.584-43.867-24.931-70.563-24.931s-51.246 9.347-70.563 24.931h-122.62v-33.16c0-8.878 7.224-16.101 16.102-16.101zm-16.102 204.7v-140.439h107.259c-16.613 19.62-26.647 44.978-26.647 72.64 0 25.438 8.486 48.928 22.769 67.799zm27.65 62.187h-11.548c-8.878 0-16.102-7.223-16.102-16.101v-31.086h27.65zm67.961-129.986c0-53.801 43.771-97.571 97.571-97.571s97.57 43.77 97.57 97.571c0 53.8-43.77 97.57-97.57 97.57s-97.571-43.77-97.571-97.57zm363.277 129.986h-10.072v-47.188h26.184v31.086c0 8.88-7.228 16.102-16.112 16.102z"/><path d="m239.321 277.772c-9.12-5.128-20.805-7.176-31.139-7.176-39.302 0-71.275 31.974-71.275 71.275 0 27.096 15.201 50.705 37.52 62.758 9.56 6.094 22.604 8.517 33.755 8.517 39.301 0 71.274-31.974 71.274-71.275.001-28.141-16.396-52.52-40.135-64.099zm-87.414 64.1c0-31.03 25.245-56.275 56.275-56.275 5.956 0 11.695.938 17.087 2.66l-49.823 99.346c-14.238-10.222-23.539-26.906-23.539-45.731zm56.276 56.274c-6.851 0-13.418-1.234-19.495-3.486l50.13-99.958c15.418 10.049 25.639 27.432 25.639 47.169 0 31.031-25.244 56.275-56.274 56.275z"/><path d="m309.439 193.329h39.873c4.143 0 7.5-3.358 7.5-7.5s-3.357-7.5-7.5-7.5h-39.873c-4.143 0-7.5 3.358-7.5 7.5s3.358 7.5 7.5 7.5z"/><path d="m364.619 385.086h88.24c4.143 0 7.5-3.358 7.5-7.5v-39.574c0-4.142-3.357-7.5-7.5-7.5h-88.24c-4.143 0-7.5 3.358-7.5 7.5v39.574c0 4.143 3.358 7.5 7.5 7.5zm7.5-39.573h73.24v24.574h-73.24z"/></g></g></svg>