<svg id="Capa_1" enable-background="new 0 0 505.014 505.014" height="512" viewBox="0 0 505.014 505.014" width="512" xmlns="http://www.w3.org/2000/svg"><g><g><path d="m392.767 443.13 16.368 2.521s28.907 3.685 45.567 21.896c24.992-52.888-21.408-71.282-50.753-96.58-30.081-25.932-25.932-90.243-25.932-90.243l-21.16 1.826-62.859 5.435-17.065 137.299z" fill="#465a61"/><path d="m392.767 443.13 16.368 2.521s28.907 3.685 45.567 21.896c24.992-52.888-21.408-71.282-50.753-96.58-30.081-25.932-25.932-90.243-25.932-90.243l-21.16 1.826-18.917 152.133z" fill="#596c76"/><path d="m312.266 430.728 7.039-67.19c-21.524-1.115-45.189-10.451-57.463-17.465-14.522-8.298-37.865-29.403-37.865-29.403-.569-.459-1.161-.881-1.762-1.285-3.913 14.152-16.64 58.575-32.277 96.497z" fill="#ffb09e"/><path d="m466.185 497.514h-427.356v-108.913l353.937 54.529 16.368 2.521c.001 0 57.051 7.26 57.051 51.863z" fill="#5f99d7"/><path d="m201.876 311.881-8.61 2.214c-9.431 2.425-19.416-.797-25.65-8.278l-6.957-8.348c-6.818-8.181-7.622-19.549-2.569-28.501-16.406-1.069-32.465-1.827-48.726 3.458-5.736 1.864-11.162 2.471-16.12 2.054l-54.415 114.12s44.603 18.671 54.975 41.491c5.487 12.074 14.397 24.355 24.936 32.529 9.387 7.282 20.061 11.296 30.786 9.024 13.3-2.82 27.802-29.177 40.413-59.763h-.003c15.635-37.916 28.362-82.335 32.279-96.497-5.942-3.995-13.337-5.303-20.339-3.503z" fill="#465a61"/><path d="m167.616 305.818-6.957-8.348c-6.818-8.181-7.622-19.549-2.569-28.501-16.406-1.069-32.465-1.827-48.726 3.458-5.736 1.864-11.162 2.471-16.12 2.054l-54.415 114.12s44.603 18.671 54.975 41.491c5.487 12.074 14.397 24.355 24.936 32.529 1.11-.114 2.23-.28 3.35-.519 27.051-5.746 58.651-100.299 73.098-148.501l-1.923.494c-9.43 2.426-19.415-.797-25.649-8.277z" fill="#596c76"/><path d="m399.953 238.279-42.236-120.881c-3.402-9.736-12.389-16.419-22.692-16.873l-105.444 1.152c-8.457-.373-16.537 3.523-21.512 10.372l-53.805 74.079c-5.942 8.181-6.422 19.12-1.22 27.79l11.058 20.774c5.69 9.484 4.536 21.569-2.847 29.805-8.356 9.32-8.609 23.358-.596 32.973l6.957 8.348c6.234 7.481 16.219 10.703 25.65 8.278l8.61-2.214c7.002-1.8 14.397-.492 20.34 3.503-3.916 14.161-16.644 58.581-32.279 96.497l95.332 14.687 7.116-67.906c12.381 3.615 25.972 5.89 37.988 4.65 32.667-3.37 61.365-22.804 70.971-54.208 7.084-23.156 6.596-47.967-1.391-70.826z" fill="#ffcebf"/><path d="m351.048 80.532c-11.111-6.481-22.588-8.278-33.232-7.606.107 15.873-5.189 34.274-15.14 53.261 24.387 9.501 61.314 25.051 70.154 35.252 0 0 15.559-59.125-21.782-80.907z" fill="#596c76"/><path d="m248.259 193.501c-60.095 52.824-131.365 69.989-159.184 38.339-4.714-5.363-7.873-11.787-9.585-19.01-30.652 32.79-6.583 71.444 29.874 59.596 41.491-13.485 81.658 12.367 129.659-17.634 57.374-35.859 66.71-116.642 68.188-137.916-11.428 25.499-31.701 52.671-58.952 76.625z" fill="#596c76"/><ellipse cx="197.887" cy="136.194" fill="#ffefd2" rx="144.873" ry="76.298" transform="matrix(.751 -.66 .66 .751 -40.659 164.546)"/><ellipse cx="175.182" cy="106.705" fill="#fd4755" rx="107.874" ry="62.572" transform="matrix(.751 -.66 .66 .751 -26.842 142.215)"/><path d="m189.306 122.78c-38.97 34.251-86.674 43.7-106.548 21.088-3.174-3.599-5.446-7.811-6.856-12.468-7.479-24.542 8.692-61.697 41.449-90.491 32.591-28.65 71.281-39.945 94.703-29.656 4.585 2.012 8.589 4.854 11.846 8.557 19.863 22.612 4.376 68.708-34.594 102.97z" fill="#fedba6"/><path d="m170.615 101.744c-32.591 28.65-71.292 39.956-94.713 29.656-7.479-24.542 8.692-61.697 41.449-90.491 32.591-28.65 71.281-39.945 94.703-29.656 7.478 24.541-8.682 61.706-41.439 90.491z" fill="#ffefd2"/><path d="m466.185 497.514h-93.427c2.323-14.885 7.199-33.224 17.26-50.017.871-1.473 1.784-2.925 2.749-4.367l16.368 2.521s57.05 7.26 57.05 51.863z" fill="#ffb09e"/><path d="m438.106 497.514h-65.348c2.323-14.885 7.199-33.224 17.26-50.017 16.067 4.149 48.088 16.596 48.088 50.017z" fill="#ffcebf"/></g><g><path d="m354.644 234.843c-1.853-3.705-6.356-5.208-10.062-3.354-3.705 1.852-5.207 6.357-3.354 10.062l12.447 24.895c1.689 2.674 5.407 5.521 10.062 3.354 3.705-1.852 5.207-6.357 3.354-10.062z"/><path d="m349.701 308.923c-18.953 14.008-37.995.581-38.827-.021-3.331-2.438-8.007-1.728-10.461 1.594-2.462 3.331-1.758 8.027 1.573 10.489 5.766 4.261 16.604 9.242 29.116 9.242 8.742 0 18.302-2.433 27.514-9.242 3.331-2.462 4.035-7.158 1.573-10.489-2.46-3.33-7.157-4.034-10.488-1.573z"/><path d="m463.453 466.316c8.3-19.912 7.842-37.274-1.376-52.951-17.199-30.536-57.749-37.87-69.155-73.593 6.999-8.236 12.337-17.822 15.595-28.473 7.602-24.853 7.089-50.958-1.483-75.493l-26.297-75.264c1.145-5.341 3.324-17.658 2.699-31.72-1.137-25.575-11.029-44.513-28.608-54.767-9.15-5.338-19.185-8.253-29.914-8.7-1.3-11.617-5.498-21.701-12.579-29.757-13.931-15.848-37.432-21.709-66.367-16.619-5.075-2.27-10.723-3.801-16.848-4.548-11.487-12.686-30.195-17.225-52.79-12.75-21.401 4.237-44.106 16.169-63.933 33.596-19.828 17.427-34.573 38.414-41.52 59.094-7.331 21.821-5.237 40.946 5.854 53.965-.034 4.599.397 8.992 1.284 13.138-6.87 18.299-9.073 35.03-6.652 49.241-14.573 17.458-17.574 38.419-7.472 54.298 4.483 7.047 10.948 12.04 18.53 14.741l-50.362 105.618c-.338.826-.686 1.584-.73 3.228v108.914c0 4.142 3.358 7.5 7.5 7.5h53.275c4.142 0 7.5-3.358 7.5-7.5s-3.358-7.5-7.5-7.5h-45.775v-61.553l41.421 6.373c5.96 12.479 14.802 24.131 24.47 32.17 10.13 8.836 30.825 18.575 46.516 8.806 5.9-3.716 13.223-11.343 22.216-27.374l188.38 29.228c-1.094 4.002-2.048 8.121-2.865 12.351h-241.617c-4.142 0-7.5 3.358-7.5 7.5s3.358 7.5 7.5 7.5h247.908 93.427c4.142 0 7.5-3.358 7.5-7.5 0-11.794-3.484-22.297-10.232-31.199zm-64.402-89.668c14.976 13.14 39.708 26.978 50.095 44.32 5.893 10.021 6.767 20.948 2.594 33.851-5.843-5.753-30.806-15.881-41.542-16.593l-89.728-13.823 5.582-53.291c18.862-.503 41.497-8.751 55.166-20.046 4.591 10.738 10.565 19.316 17.833 25.582zm-4.878-69.737c-3.032 9.911-8.305 18.709-15.327 26.041-10.653 11.089-25.253 18.679-41.706 21.797-1.261.114-7.699 1.837-17.829 1.29-17.328-.958-36.569-7.717-49.271-14.088-3.703-1.855-8.209-.361-10.066 3.342s-.361 8.209 3.342 10.066c17.38 8.717 34.068 13.198 47.743 14.913l-5.431 51.845-81.565-12.566-23.635-3.641c.321-.82.643-1.645.968-2.483 10.751-27.805 19.663-56.832 24.837-74.702 3.242 3.135 10.49 10.184 16.318 3.951 2.653-3.181 2.224-7.911-.957-10.563-6.58-5.486-12.479-10.906-12.538-10.96-.064-.09-3.677-3.08-7.896-4.844-1.693-3.8-3.964-7.365-6.787-10.581-7.918-9.021-19.348-14.198-31.36-14.203-.001 0-.002 0-.003 0-4.141 0-7.499 3.356-7.5 7.497-.001 4.142 3.355 7.501 7.497 7.503 7.048.003 13.778 2.791 18.758 7.697-.158-.038-9.783 2.467-10.367 2.613-6.59 1.695-13.664-.588-18.021-5.816l-6.957-8.348c-2.952-3.992-5.175-8.435-3.473-15.865 28.398 2.189 61.579 1.405 92.637-24.736 31.229-24.501 50.805-72.874 56.73-113.971 40.644 16.544 51.579 24.932 54.386 27.761.001.001.002.002.004.004l26.167 74.891c7.514 21.499 7.964 44.376 1.302 66.156zm-237.836 14.605c.296-4.551 1.719-8.852 4.103-12.595l1.415 1.698c8.046 9.654 21.109 13.869 33.28 10.741l8.609-2.214c1.162-.285 3.537-.711 5.602-.504.359 2.071.478 4.198.338 6.348-.464 7.125-3.675 13.643-9.041 18.353-11.078 9.722-28 8.621-37.722-2.457-4.71-5.367-7.049-12.245-6.584-19.37zm190.932-234.506c22.685 13.233 22.445 44.006 20.357 60.903-15.271-9.664-39.763-19.795-53.373-25.222 2.533-12.401 10.715-29.288 10.791-42.308 7.994.455 15.447 2.673 22.225 6.627-.001 0-.001 0 0 0zm-201.625 95.929c-1.456.288-2.885.527-4.298.739-12.685 1.895-23.587.684-31.938-3.444-3.736-1.847-6.977-4.259-9.616-7.262-.242-.276-.469-.563-.7-.847-2.769-3.402-4.794-7.437-6.003-12.026-.015-.056-.041-.106-.057-.161 6.209 2.483 13.28 3.748 21.031 3.748 45.775.212 120.103-50.048 125.934-115.904.248-5.576-.234-10.847-1.485-15.714 3.16 1.507 7.11 3.126 12.06 8.369 9.195 10.461 10.617 27.064 4.003 46.751-7.086 21.095-22.37 42.715-43.035 60.879-3.875 3.406-7.846 6.608-11.884 9.593-17.501 12.934-36.276 21.767-54.012 25.279zm-23.345-136.397c23.043-20.255 49.833-31.523 70.308-31.523 10.801 0 19.847 3.137 25.655 9.745.372.664 3.578 3.53 5.596 10.677 5.59 20.707-8.676 52.999-36.09 78.604-25.186 25.119-69.382 41.687-89.499 31.798-2.339-1.282-4.699-1.521-9.878-6.922-16.819-19.135-1.291-61.44 33.908-92.379zm-32.115 138.11c13.029 13.696 36.495 17.871 58.373 13.002 24.382-4.828 50.267-18.436 72.887-38.318 2.827-2.485 5.564-5.034 8.204-7.637 18.48-18.221 32.221-39.116 39.146-59.733 6.359-18.676 8.247-42.756-5.556-59.758 16.625-.45 29.744 4.096 37.829 13.293 5.975 6.798 9.072 15.888 9.285 26.708.075 14.593-4.695 31.237-12.482 46.882-10.934 22.146-28.337 44.692-49.789 64.478-24.858 23.626-63.337 46.921-93.273 53.488-48.427 11.928-77.227-9.472-67.265-55.338.568.637.385.573 2.641 2.933zm-13.636 72.309c-5.838-9.176-3.885-19.756.92-28.632 14.261 26.354 50.06 31.659 80.852 23.309 31.229-7.521 64.928-26.168 94.891-52.505.969-.852 1.93-1.709 2.883-2.57.057-.052.113-.104.171-.156 14.413-13.036 27.078-27.147 37.51-41.665-1.012 4.279-2.193 8.735-3.56 13.29.015.427-7.237 23.796-16.766 39.447-9.945 16.5-20.464 29.396-38.4 40.952-15.552 9.72-30.057 13.128-44.42 13.953-9.229.53-18.4-.006-27.754-.62-27.863-1.902-32.054-2.143-65.364 5.305-8.925.379-16.542-3.159-20.963-10.108zm-30.219 143.439c8.636 4.495 17.947 9.74 26.988 17.036-33.743-5.012-26.247-1.55-26.988-17.036zm53.35 24.652c-2.408-4.261-4.2-7.01-9.343-12.407-12.55-12.854-31.122-22.796-41.443-27.726l49.038-102.843c2.587-.096 5.209-.422 7.852-.962 12.241-3.67 26.299-6.497 42.03-5.212-.882 6.29-.592 13.101 3.217 20.534-5.692 6.759-9.077 15.122-9.662 24.105-.725 11.123 2.926 21.862 10.279 30.239 8.238 9.386 19.785 14.184 31.388 14.184 5.954 0 11.92-1.272 17.464-3.827-5.049 15.328-11.032 32.215-17.494 47.886-.009.021-.014.042-.022.063-19.103 46.314-30.734 53.9-34.508 55.088-20.641 3.892-40.401-19.729-48.796-39.122zm88.517 9.329c2.057-4.303 4.189-9.018 6.399-14.193l29.881 4.603 86.648 13.35 69.511 10.709c-2.436 4.561-4.622 9.356-6.564 14.37zm193.572 55.633c1.181-5.518 2.643-10.844 4.361-15.939.001-.004.003-.007.004-.011 2.79-8.273 6.262-15.933 10.351-22.773 12.39 2.169 15.872 1.349 32.703 7.872 12.119 5.214 25.582 14.562 28.787 30.852h-76.206z"/></g></g></svg>