<svg id="Capa_1" enable-background="new 0 0 499.844 499.844" height="512" viewBox="0 0 499.844 499.844" width="512" xmlns="http://www.w3.org/2000/svg"><g><g><path d="m302.09 364.814v120h-262.212c-17.887 0-32.377-14.491-32.377-32.377v-87.623z" fill="#01998d"/><path d="m245.984 364.814v120h-206.106c-17.887 0-32.377-14.491-32.377-32.377v-87.623z" fill="#0ab69f"/><path d="m302.09 316.134v48.679h-294.59l41.627-42.623c3.781-3.872 8.977-6.057 14.389-6.057h238.574z" fill="#3c87d0"/><path d="m245.984 316.134v48.679h-238.484l41.627-42.623c3.781-3.872 8.977-6.057 14.389-6.057h182.468z" fill="#5f99d7"/><path d="m456.936 197.266v271.823c0 8.683-7.042 15.725-15.725 15.725h-165.408v-287.548z" fill="#0ab69f"/><path d="m432.075 197.266v271.823c0 8.683-7.042 15.725-15.725 15.725h-140.547v-287.548z" fill="#5de1c4"/><path d="m492.03 169.043-19.902 82.042c-1.2 4.958-5.638 8.445-10.743 8.445h-191.254c-5.106 0-9.543-3.487-10.743-8.445l-19.891-82.042c-1.687-6.962 3.578-13.664 10.732-13.664h231.057c7.155 0 12.431 6.702 10.744 13.664z" fill="#0055a3"/><path d="m465.075 169.043-19.891 82.042c-1.211 4.958-5.649 8.445-10.743 8.445h-164.31c-5.106 0-9.543-3.487-10.743-8.445l-19.891-82.042c-1.687-6.962 3.578-13.664 10.732-13.664h204.102c7.156 0 12.431 6.702 10.744 13.664z" fill="#0067c5"/><path d="m456.596 66.635-21.521 88.744h-138.544l-21.521-88.744c-1.902-7.845 4.041-15.408 12.125-15.408h157.336c8.083.001 14.027 7.563 12.125 15.408z" fill="#3c87d0"/><path d="m428.747 66.635-21.521 88.744h-110.695l-21.521-88.744c-1.902-7.845 4.041-15.408 12.125-15.408h129.487c8.083.001 14.027 7.563 12.125 15.408z" fill="#5f99d7"/><path d="m301.841 189.341h131.321v36.227h-131.321z" fill="#5f99d7"/><path d="m237.312 420.663v64.151h-73.585v-64.151c0-7.711 6.251-13.962 13.962-13.962h45.66c7.712-.001 13.963 6.251 13.963 13.962z" fill="#c2fae3"/><path d="m402.596 420.663v64.151h-73.585v-64.151c0-7.711 6.251-13.962 13.962-13.962h45.66c7.712-.001 13.963 6.251 13.963 13.962z" fill="#5f99d7"/><path d="m79.975 129.743 153.012-96.765s-20.362-27.235-41.013-14.658-60.008 39.378-60.008 39.378l-57.929-22.287-26.19 11.232 39.072 34.714-28.581 25.9-32.929-4.482-11.972 8.235 17.863 15.105c7.301 6.175 16.606 9.472 26.166 9.272l4.045-.085c6.546-.137 12.93-2.059 18.464-5.559z" fill="#d3e1f5"/></g><g><path d="m495.865 154.962c-3.54-4.501-8.855-7.083-14.583-7.083h-36.668l19.27-79.472c1.452-5.992.1-12.208-3.712-17.054s-9.534-7.625-15.699-7.625h-69.472v-16.698h9.481c4.143 0 7.5-3.358 7.5-7.5s-3.357-7.5-7.5-7.5h-33.962c-4.143 0-7.5 3.358-7.5 7.5s3.357 7.5 7.5 7.5h9.48v16.698h-72.867c-6.165 0-11.888 2.779-15.699 7.625s-5.164 11.062-3.712 17.054l19.27 79.472h-36.757c-5.728 0-11.044 2.583-14.585 7.084-3.54 4.502-4.797 10.276-3.447 15.842l19.893 82.043c1.879 7.752 8.407 13.325 16.207 14.085v41.701h-204.782c-7.393 0-14.595 3.033-19.76 8.321l-41.626 42.618c-1.352 1.381-2.135 3.308-2.135 5.24v87.623c0 21.988 17.889 39.877 39.878 39.877h401.331c12.808 0 23.227-10.419 23.227-23.227v-66.18c0-4.142-3.357-7.5-7.5-7.5s-7.5 3.358-7.5 7.5v66.18c0 4.536-3.69 8.227-8.227 8.227h-31.113v-56.651c0-11.834-9.628-21.462-21.462-21.462h-45.661c-11.834 0-21.462 9.628-21.462 21.462v56.651h-38.208v-210.283h166.133v101.428c0 4.142 3.357 7.5 7.5 7.5s7.5-3.358 7.5-7.5v-101.68c7.254-1.194 13.206-6.586 14.986-13.93l19.893-82.043c1.349-5.566.091-11.341-3.45-15.843zm-159.354 265.701c0-3.563 2.898-6.462 6.462-6.462h45.661c3.563 0 6.462 2.899 6.462 6.462v56.651h-58.585zm-54.21-355.79c-.495-2.042.366-3.537.924-4.246s1.808-1.899 3.909-1.899h157.339c2.102 0 3.352 1.189 3.909 1.899.558.709 1.419 2.204.924 4.246l-20.126 83.006h-126.753zm-227.809 262.563c2.36-2.417 5.651-3.802 9.029-3.802h204.781v33.679h-242.992zm-39.492 125v-80.123h253.303v105h-23.49v-56.651c0-11.834-9.628-21.462-21.463-21.462h-45.66c-11.834 0-21.462 9.628-21.462 21.462v56.651h-116.35c-13.718.001-24.878-11.159-24.878-24.877zm156.228 24.878v-56.651c0-3.563 2.898-6.462 6.462-6.462h45.66c3.563 0 6.463 2.899 6.463 6.462v56.651zm313.508-310.043-19.893 82.043c-.388 1.599-1.808 2.716-3.454 2.716h-4.454-181.132-5.675c-1.646 0-3.066-1.117-3.454-2.716l-19.893-82.043c-.354-1.459.262-2.527.66-3.034s1.292-1.357 2.794-1.357h231.047c1.502 0 2.395.85 2.794 1.357.399.506 1.015 1.574.66 3.034z"/><path d="m433.162 181.841h-131.321c-4.143 0-7.5 3.358-7.5 7.5v36.227c0 4.142 3.357 7.5 7.5 7.5h131.321c4.143 0 7.5-3.358 7.5-7.5v-36.227c0-4.142-3.357-7.5-7.5-7.5zm-7.5 36.227h-116.321v-21.227h116.321z"/><path d="m121.841 399.201h-73.586c-4.143 0-7.5 3.358-7.5 7.5s3.357 7.5 7.5 7.5h73.586c4.143 0 7.5-3.358 7.5-7.5s-3.358-7.5-7.5-7.5z"/><path d="m329.011 283.728c-4.143 0-7.5 3.358-7.5 7.5s3.357 7.5 7.5 7.5h73.585c4.143 0 7.5-3.358 7.5-7.5s-3.357-7.5-7.5-7.5z"/><path d="m344.834 95.379c-4.593 0-8.316 3.723-8.316 8.316 0 4.592 3.723 8.316 8.316 8.316s8.315-3.723 8.315-8.316c.001-4.593-3.722-8.316-8.315-8.316z"/><path d="m385.224 95.379c-4.593 0-8.315 3.723-8.315 8.316 0 4.592 3.723 8.316 8.315 8.316s8.316-3.723 8.316-8.316c-.001-4.593-3.724-8.316-8.316-8.316z"/><path d="m8.596 116.736 17.86 15.105c8.452 7.149 19.135 11.054 30.182 11.054.328 0 .656-.003.984-.01l4.046-.084c7.91-.166 15.627-2.489 22.315-6.719l153.012-96.765c1.767-1.118 2.987-2.922 3.367-4.978.379-2.056-.117-4.177-1.369-5.852-8.454-11.308-29.978-29.327-50.922-16.572-17.346 10.564-47.168 30.664-57.074 37.375l-54.267-20.879c-1.826-.701-3.853-.663-5.649.107l-26.189 11.231c-2.359 1.012-4.037 3.16-4.447 5.693-.411 2.534.503 5.102 2.422 6.807l32.823 29.163-19.8 17.942-29.469-4.012c-1.847-.251-3.725.194-5.262 1.252l-11.971 8.236c-1.927 1.325-3.125 3.472-3.241 5.806-.115 2.335.864 4.59 2.649 6.1zm18.675-6.139 30.056 4.091c2.2.3 4.408-.388 6.048-1.874l28.581-25.9c1.578-1.43 2.475-3.464 2.464-5.594s-.926-4.155-2.519-5.57l-30.243-26.87 12.532-5.375 55.081 21.192c2.301.883 4.882.584 6.915-.801.392-.267 39.433-26.836 59.688-39.171 9.327-5.683 19.423 1.083 25.504 6.719l-145.412 91.96c-4.38 2.77-9.433 4.291-14.611 4.399l-4.046.084c-7.743.161-15.256-2.5-21.166-7.5l-10.363-8.765z"/><path d="m76.025 228.235-31.954 19.646c-3.529 2.169-4.631 6.789-2.461 10.317 1.416 2.304 3.876 3.573 6.396 3.573 1.34 0 2.696-.359 3.921-1.112l31.954-19.646c3.529-2.169 4.631-6.789 2.461-10.317-2.169-3.529-6.788-4.63-10.317-2.461z"/><path d="m153.08 143.438c-2.218-3.499-6.854-4.535-10.35-2.318l-73.842 46.815c-3.499 2.218-4.536 6.852-2.318 10.351 1.428 2.252 3.857 3.485 6.341 3.485 1.374 0 2.764-.377 4.009-1.167l73.842-46.815c3.499-2.218 4.536-6.852 2.318-10.351z"/></g></g></svg>