<svg id="Capa_1" enable-background="new 0 0 505.181 505.181" height="512" viewBox="0 0 505.181 505.181" width="512" xmlns="http://www.w3.org/2000/svg"><g><g><path d="m497.686 320.82v42.67c0 18.92-15.34 34.26-34.26 34.26h-421.48c-18.93 0-34.26-15.34-34.26-34.26v-61.92c0-9.46 3.83-18.03 10.03-24.22 6.19-6.2 14.76-10.03 24.23-10.03 37.02-1.71 34.37-38.44 41.01-62.24 3.39-15.79 17.35-27.07 33.49-27.07h184.38c13.23 0 25.28 7.61 30.94 19.57l21.53 45.38c1.52 3.19 3.5 6.09 5.85 8.62 4.12 4.43 9.39 7.75 15.32 9.52l9.04 2.69c5.543 1.576 7.534 2.413 13.12 3.8l55.91 14.92 18.12 4.83c15.77 3.4 27.03 17.34 27.03 33.48z" fill="#f4d902"/><path d="m465.795 320.82v42.67c0 18.92-15.34 34.26-34.26 34.26h-389.589c-18.93 0-34.26-15.34-34.26-34.26v-61.92c0-9.46 3.83-18.03 10.03-24.22 6.19-6.2 14.76-10.03 24.23-10.03 37.02-1.71 34.37-38.44 41.01-62.24 3.39-15.79 17.35-27.07 33.49-27.07h152.49c13.23 0 25.27 7.61 30.94 19.57l21.54 45.38c6.38 14.86 22.84 7.26 37.73 8.62 4.12 4.43 9.39 7.75 15.32 9.52l9.04 2.69c5.543 1.576 7.534 2.413 13.12 3.8l55.91 14.92c8.15 10.77 13.259 27.44 13.259 38.31z" fill="#fee903"/><path d="m295.295 136.431v26.448c0 8.362-6.776 15.128-15.128 15.128h-124.296c-8.352 0-15.128-6.765-15.128-15.128v-26.448c0-8.352 6.776-15.128 15.128-15.128h124.296c8.352 0 15.128 6.776 15.128 15.128z" fill="#3c87d0"/><path d="m262.44 136.431v26.448c0 8.362-6.776 15.128-15.128 15.128h-91.441c-8.352 0-15.128-6.765-15.128-15.128v-26.448c0-8.352 6.776-15.128 15.128-15.128h91.441c8.352 0 15.128 6.776 15.128 15.128z" fill="#5f99d7"/><path d="m383.502 263.788h-272.41l13.347-85.781h176.383c13.234 0 25.281 7.615 30.941 19.57l21.535 45.383c4.166 8.771 11.863 15.363 21.167 18.137z" fill="#fff9df"/><path d="m351.609 263.788h-240.517l13.347-85.781h144.5c13.224 0 25.271 7.615 30.941 19.57l21.535 45.383c4.776 11.558 18.095 18.228 30.194 20.828z" fill="#fff0ad"/><path d="m196.763 178.006h31.839v85.781h-31.839z" fill="#fff9df"/><path d="m7.686 306.09h42.302v41.127h-42.302z" fill="#fd4755"/><circle cx="397.802" cy="396.569" fill="#596c76" r="42.302"/><circle cx="116.965" cy="396.569" fill="#596c76" r="42.302"/><path d="m295.295 73.955v39.702c0 4.227-3.419 7.646-7.646 7.646h-107.531c-4.227 0-7.646-3.419-7.646-7.646v-39.702c0-4.227 3.419-7.646 7.646-7.646h107.531c4.227.001 7.646 3.419 7.646 7.646z" fill="#a44f3e"/><path d="m262.44 73.955v39.702c0 4.227-3.419 7.646-7.646 7.646h-74.676c-4.227 0-7.646-3.419-7.646-7.646v-39.702c0-4.227 3.419-7.646 7.646-7.646h74.676c4.227.001 7.646 3.419 7.646 7.646z" fill="#bb5d4c"/></g><g><path d="m463.429 405.244c23.022 0 41.752-18.73 41.752-41.752v-42.678c0-19.472-13.766-36.587-32.762-40.769l-73.859-19.696c-13.35-4.581-31.448-5.395-38.481-20.61l-21.537-45.376c-6.761-14.268-21.223-23.545-36.983-23.826.798-2.291 1.237-4.749 1.237-7.308v-27.145c0-4.572-1.386-8.825-3.757-12.365 2.33-2.64 3.757-6.094 3.757-9.884v-40.059c0-8.253-6.714-14.967-14.967-14.967h-59.056-.007-48.826c-8.253 0-14.967 6.714-14.967 14.967v40.025h-9.447c-12.286 0-22.282 9.996-22.282 22.282.43 7.526-1.148 27.72 1.228 34.427-4.447 0-13.355 0-18.023 0-19.558 0-36.726 13.879-40.823 33.002-4.894 19.277-5.608 57.242-33.687 56.302-23.837-.61-44.1 21.951-41.753 46.276v41.127 16.274c0 23.022 18.73 41.752 41.753 41.752h25.997c1.777 10.072 6.584 19.107 13.453 26.127h-61.42c-4.143 0-7.5 3.358-7.5 7.5s3.357 7.5 7.5 7.5h156.014c4.143 0 7.5-3.358 7.5-7.5s-3.357-7.5-7.5-7.5h-23.439c6.868-7.02 11.675-16.055 13.453-26.127h182.777c1.777 10.072 6.584 19.107 13.453 26.127h-151.48c-4.143 0-7.5 3.358-7.5 7.5s3.357 7.5 7.5 7.5h276.973c4.143 0 7.5-3.358 7.5-7.5s-3.357-7.5-7.5-7.5h-54.338c6.868-7.02 11.675-16.055 13.453-26.127h16.594zm-138.441-204.453 21.537 45.376c.734.798-.034 1.873 6.769 10.122h-117.199v-70.779h44.418 20.313c10.278 0 19.763 5.996 24.162 15.281zm-113.291-30.281-.024-41.708h16.231c.265.029.533.045.806.045h.007c.274 0 .544-.017.81-.045h50.986c4.016 0 7.282 3.267 7.282 7.282v27.145c0 4.015-3.267 7.282-7.282 7.282h-68.816zm76.131-56.708c-4.409.002-46.494-.001-51.605 0l.036-39.992h51.536zm-107.889-39.992h41.32l-.036 39.992c-10.301-.004-30.949-.001-41.251 0zm-31.696 89.419v-27.145c0-4.015 3.267-7.282 7.282-7.282h24.414 16.734l.024 41.708h-41.172c-4.015 0-7.282-3.266-7.282-7.281zm7.282 22.281h65.569v70.778h-101.246l11.014-70.778zm-113.038 128.08v26.127h-27.301v-26.127zm-27.301 49.902v-8.774h34.802c4.143 0 7.5-3.358 7.5-7.5v-41.128c0-4.142-3.357-7.5-7.5-7.5h-34.634c.662-6.024 3.323-11.599 7.675-15.943 5.041-5.051 11.757-7.833 18.909-7.833 19.557 0 36.725-13.879 40.822-33.002l7.532-35.157c2.571-11.998 13.177-20.752 25.382-21.11l-11.997 77.091c-.337 2.165.29 4.368 1.715 6.032s3.506 2.622 5.696 2.622h271.313c6.187 1.769 6.047 1.963 12.447 3.595l73.872 19.7c.117.031.235.06.354.085 9.701 2.089 17.273 9.447 19.997 18.645h-25.468c-4.143 0-7.5 3.358-7.5 7.5s3.357 7.5 7.5 7.5h26.576v35.178c0 14.751-12.001 26.752-26.752 26.752h-16.225c-6.067-52.062-87.024-63.088-98.805 0h-182.03c-6.067-52.061-87.024-63.088-98.805 0h-25.624c-14.752-.001-26.752-12.002-26.752-26.753zm67.003 34.104c0-.019.002-.038.001-.057l-.012-.372c-.003-.199-.015-.397-.015-.597 0-19.19 15.612-34.802 34.802-34.802s34.802 15.612 34.802 34.802c0 .193-.008.385-.015.576l-.012.393c0 .012.001.025.001.037-.536 18.725-15.924 33.795-34.776 33.795-18.845 0-34.23-15.059-34.776-33.775zm280.836-.02c0-.012.001-.025.001-.037l-.012-.393c-.007-.191-.015-.383-.015-.576 0-19.19 15.612-34.802 34.802-34.802s34.802 15.612 34.802 34.802c0 .22-.013.438-.017.657l-.011.331c0 .015.001.03.001.045-.55 18.713-15.933 33.769-34.776 33.769-18.85-.001-34.239-15.071-34.775-33.796z"/><path d="m118.07 389.045c-4.238 0-7.674 3.436-7.674 7.674s3.436 7.674 7.674 7.674 7.674-3.436 7.674-7.674-3.436-7.674-7.674-7.674z"/><path d="m399.112 389.045c-4.238 0-7.674 3.436-7.674 7.674s3.436 7.674 7.674 7.674 7.674-3.436 7.674-7.674-3.436-7.674-7.674-7.674z"/><path d="m159.177 329.357h130.596c4.143 0 7.5-3.358 7.5-7.5s-3.357-7.5-7.5-7.5h-130.596c-4.143 0-7.5 3.358-7.5 7.5s3.357 7.5 7.5 7.5z"/><path d="m325.295 329.357h35.521c4.143 0 7.5-3.358 7.5-7.5s-3.357-7.5-7.5-7.5h-35.521c-4.143 0-7.5 3.358-7.5 7.5s3.357 7.5 7.5 7.5z"/></g></g></svg>