<svg id="Capa_1" enable-background="new 0 0 505.002 505.002" height="512" viewBox="0 0 505.002 505.002" width="512" xmlns="http://www.w3.org/2000/svg"><g><g><path d="m127.353 66.187v51.106h38.027c0 .001-.858-36.006-38.027-51.106z" fill="#5de1c4"/><g fill="#d7d0d6"><path d="m110.459 117.294h32.518v54.419h-32.518z"/><path d="m304.249 117.294h32.518v54.419h-32.518z"/><path d="m497.5 312.461v81.543h-489.999v-142.502c0-21.007 6.308-40.555 17.139-56.828 18.407-27.685 49.875-45.923 85.611-45.923h223.539c44.179 0 84.259 17.488 113.698 45.923 7.999 7.724 15.216 16.262 21.514 25.476 11 16.072 19.21 34.215 23.912 53.711 3.001 12.374 4.586 25.307 4.586 38.6z"/></g><path d="m497.5 312.46v81.54h-490v-142.5c0-21 6.31-40.55 17.14-56.83 18.41-27.68 49.87-45.92 85.61-45.92h223.54c6.62 0 13.14.39 19.55 1.16 36.4 4.32 69.12 20.59 94.15 44.76 8 7.73 15.21 16.27 21.51 25.48 11 16.07 19.21 34.22 23.91 53.71 3 12.37 4.59 25.31 4.59 38.6z" fill="#baafb9"/><path d="m462.47 317.25v76.75h-454.97v-142.5c0-21 6.31-40.55 17.14-56.83 18.41-27.68 49.87-45.92 85.61-45.92h223.54c6.62 0 13.14.39 19.55 1.16 19.87 8.75 37.89 20.95 53.29 35.83 24.126 23.233 42.631 54.496 50.72 88.41 3.35 13.81 5.12 28.25 5.12 43.1z" fill="#d7d0d6"/><circle cx="94.014" cy="394.009" fill="#596c76" r="44.699"/><path d="m447.488 194.674h-422.849c18.407-27.685 49.875-45.923 85.611-45.923h223.54c44.179 0 84.259 17.488 113.698 45.923z" fill="#fedba6"/><path d="m497.5 313.39v80.61h-490v-116.13h349.79s54.13-2.34 103.75 16.42c12.79 4.83 25.27 11.06 36.46 19.1z" fill="#f4d902"/><path d="m462.47 317.25v76.75h-454.97v-116.13h349.79s54.13-2.34 103.75 16.42c.94 7.52 1.43 15.18 1.43 22.96z" fill="#fee903"/><circle cx="381.729" cy="394.009" fill="#596c76" r="44.699"/><path d="m7.5 357.845h86.51v36.159h-86.51z" fill="#d7d0d6"/><path d="m54.387 220.154h84.363v30.16h-84.363z" fill="#eaf6ff"/><path d="m170.398 220.154h84.363v30.16h-84.363z" fill="#eaf6ff"/><path d="m492.91 273.86-39.33-13.08-31.48-10.46h-101.59v-30.17h148.49c11 16.07 19.21 34.22 23.91 53.71z" fill="#c8effe"/><path d="m453.58 260.78-31.48-10.46h-101.59v-30.17h114c7.93 12.63 14.42 26.32 19.07 40.63z" fill="#eaf6ff"/></g><g><path d="m500.205 272.092c-15.707-73.27-83.216-124.839-155.935-130.525v-16.784h43.093c4.142 0 7.5-3.358 7.5-7.5s-3.358-7.5-7.5-7.5h-215.36c-2.328-12.56-10.829-37.962-41.826-50.555-3.611-1.387-9.741.346-10.323 6.949v43.606h-55.565c-4.142 0-7.5 3.358-7.5 7.5s3.358 7.5 7.5 7.5h38.674v16.702c-34.189 2.246-65.41 20.211-84.569 49.026-.004.006-.006.012-.01.018-12.026 18.076-18.383 39.155-18.383 60.962l-.001 142.502c0 4.142 3.358 7.5 7.5 7.5h.001 34.858c1.671 11.561 7.14 21.905 15.102 29.726h-36.679c-4.142 0-7.5 3.358-7.5 7.5s3.358 7.5 7.5 7.5h272.347c4.142 0 7.5-3.358 7.5-7.5s-3.358-7.5-7.5-7.5h-162.562c9.651-9.479 15.651-22.662 15.651-37.226 0-4.142-3.358-7.5-7.5-7.5h-37.208v-28.659c0-4.142-3.358-7.5-7.5-7.5h-79.009v-64.979h263.463v26.583c0 1.88.706 3.691 1.979 5.076.156.169 14.876 17.692 16.198 69.479h-122.016c-4.142 0-7.5 3.358-7.5 7.5s3.358 7.5 7.5 7.5h155.451c1.67 11.561 7.141 21.905 15.104 29.726h-17.29c-4.142 0-7.5 3.358-7.5 7.5s3.358 7.5 7.5 7.5h160.64c4.142 0 7.5-3.358 7.5-7.5s-3.358-7.5-7.5-7.5h-70.253c7.963-7.821 13.434-18.165 15.104-29.726h64.119c4.142 0 7.5-3.358 7.5-7.5v-80.613c.066-13.88-1.523-27.797-4.795-41.288zm-55.802-69.929c3.333 3.344 6.516 6.842 9.536 10.476h-133.431c-4.142 0-7.5 3.358-7.5 7.5v30.168c0 4.142 3.358 7.5 7.5 7.5h100.375l65.653 21.826c1.385 6.465 2.354 13.039 2.907 19.672-54.656-31.423-127.187-29.155-132.307-28.951h-63.672v-68.191zm22.826 29.052c1.955 4.073 6.076 7.758 14.525 31.021l-57.292-19.046c-.763-.253-1.562-.383-2.366-.383h-94.088v-15.168h136.975c1.017 1.593.133.199 2.246 3.576zm-137.959-89.975h-17.524v-16.457h17.524zm-32.524 0h-146.269v-16.458h146.269zm-178.783 0v-16.457h17.514v16.457zm16.891-62.72c14.438 9.521 19.832 22.914 21.841 31.263h-21.841zm-4.395 322.973c-3.479 16.934-18.5 29.708-36.448 29.708-17.943 0-32.959-12.774-36.438-29.708h36.437zm-43.949-36.159v21.159h-71.509v-21.159zm-71.509-94.979v-18.864c0-17.517 4.751-34.484 13.764-49.328h42.524c4.142 0 7.5-3.358 7.5-7.5s-3.358-7.5-7.5-7.5h-31.29c17.335-18.905 43.172-31.203 70.252-30.923h223.539c2.026.255-1.274-.655 17.7.998 27.49 3.1 53.498 13.415 75.611 29.925h-320.774c-4.142 0-7.5 3.358-7.5 7.5s3.358 7.5 7.5 7.5h172.137v68.191h-263.463zm366.728 160.842c-20.496 0-37.172-16.661-37.198-37.15 0-.018.003-.035.003-.053 0-.017-.002-.033-.003-.05.03-20.487 16.704-37.144 37.198-37.144 20.511 0 37.199 16.688 37.199 37.199 0 20.51-16.687 37.198-37.199 37.198zm51.652-44.704c-3.651-25.239-25.418-44.694-51.651-44.694-26.234 0-48.001 19.456-51.652 44.694h-18.432c-1.17-47.749-13.309-70.011-18.182-77.06v-24.079h63.827c.108 0 .216-.002.324-.007.813-.035 80.386-3.034 132.386 31.951v24.5h-21.639c-4.142 0-7.5 3.358-7.5 7.5s3.358 7.5 7.5 7.5h21.638v29.694h-56.619z"/><path d="m138.75 212.643h-84.363c-4.142 0-7.5 3.358-7.5 7.5v30.16c0 4.142 3.358 7.5 7.5 7.5h84.363c4.142 0 7.5-3.358 7.5-7.5v-30.16c0-4.142-3.357-7.5-7.5-7.5zm-7.5 30.16h-69.363v-15.16h69.363z"/><path d="m254.762 212.643h-84.363c-4.142 0-7.5 3.358-7.5 7.5v30.16c0 4.142 3.358 7.5 7.5 7.5h84.363c4.142 0 7.5-3.358 7.5-7.5v-30.16c0-4.142-3.358-7.5-7.5-7.5zm-7.5 30.16h-69.363v-15.16h69.363z"/><path d="m130.612 337.157h44.013c4.142 0 7.5-3.358 7.5-7.5s-3.358-7.5-7.5-7.5h-44.013c-4.142 0-7.5 3.358-7.5 7.5s3.358 7.5 7.5 7.5z"/><path d="m130.612 365.688h44.013c4.142 0 7.5-3.358 7.5-7.5s-3.358-7.5-7.5-7.5h-44.013c-4.142 0-7.5 3.358-7.5 7.5s3.358 7.5 7.5 7.5z"/><circle cx="381.729" cy="393.998" r="8.109"/><path d="m359.364 298.058h-28.264c-4.142 0-7.5 3.358-7.5 7.5s3.358 7.5 7.5 7.5h28.264c4.142 0 7.5-3.358 7.5-7.5s-3.358-7.5-7.5-7.5z"/></g></g></svg>