<svg id="Capa_1" enable-background="new 0 0 505 505" height="512" viewBox="0 0 505 505" width="512" xmlns="http://www.w3.org/2000/svg"><g><g><path d="m429.24 286.715-28.769 44.116s-18.789 32.957-49.409 19.729l34.693-68.279z" fill="#465a61"/><path d="m474.053 489.09h-445.17l2.87-7.48c14.71-38.39 43.25-69.88 80.01-88.3l8.76-4.39 4.65-2.33c7.72-3.87 16.4-5.42 24.99-4.47l6.27.7 186.09 20.65 35.91 3.99 40.29 4.47c16.7 1.86 30.95 12.9 36.91 28.61z" fill="#5de1c4"/><path d="m150.163 382.12c-7.842-.867-15.757.356-22.95 3.518v103.452h29.22v-106.27z" fill="#0ab69f"/><path d="m348.424 404.126v84.964h30.009v-81.63z" fill="#0ab69f"/><path d="m280.56 451.024c-28.737-7.462-50.875-38.077-43.413-66.813l26.489-81.903c7.462-28.736 36.807-45.983 65.543-38.521 28.736 7.462 45.983 36.807 38.521 65.543l-16.706 84.443c-7.462 28.736-41.698 44.712-70.434 37.251z" fill="#ffcebf"/><path d="m369.443 315.78c0 4.48-.56 9.02-1.74 13.55l-16.71 84.44c-7.4 28.5-41.12 44.45-69.7 37.43-.24-.06-.49-.12-.73-.18-28.74-7.46-50.88-38.07-43.42-66.81l26.49-81.9c5.02-19.35 19.96-33.49 37.96-38.38 8.74-2.38 18.2-2.58 27.59-.14 24.2 6.28 40.26 28.1 40.26 51.99z" fill="#ffb09e"/><path d="m341.353 315.78c.556 7.649-17.096 88.734-18.45 97.99-5.02 19.34-22.17 32.9-41.61 37.43-.24-.06-.49-.12-.73-.18-28.74-7.46-50.88-38.07-43.42-66.81l26.49-81.9c5.02-19.35 19.96-33.49 37.96-38.38 23.92 6.44 39.76 28.13 39.76 51.85z" fill="#ffcebf"/><path d="m242.494 112.894c-10.139 2.419-17.784 10.769-19.3 21.082l-18.832 128.052c-3.561 24.215.694 48.935 12.147 70.566 15.533 29.336 47.73 43.144 80.799 40.249 12.164-1.065 25.219-5.919 36.818-11.872l61.382-56.36c5.136-5.101 12.226-7.812 19.52-7.362l8.969.553c9.824.606 19.119-4.5 23.878-13.116l5.311-9.615c6.117-11.075 3.183-24.96-6.89-32.615-8.901-6.764-12.356-18.539-8.519-29.039l7.008-22.732c3.507-9.599.941-20.366-6.519-27.351z" fill="#ffcebf"/><path d="m453.063 250.19-15.41-14.58-12.13 26.44s-4.17 17.4-23.66 9.46-8.35-28.45-8.35-28.45l6.96-20.55s-135.29-17-177.25-88.48l-.03-.05-8.53 57.99s-9.52-9.12-20.19-23.75c-20.4-27.96-45-76.05-15.3-118.99 45.23-65.42 108.62-44.92 146.14 0s100.49 90.4 112.34 96.83c2.63 1.43 9.65 4.96 16.98 10.94 17.99 14.69 37.79 44.11-1.57 93.19z" fill="#596c76"/><path d="m223.193 133.98-8.53 57.99s-9.52-9.12-20.19-23.75l11.69-68.76z" fill="#465a61"/><path d="m453.063 250.19-15.41-14.58s20.9-37.28 16.98-78.61c17.99 14.69 37.79 44.11-1.57 93.19z" fill="#465a61"/><g fill="#5f99d7"><path d="m184.246 497.5h-22.072c-3.172 0-5.743-2.571-5.743-5.743v-104.164c0-3.172 2.571-5.743 5.743-5.743h22.072c3.172 0 5.743 2.571 5.743 5.743v104.164c0 3.172-2.571 5.743-5.743 5.743z"/><path d="m406.247 497.5h-22.072c-3.172 0-5.743-2.571-5.743-5.743v-85.297c0-3.172 2.571-5.743 5.743-5.743h22.072c3.172 0 5.743 2.571 5.743 5.743v85.297c.001 3.172-2.571 5.743-5.743 5.743z"/></g></g><g><path d="m462.646 437.877c-6.996-18.431-23.512-31.228-43.098-33.398l-.226-.025c-.972-6.351-6.455-11.238-13.075-11.238h-22.072c-4.673 0-8.778 2.439-11.136 6.103l-11.289-1.256 7.33-37.057c22.847-2.118 36.222-23.599 37.78-26.238l19.187-29.427c11.716-.193 22.681-6.683 28.387-17.026l5.321-9.619c4.654-8.432 5.306-18.562 2.004-27.481 17.616-23.21 24.517-44.898 20.499-64.513-3.861-18.852-17.383-34.59-40.19-46.78l-.834-.448c-11.151-6.061-73.657-51.346-110.164-95.051-24.686-29.559-56.265-45.723-86.638-44.341-27.282 1.239-51.981 16.76-71.427 44.884-20.188 29.193-20.079 65.04.318 103.663 11.869 22.475 27.173 39.506 33.376 45.955l-9.758 66.35c-3.816 25.978.659 51.973 12.943 75.174 6.188 11.68 14.796 21.333 25.626 28.768 0 0-5.798 18.167-5.882 18.523l-34.906-3.874c-2.424-3.14-6.213-5.174-10.477-5.174h-22.072c-1.788 0-3.493.361-5.051 1.006l-6.136-.684c-19.569-2.181-42.582 11.937-42.582 11.937-38.521 19.288-68.232 52.072-83.66 92.315-2.795 6.428-6.89 15.681 4.133 17.674h49.211c4.142 0 7.5-3.358 7.5-7.5s-3.358-7.5-7.5-7.5h-38.273c10.649-26.332 28.422-49.477 51.112-66.554 14.33-10.785 38.954-27.421 58.005-25.494v92.048h-35.603c-4.142 0-7.5 3.358-7.5 7.5s3.358 7.5 7.5 7.5h36.531c1.938 4.912 6.721 8.402 12.314 8.402h22.072c5.593 0 10.376-3.49 12.314-8.402h175.301c1.938 4.912 6.721 8.402 12.314 8.402h22.072c5.593 0 10.376-3.49 12.314-8.402h55.489c2.465 0 4.772-1.211 6.173-3.24 1.399-2.028 1.714-4.615.84-6.92zm-68.452-111.145c-.082.125-.159.252-.233.382-.097.17-8.279 14.226-21.755 18.091l2.18-11.019 26.191-24.054c.069-.063.137-.128.204-.194 2.045-2.025 4.525-3.485 7.198-4.346zm-171.053 2.356c-10.78-20.361-14.707-43.174-11.358-65.973l16.125-109.645c17.89 21.107 45.363 38.94 81.96 53.161 3.865 1.501 8.208-.413 9.708-4.274s-.414-8.207-4.274-9.707c-42.014-16.325-70.784-37.277-85.522-62.275l-19.914-40.346c-1.833-3.714-6.331-5.24-10.045-3.406-3.714 1.833-5.239 6.331-3.406 10.045l19.018 38.532-5.894 40.063c-6.801-8.079-15.774-19.971-23.116-33.95-17.703-33.707-18.066-63.251-1.08-87.813 16.918-24.468 37.028-37.398 59.77-38.432 25.285-1.145 53.105 13.421 74.444 38.974 38.395 45.965 102.441 92.054 114.515 98.615 0 0 30.568 22.785 33.492 37.058 2.946 14.387-2.238 30.941-15.418 49.287l-9.339-8.836c-1.757-1.663-4.208-2.374-6.581-1.916-2.374.46-4.381 2.037-5.39 4.235 0 0-12.493 27.337-12.606 27.811-1.832 7.327-10.221 6.404-15.404 3.386-6.297-3.667-5.806-11.188-2.723-17.043.203-.375 7.477-21.719 7.477-21.719 1.042-3.33-.378-8.673-6.166-9.849-.221-.028-54.276-11.759-54.276-11.759-3.981-1.127-8.131 1.188-9.26 5.173-1.128 3.985 1.188 8.131 5.174 9.259 0 0 38.082 9.255 47.45 10.833l-3.915 11.551c-6.814 13.705-4.142 30.13 10.232 37.328 13.871 6.947 30.917 3.114 35.762-12.809l7.522-16.392c5.163 4.885 9.339 7.983 8.686 15.954-.498 6.075-4.602 11.643-7.485 16.853-3.333 6.042-9.948 9.667-16.833 9.258-7.662-.494-15.146-1.273-22.528 1.486-6.474 2.419-11.208 6.997-16.17 11.554-5.268 4.838-10.537 9.677-15.805 14.515-3.072 2.822-8.944 6.575-9.822 10.99l-4.594 23.229c-.016.078-.033.155-.046.233l-10.025 50.683c-.004.017-.006.034-.01.051l-1.786 9.028c-6.208 23.312-35.334 38.398-61.243 31.67-23.531-6.111-41.072-29.198-39.101-51.483.171-1.994.511-4.007 1.01-5.987l4.497-13.908c12.115 5.474 25.726 8.337 39.875 8.337 4.143 0 7.5-3.358 7.5-7.5s-3.357-7.5-7.5-7.5c-14.779 0-28.781-3.638-40.498-10.522-10.834-6.354-19.274-15.14-25.084-26.108zm-40.652 160.912h-18.558v-100.65h18.558zm203.443 0v-19.999c0-4.142-3.357-7.5-7.5-7.5s-7.5 3.358-7.5 7.5v11.597h-173.443v-86.674l30.793 3.418c1.382 26.784 22.624 52.728 50.389 59.939 5.536 1.437 11.15 2.119 16.707 2.119 28.764 0 55.999-18.274 62.878-44.739.037-.143.573-2.828.573-2.828l12.103 1.346v21.363c0 4.142 3.357 7.5 7.5 7.5s7.5-3.358 7.5-7.5v-27.324h18.559v81.782zm33.559-8.402v-61.977c13.259 2.043 24.336 10.945 29.131 23.578l14.563 38.399z"/><path d="m250.775 261.718 12.582-25.163c1.853-3.705.351-8.21-3.354-10.062-3.705-1.854-8.21-.35-10.062 3.354l-12.582 25.163c-1.853 3.705-.351 8.21 3.354 10.062 1.077.539 2.221.793 3.348.793 2.752 0 5.4-1.519 6.714-4.147z"/><path d="m303.045 316.818c3.319-2.453 4.017-7.115 1.58-10.447-2.436-3.332-7.124-4.057-10.466-1.638-.813.587-20.12 14.229-39.344.022-3.331-2.461-8.027-1.757-10.489 1.573-2.462 3.331-1.758 8.027 1.573 10.489 9.298 6.872 18.942 9.326 27.765 9.326 12.625.001 23.564-5.025 29.381-9.325z"/></g></g></svg>