<svg id="Capa_1" enable-background="new 0 0 505 505" height="512" viewBox="0 0 505 505" width="512" xmlns="http://www.w3.org/2000/svg"><g><g><path d="m149.11 46.595v56.52c-25.22 0-45.68 20.45-45.68 45.68v148.49h-56.51v-161.57c0-49.22 39.9-89.12 89.12-89.12z" fill="#465a61"/><path d="m149.11 46.595v56.52c-52.22 0-72.68 20.45-72.68 45.68v148.49h-29.51v-161.57c0-49.22 39.9-89.12 89.12-89.12z" fill="#596c76"/><path d="m458.08 135.715v161.58h-56.51v-148.5c0-25.23-20.46-45.68-45.68-45.68v-56.52h13.07c49.22 0 89.12 39.9 89.12 89.12z" fill="#465a61"/><path d="m431.08 135.715v161.58h-29.51v-148.5c0-25.23-20.46-45.68-45.68-45.68v-55.43c42.6 6.68 75.19 43.55 75.19 88.03z" fill="#596c76"/><path d="m103.44 297.285v156.39h-63.13c-18.12 0-32.81-14.69-32.81-32.8v-90.78c0-18.12 14.69-32.81 32.81-32.81z" fill="#baafb9"/><path d="m72.44 297.285v156.39h-32.13c-18.12 0-32.81-14.69-32.81-32.8v-90.78c0-18.12 14.69-32.81 32.81-32.81z" fill="#d7d0d6"/><path d="m164.96 292.865v165.24c0 7.51-6.1 13.61-13.61 13.61h-34.3c-7.52 0-13.61-6.1-13.61-13.61v-165.24c0-7.52 6.09-13.61 13.61-13.61h34.3c7.51 0 13.61 6.09 13.61 13.61z" fill="#a44f3e"/><path d="m134.2 292.865v165.24c0 7.51-6.09 13.61-13.61 13.61h-3.54c-7.52 0-13.61-6.1-13.61-13.61v-165.24c0-7.52 6.09-13.61 13.61-13.61h3.54c7.52 0 13.61 6.09 13.61 13.61z" fill="#bb5d4c"/><path d="m497.5 330.095v90.78c0 18.12-14.69 32.8-32.8 32.8h-63.13v-156.38h63.13c18.11 0 32.8 14.68 32.8 32.8z" fill="#baafb9"/><path d="m466.73 330.095v90.78c0 18.12-14.69 32.8-32.8 32.8h-32.36v-156.38h32.36c18.11 0 32.8 14.68 32.8 32.8z" fill="#d7d0d6"/><path d="m401.57 292.865v165.24c0 7.52-6.1 13.61-13.62 13.61h-34.29c-7.52 0-13.62-6.09-13.62-13.61v-165.24c0-7.52 6.1-13.61 13.62-13.61h34.29c7.52 0 13.62 6.09 13.62 13.61z" fill="#a44f3e"/><path d="m370.8 292.865v165.24c0 7.52-6.09 13.61-13.61 13.61h-3.53c-7.52 0-13.62-6.09-13.62-13.61v-165.24c0-7.52 6.1-13.61 13.62-13.61h3.53c7.52 0 13.61 6.09 13.61 13.61z" fill="#bb5d4c"/><path d="m355.89 44.335v61.03c0 6.11-4.95 11.06-11.06 11.06h-184.66c-6.11 0-11.06-4.95-11.06-11.06v-61.03c0-6.1 4.95-11.05 11.06-11.05h184.66c6.11 0 11.06 4.95 11.06 11.05z" fill="#3c87d0"/><g fill="#5f99d7"><path d="m314.9 44.335v61.03c0 6.11-4.95 11.06-11.06 11.06h-143.67c-6.11 0-11.06-4.95-11.06-11.06v-61.03c0-6.1 4.95-11.05 11.06-11.05h143.67c6.11 0 11.06 4.95 11.06 11.05z"/><path d="m441.446 358.523h56.055v33.917h-56.055z"/></g></g><path d="m505 330.094c0-21.926-17.604-39.806-39.42-40.277v-154.103c0-53.276-43.344-96.62-96.62-96.62h-6.337c-2.269-7.683-9.381-13.31-17.793-13.31h-184.66c-8.412 0-15.524 5.627-17.793 13.31h-6.337c-53.276 0-96.62 43.344-96.62 96.62v36.225c0 4.142 3.357 7.5 7.5 7.5s7.5-3.358 7.5-7.5v-36.225c0-45.005 36.614-81.62 81.62-81.62h5.57v42.048c-25.786 3.655-45.681 25.874-45.681 52.652v140.99h-41.509v-82.7c0-4.142-3.357-7.5-7.5-7.5s-7.5 3.358-7.5 7.5v82.723c-21.817.477-39.42 18.359-39.42 40.287v90.78c0 22.221 18.083 40.3 40.311 40.3h55.877c1.497 10.185 10.268 18.037 20.861 18.037h34.298c11.641 0 21.111-9.471 21.111-21.112v-165.236c0-11.641-9.471-21.112-21.111-21.112h-34.298c-2.128 0-4.181.323-6.119.912v-123.869c0-18.818 13.689-34.489 31.63-37.606 2.45 7.387 9.412 12.736 17.61 12.736h184.66c8.198 0 15.16-5.349 17.61-12.736 17.941 3.116 31.63 18.788 31.63 37.606v123.872c-1.938-.588-3.989-.911-6.116-.911h-34.298c-11.642 0-21.112 9.471-21.112 21.112v23.039c0 4.142 3.357 7.5 7.5 7.5s7.5-3.358 7.5-7.5v-23.039c0-3.37 2.742-6.112 6.112-6.112h34.298c3.37 0 6.111 2.742 6.111 6.112v165.237c0 3.37-2.741 6.112-6.111 6.112h-34.298c-3.37 0-6.112-2.742-6.112-6.112v-107.02c0-4.142-3.357-7.5-7.5-7.5s-7.5 3.358-7.5 7.5v107.02c0 11.641 9.471 21.112 21.112 21.112h34.298c10.595 0 19.367-7.854 20.862-18.042h55.884c22.222 0 40.3-18.079 40.3-40.3zm-490 90.78v-90.78c0-13.956 11.354-25.31 25.311-25.31h55.627v141.39h-55.627c-13.957 0-25.311-11.35-25.311-25.3zm102.049-134.123h34.298c3.37 0 6.111 2.742 6.111 6.112v165.237c0 3.37-2.741 6.112-6.111 6.112h-34.298c-3.37 0-6.111-2.742-6.111-6.112v-4.387c0-.013.002-.026.002-.039v-156.39c0-.013-.002-.026-.002-.039v-4.383c0-3.37 2.741-6.111 6.111-6.111zm372.951 98.188h-41.054v-18.917h41.054zm-141.61-279.574c0 1.963-1.597 3.56-3.56 3.56h-184.66c-1.963 0-3.56-1.597-3.56-3.56 0-5.385 0-54.536 0-61.03 0-1.958 1.597-3.55 3.56-3.55h184.66c1.963 0 3.56 1.592 3.56 3.55zm15-9.223v-42.048h5.57c45.006 0 81.62 36.615 81.62 81.62v154.08h-41.51v-141c0-26.778-19.894-48.997-45.68-52.652zm101.31 350.032h-55.63v-141.38h55.63c13.95 0 25.3 11.35 25.3 25.3v20.929h-48.554c-4.143 0-7.5 3.358-7.5 7.5v33.917c0 4.142 3.357 7.5 7.5 7.5h48.554v12.312h-31.92c-4.143 0-7.5 3.358-7.5 7.5s3.357 7.5 7.5 7.5h31.105c-2.834 10.872-12.737 18.922-24.485 18.922z"/></g></svg>