<svg id="Capa_1" enable-background="new 0 0 500.752 500.752" height="512" viewBox="0 0 500.752 500.752" width="512" xmlns="http://www.w3.org/2000/svg"><g><g><circle cx="89.528" cy="332.331" fill="#c8effe" r="68.636"/><circle cx="89.528" cy="332.331" fill="#eaf6ff" r="34.223"/><circle cx="424.603" cy="332.331" fill="#c8effe" r="68.636"/><circle cx="246.375" cy="325.273" fill="#d7d0d6" r="30.108"/><circle cx="424.603" cy="332.331" fill="#eaf6ff" r="31.35"/><path d="m245.654 139.258h-98.29v-39.477h61.188c20.491 0 37.102 16.611 37.102 37.102z" fill="#5f99d7"/><path d="m493.252 128.034-6.384 77.917h-76.46l-7.448-77.917z" fill="#baafb9"/><path d="m462.874 128.034-6.384 77.917h-46.082l-7.448-77.917z" fill="#d7d0d6"/><path d="m7.5 185.081h133.528v31.959h-133.528z" fill="#a44f3e"/><path d="m7.5 185.081h87.344v31.959h-87.344z" fill="#bb5d4c"/></g><g><path d="m489.282 393.56h-19.285c5.721-4.26 10.881-9.344 15.306-15.189 12.275-16.214 17.502-36.238 14.717-56.383-5.749-41.584-44.255-70.741-85.846-64.992-1.543.213-3.063.486-4.57.788l-2.835-9.263c12.303-2.791 29.913-2.474 43.059 1.57 3.975 1.148 8.137-1.145 9.286-5.125 1.148-3.98-1.146-8.137-5.126-9.286-14.055-4.059-28.582-5.093-43.186-3.073-2.851.394-5.661.914-8.436 1.529l-18.999-62.08c6.479-1.256 11.904-2.306 15.956-3.09l3.612 37.785c.368 3.848 3.601 6.786 7.466 6.786h76.46c3.904 0 7.156-2.996 7.475-6.888l6.384-77.922c.192-3.241-2.102-7.801-7.475-8.112h-90.292c-3.273.074-7.666 2.785-7.466 8.214l2.403 25.137c-4.459.862-10.958 2.12-18.937 3.667l-11.128-36.362c-1.128-3.52-16.896-22.223-35.29-22.381h-34.794c-4.143 0-7.5 3.358-7.5 7.5s3.357 7.5 7.5 7.5h34.794c8.512 0 17.646 8.745 21.372 13.16l10.239 33.456c-44.124 8.567-113.452 22.09-150.954 29.718l-13.168-43.381h45.629c4.318.056 8.286-4.661 7.5-9.875 0-24.594-20.009-44.602-44.603-44.602h-61.188c-4.143 0-7.5 3.358-7.5 7.5v39.477c0 4.142 3.357 7.5 7.5 7.5h36.985l14.092 46.425c-.641.135-1.262.266-1.855.393-7.825 1.665-16.614 6.965-26.449 15.964h-21.608v-24.459c0-4.142-3.357-7.5-7.5-7.5h-79.51c-4.143 0-7.5 3.358-7.5 7.5s3.357 7.5 7.5 7.5h72.01v16.959h-118.527v-16.959h11.909c4.143 0 7.5-3.358 7.5-7.5s-3.357-7.5-7.5-7.5h-19.409c-4.143 0-7.5 3.358-7.5 7.5v31.959c0 4.142 3.357 7.5 7.5 7.5h148.203c-5.136 5.917-10.518 12.678-16.155 20.295-15.029-8.592-32.225-13.308-50.021-13.308-35.158 0-67.215 17.864-85.751 47.787-2.181 3.521-1.095 8.144 2.427 10.326 2.465 1.527 7.036 1.814 10.325-2.426 15.781-25.477 43.07-40.687 72.999-40.687 14.619 0 28.762 3.741 41.232 10.578-1.804 2.596-3.632 5.271-5.485 8.028-10.666-5.697-22.833-8.939-35.747-8.939-41.981 0-76.136 34.154-76.136 76.136 0 25.022 12.137 47.259 30.829 61.146h-31.687c-4.143 0-7.5 3.358-7.5 7.5s3.357 7.5 7.5 7.5h160.014c4.143 0 7.5-3.358 7.5-7.5s-3.357-7.5-7.5-7.5h-37.713c10.578-7.858 19.043-18.396 24.41-30.595h87.13c5.386 0 10.506-1.146 15.143-3.195l8.842 12.508c5.588 7.91 17.816-.784 12.248-8.658l-8.852-12.522c6.334-6.734 10.228-15.789 10.228-25.742 0-12.867-6.499-24.242-16.383-31.025 18.892-34.21 42.937-70.641 51.732-74.031 20.776-8.009 45.543-15.539 57.303-18.993l11.359 37.116c-28.512 10.779-51.136 33.604-61.475 63.272-3.171 9.098 10.978 14.081 14.164 4.937 8.742-25.083 27.734-44.46 51.711-53.833l2.865 9.363c-31.103 12.999-50.903 45.75-46.074 80.679 2.785 20.145 13.248 38 29.462 50.275.201.152.409.294.611.444h-171.948c-4.143 0-7.5 3.358-7.5 7.5s3.357 7.5 7.5 7.5h281.973c4.143 0 7.5-3.358 7.5-7.5s-3.358-7.501-7.501-7.501zm-4.176-257.944-5.155 62.922h-62.731l-6.015-62.922zm-330.243-28.25h53.688c14.575 0 26.725 10.588 29.158 24.477h-82.846zm-11.625 158.159c6.374 5.114 12.066 11.163 16.84 18.044 2.361 3.403 7.033 4.249 10.438 1.887 3.403-2.361 4.248-7.034 1.887-10.438-5.763-8.306-12.663-15.583-20.403-21.693 10.339-13.917 18.867-23.628 25.829-30.375.308-.25.592-.528.857-.823 10.192-9.7 16.927-12.924 21.022-13.795.97-.206 2.008-.425 3.107-.656l25.299 83.346-67.047 15.334c-4.725-12.931-12.863-24.231-23.317-32.81 1.877-2.79 3.705-5.461 5.488-8.021zm7.425 66.89c0 5.372-.703 10.583-2.01 15.55h-55.649c1.87-3.433 4.144-7.558 6.752-12.2l50.346-11.514c.358 2.673.561 5.394.561 8.164zm-40.741-14.362c5.822-9.928 12.454-20.868 19.53-31.879 7.344 6.35 13.162 14.41 16.832 23.563zm-20.395 75.498c-33.71 0-61.136-27.425-61.136-61.136s27.426-61.136 61.136-61.136c9.873 0 19.199 2.367 27.463 6.541-23.963 37.261-42.975 73.827-43.165 74.193-1.205 2.325-1.111 5.11.25 7.348 1.36 2.238 3.789 3.604 6.408 3.604h61.965c-10.585 18.265-30.335 30.586-52.921 30.586zm75.264-72.66 47.225-10.801c-2.083 4.669-3.251 9.832-3.251 15.266 0 8.48 2.824 16.311 7.576 22.608h-52.281c1.047-5.022 1.602-10.222 1.602-15.55.001-3.916-.297-7.764-.871-11.523zm81.583 27.074c-12.467 0-22.608-10.142-22.608-22.608 0-7.468 3.642-14.099 9.24-18.218.981 2.474 5.861 21.052 7.292 22.615l12.261 17.345c-1.967.56-4.04.866-6.185.866zm18.427-9.533-11.602-16.412-5.842-19.246c12.012.517 21.625 10.447 21.625 22.583 0 4.869-1.552 9.38-4.181 13.075zm49.135-132.127c-5.768 2.223-16.182 9.578-39.932 47.615-8.625 13.813-16.285 27.354-20.278 34.555-2.596-.443-6.271-.988-10.878-.556l-25.279-83.278c38.153-7.747 107.497-21.268 150.992-29.711l3.681 12.028c-12.019 3.525-36.879 11.086-58.306 19.347zm50.107 134.482c-3.807-27.532 11.449-53.37 35.634-64.184l17.752 58.007c2.825 9.232 17.174 4.861 14.344-4.39l-17.751-58.003c.733-.128 1.465-.26 2.208-.362 2.829-.391 5.634-.581 8.413-.581 30.024 0 56.293 22.205 60.519 52.769 2.236 16.176-1.96 32.254-11.816 45.274-9.857 13.02-24.194 21.421-40.371 23.658-16.172 2.239-32.254-1.96-45.273-11.817-13.021-9.858-21.424-24.195-23.659-40.371z"/><path d="m380.067 107.54c4.238 0 7.674-3.436 7.674-7.674s-3.436-7.674-7.674-7.674-7.674 3.436-7.674 7.674 3.436 7.674 7.674 7.674z"/></g></g></svg>