<svg id="Capa_1" enable-background="new 0 0 505 505" height="512" viewBox="0 0 505 505" width="512" xmlns="http://www.w3.org/2000/svg"><g><g><circle cx="172.075" cy="456.941" fill="#596c76" r="40.555"/><circle cx="332.71" cy="456.941" fill="#596c76" r="40.555"/><path d="m413.809 114.283v304.039c0 16.132-9.679 29.997-23.544 36.112-4.86 2.144-10.241 3.339-15.897 3.339h-243.74c-21.788 0-39.441-17.663-39.441-39.451v-304.039c0-21.788 17.653-39.451 39.441-39.451h243.74c5.656 0 11.037 1.184 15.897 3.339 13.865 6.115 23.544 19.98 23.544 36.112z" fill="#baafb9"/><g fill="#aa9ea9"><path d="m291.982 74.834h20.974v183.143h-20.974z"/><path d="m352.282 74.834h20.974v183.143h-20.974z"/><path d="m231.525 74.834h20.974v183.143h-20.974z"/><path d="m171.436 74.834h20.974v183.143h-20.974z"/><path d="m413.809 114.283v304.039c0 16.132-9.679 29.997-23.544 36.112v-376.263c13.865 6.115 23.544 19.98 23.544 36.112z"/></g><path d="m49.705 291.29h41.478v111.599h-41.478z" fill="#01998d"/><path d="m49.705 291.29h20.739v111.599h-20.739z" fill="#0ab69f"/><path d="m413.816 291.29h41.478v111.599h-41.478z" fill="#01998d"/><path d="m413.816 291.29h20.739v111.599h-20.739z" fill="#0ab69f"/><path d="m359.253 424.168h-213.509c-7.739 0-14.012-6.274-14.012-14.012v-138.167c0-7.739 6.274-14.012 14.012-14.012h213.509c7.739 0 14.012 6.274 14.012 14.012v138.167c0 7.738-6.273 14.012-14.012 14.012z" fill="#a44f3e"/><path d="m328.043 424.168h-182.3c-7.739 0-14.012-6.274-14.012-14.012v-138.167c0-7.739 6.274-14.012 14.012-14.012h182.3c7.739 0 14.012 6.274 14.012 14.012v138.167c.001 7.738-6.273 14.012-14.012 14.012z" fill="#bb5d4c"/><path d="m198.842 7.5h109.87v38.404h-109.87z" fill="#bb5d4c"/><path d="m275.369 357.799h66.687v31.588h-66.687z" fill="#ffefd2"/></g><g><path d="m455.295 283.79h-33.982v-170.32c0-25.439-20.697-46.136-46.136-46.136h-26.684v-27.093c0-12.023-9.786-21.804-21.814-21.804h-10.466v-10.937c0-4.142-3.358-7.5-7.5-7.5h-109.871c-4.142 0-7.5 3.358-7.5 7.5v10.937h-13.023c-12.028 0-21.814 9.781-21.814 21.804v27.093h-26.685c-25.439 0-46.136 20.696-46.136 46.136v65.221c.245 9.26 14.226 10.011 15 0v-65.221c0-15.26 11.038-27.982 25.547-30.624v187.382c0 .279.018.553.047.824-.014.313-.047.62-.047.937v138.167c0 11.862 9.65 21.512 21.513 21.512h62.541c9.26-.245 10.011-14.226 0-15h-62.541c-3.591 0-6.513-2.921-6.513-6.512v-138.167c0-3.591 2.921-6.513 6.513-6.513h213.509c3.591 0 6.512 2.921 6.512 6.513v138.167c0 3.591-2.921 6.512-6.512 6.512h-116.189c-9.26.245-10.011 14.226 0 15h116.189c11.862 0 21.512-9.65 21.512-21.512l-.009-300.28c-.245-9.26-14.226-10.011-15 0v141.611c-2.053-.653-45.3-1.01-45.3-1.01v-168.143h54.721c17.168 0 31.136 13.967 31.136 31.136v305.668c0 17.168-13.968 31.136-31.136 31.136h-245.358c-17.168 0-31.136-13.967-31.136-31.136v-204.499c-.245-9.26-14.226-10.011-15 0v69.151h-33.978c-4.142 0-7.5 3.358-7.5 7.5v111.599c0 4.142 3.358 7.5 7.5 7.5h33.979v8.749c0 23.709 17.978 43.289 41.016 45.845 3.87 22.621 23.798 40.017 47.37 40.017 23.476 0 43.337-17.247 47.328-39.727h65.997c3.99 22.479 23.847 39.727 47.318 39.727 23.563 0 43.485-17.382 47.366-39.99 23.143-2.456 41.234-22.089 41.234-45.873v-8.749h33.982c4.142 0 7.5-3.358 7.5-7.5v-111.598c0-4.142-3.358-7.5-7.5-7.5zm-248.953-268.79h94.871v23.404h-94.871zm-34.838 25.241c0-3.752 3.057-6.804 6.814-6.804h13.023v12.467c0 4.142 3.358 7.5 7.5 7.5h109.871c4.142 0 7.5-3.358 7.5-7.5v-12.467h10.466c3.757 0 6.814 3.052 6.814 6.804v27.093h-161.988zm73.494 42.093v168.143h-45.088v-168.143zm-105.767 169.156v-169.156h45.679v168.143s-43.623.359-45.679 1.013zm166.225-1.013h-45.458v-168.143h45.458zm-248.251 144.912v-96.599h26.479v96.599zm114.865 94.611c-15.228 0-28.239-10.555-31.971-24.727h63.951c-3.732 14.172-16.747 24.727-31.98 24.727zm160.642 0c-15.228 0-28.239-10.555-31.971-24.727h63.941c-3.731 14.172-16.742 24.727-31.97 24.727zm115.083-94.611h-26.479v-96.599h26.479z"/><path d="m342.056 396.887c4.142 0 7.5-3.358 7.5-7.5v-31.588c0-4.142-3.358-7.5-7.5-7.5h-66.687c-4.142 0-7.5 3.358-7.5 7.5v31.588c0 4.142 3.358 7.5 7.5 7.5zm-59.187-31.588h51.687v16.588h-51.687z"/><path d="m164.004 381.887c-4.142 0-7.5 3.358-7.5 7.5s3.358 7.5 7.5 7.5h43.224c4.142 0 7.5-3.358 7.5-7.5s-3.358-7.5-7.5-7.5z"/></g></g></svg>