<svg id="Capa_1" enable-background="new 0 0 495.913 495.913" height="512" viewBox="0 0 495.913 495.913" width="512" xmlns="http://www.w3.org/2000/svg"><g><g><g fill="#5f99d7"><path d="m445.177 91.919-38.389-38.389 50.62-39.185c7.649-5.921 18.507-5.233 25.347 1.607 6.84 6.84 7.528 17.698 1.607 25.347z"/><path d="m111.677 363.518-46.335 46.335-34.187-34.187c-7.929-7.929-3.714-21.524 7.318-23.529 22.711-4.129 55.442-6.07 73.204 11.381z"/><path d="m134.787 386.597-46.335 46.335 34.187 34.187c7.929 7.929 21.524 3.714 23.529-7.318 4.129-22.711 6.071-55.442-11.381-73.204z"/></g><path d="m104.224 84.407-12.782-12.782c-4.24-4.24-4.24-11.115 0-15.355l45.588-45.588c4.24-4.24 11.115-4.24 15.355 0l12.782 12.782c4.24 4.24 4.24 11.115 0 15.355l-45.587 45.588c-4.241 4.24-11.116 4.24-15.356 0z" fill="#baafb9"/><path d="m217.451 112.106-12.782-12.782c-4.24-4.24-4.24-11.115 0-15.355l45.588-45.588c4.24-4.24 11.115-4.24 15.355 0l12.782 12.782c4.24 4.24 4.24 11.115 0 15.355l-45.588 45.588c-4.24 4.24-11.115 4.24-15.355 0z" fill="#baafb9"/><path d="m370.469 99.792-133.639 133.639-57.213-38.193-164.988-110.16c-8.405-5.612-9.579-17.508-2.433-24.654l32.089-32.089c6.28-6.28 15.411-8.771 24.01-6.551l225.981 58.345z" fill="#b3ceec"/><path d="m370.469 99.792-133.639 133.639-57.214-38.193 55.503-65.462 59.157-49.647z" fill="#98bce5"/><path d="m411.515 391.698 12.782 12.782c4.24 4.24 11.115 4.24 15.355 0l45.588-45.588c4.24-4.24 4.24-11.115 0-15.355l-12.782-12.782c-4.24-4.24-11.115-4.24-15.355 0l-45.588 45.588c-4.24 4.24-4.24 11.114 0 15.355z" fill="#baafb9"/><path d="m383.816 278.471 12.782 12.782c4.24 4.24 11.115 4.24 15.355 0l45.588-45.588c4.24-4.24 4.24-11.115 0-15.355l-12.782-12.782c-4.24-4.24-11.115-4.24-15.355 0l-45.588 45.588c-4.24 4.24-4.24 11.115 0 15.355z" fill="#baafb9"/><path d="m467.581 451.63-32.089 32.089c-7.146 7.146-19.043 5.972-24.655-2.433l-107.814-161.485-40.53-60.707 133.639-133.639 20.948 81.157 57.053 221.009c2.219 8.598-.272 17.729-6.552 24.009z" fill="#b3ceec"/><path d="m369.111 263.769-66.088 56.032-40.531-60.707 133.64-133.639 20.948 81.157z" fill="#98bce5"/><path d="m340.927 244.419-219.785 182.049c-13.92 11.542-34.33 10.586-47.117-2.201-3.414-3.414-5.984-7.382-7.695-11.631-4.715-11.639-2.94-25.366 5.574-35.566l183.013-219.399c4.386-5.269 9.205-10.153 14.402-14.611l115.374-98.924c15.976-13.711 38.362-15.486 55.968-5.751 3.968 2.185 7.687 4.956 11.044 8.313 9.076 9.076 13.912 20.884 14.41 32.868s-3.374 24.145-11.671 33.936l-98.177 115.752c-4.658 5.494-9.798 10.571-15.34 15.165z" fill="#b3ceec"/><path d="m321.585 225.078-219.776 182.057c-10.201 8.45-23.88 10.193-35.478 5.502-4.715-11.639-2.94-25.366 5.574-35.566l183.013-219.399c4.386-5.269 9.205-10.153 14.402-14.611l115.374-98.924c15.976-13.711 38.362-15.486 55.968-5.751 3.759 6.779 5.791 14.273 6.112 21.839.498 11.984-3.374 24.145-11.671 33.936l-98.177 115.752c-4.658 5.494-9.791 10.578-15.341 15.165z" fill="#d3e1f5"/></g><g><path d="m409.853 112.913c-.804 4.063 1.838 8.009 5.901 8.813 8.414 1.661 9.208-7.894 10.337-13.601 1.95-9.855-1.112-19.994-8.191-27.123s-17.196-10.262-27.067-8.379c-5.734.836-14.844 1.879-13.861 10.278.776 4.07 4.711 6.737 8.772 5.962 7.577-1.445 15.3-3.548 21.513 2.708 6.164 6.208 4.083 13.828 2.596 21.342z"/><path d="m490.543 338.227-12.781-12.781c-6.208-6.207-15.79-7.021-22.893-2.458l-13.14-50.903 21.108-21.116c3.476-3.467 5.391-8.079 5.391-12.984s-1.914-9.517-5.385-12.979l-12.779-12.78c-3.468-3.467-8.077-5.377-12.979-5.377-4.112 0-8.009 1.359-11.205 3.837l-10.274-39.798 44.56-52.539c9.256-10.913 14.03-24.798 13.444-39.096-.141-3.424-.594-6.797-1.328-10.089l18.018-23.276c3.976-5.138 5.942-11.543 5.537-18.047-.414-6.491-3.174-12.598-7.771-17.195-9.491-9.491-24.646-10.452-35.245-2.233l-23.115 17.897c-17.107-3.937-35.779.022-49.893 12.125l-50.217 43.063-44.356-11.448c2.479-3.199 3.837-7.096 3.837-11.21 0-4.905-1.909-9.516-5.376-12.983l-12.779-12.78c-7.158-7.159-18.808-7.16-25.967 0l-21.12 21.119-50.901-13.142c4.561-7.105 3.747-16.688-2.462-22.898l-12.78-12.78c-3.467-3.466-8.078-5.376-12.984-5.376-4.905 0-9.516 1.91-12.983 5.377l-19.9 19.9-41.655-10.755c-11.117-2.872-23.068.39-31.188 8.509l-32.089 32.09c-5 5-7.47 11.904-6.776 18.942s4.466 13.326 10.347 17.253l186.285 124.377-61.841 74.135c-2.653 3.181-2.226 7.91.955 10.563 3.18 2.653 7.909 2.226 10.563-.955l114.254-136.966c4.105-4.922 8.658-9.537 13.53-13.716l115.366-98.932c16.496-14.147 41.459-13.191 56.824 2.175 15.283 15.283 16.304 40.167 2.324 56.651l-98.177 115.755c-4.363 5.145-9.211 9.936-14.406 14.24l-195.039 161.56c-.079.063-.156.127-.232.192l-24.51 20.303c-8.545 7.078-20.767 8.361-30.548 3.089l36.818-36.818c2.929-2.929 2.929-7.678 0-10.606-2.928-2.929-7.677-2.929-10.606 0l-37.011 37.011c-5.834-9.915-4.711-22.68 2.651-31.506l46.904-56.221c2.654-3.181 2.227-7.91-.954-10.563-3.181-2.654-7.911-2.226-10.563.954l-23.437 28.093c-14.399-3.293-32.015-3.094-52.48.627-7.847 1.426-14.201 7.045-16.581 14.664-2.386 7.636-.354 15.893 5.3 21.547l32.861 32.862c1.311 3.637 3.136 7.129 5.469 10.373l-11.057 11.057c-2.929 2.929-2.929 7.678 0 10.606 2.345 2.164 6.713 3.401 10.606 0l11.179-11.179c3.027 2.07 6.257 3.714 9.61 4.917l32.816 32.816c4.089 4.089 9.538 6.283 15.128 6.283 2.142 0 4.304-.322 6.418-.983 7.619-2.38 13.238-8.733 14.665-16.581 3.706-20.389 3.918-37.95.663-52.32l128.283-106.26 122.106 182.89c3.926 5.882 10.214 9.653 17.252 10.348.781.077 1.561.115 2.336.115 6.211 0 12.161-2.445 16.606-6.891l32.091-32.089c8.118-8.119 11.379-20.069 8.509-31.187l-10.752-41.653 19.901-19.9c7.158-7.159 7.158-18.807 0-25.966zm-234.981-294.543c1.31-1.31 3.441-1.312 4.753 0l12.779 12.78c.856.856.983 1.856.983 2.377 0 .52-.127 1.521-.983 2.376l-4.528 4.528-27.871-7.196zm-113.23-27.701c.855-.855 1.856-.983 2.376-.983.521 0 1.521.128 2.377.983l12.78 12.78c1.311 1.311 1.311 3.443 0 4.753l-3.309 3.309-27.871-7.196zm-123.539 62.858c-2.131-1.423-3.497-3.701-3.749-6.251s.643-5.051 2.455-6.863l.451-.451 200.128 124.847-11.666 13.985zm245.654 58.526c-5.505 4.72-10.647 9.934-15.286 15.495l-21.382 25.633-198.941-124.107 20.751-20.751c4.382-4.382 10.832-6.14 16.832-4.592l55.459 14.318-10.691 10.691c-2.929 2.929-2.929 7.678 0 10.606 2.345 2.163 6.713 3.401 10.606 0l16.944-16.944 95.148 24.565-10.854 10.854c-2.929 2.929-2.929 7.678 0 10.606 2.345 2.163 6.713 3.401 10.606 0l17.107-17.108 64.964 16.772zm181.426-104.605 16.132-12.491c10.487-8.127 24.622 5.851 16.431 16.438l-12.546 16.207c-2.437-4.166-5.403-8.046-8.882-11.525-3.399-3.4-7.149-6.271-11.135-8.629zm-411.004 331.133c.347-1.109 1.522-3.757 4.946-4.379 10.833-1.969 25.266-3.613 38.686-2.066l-12.356 14.81c-4.68 5.611-7.685 12.053-9.063 18.728l-20.624-20.625c-2.482-2.483-1.938-5.35-1.589-6.468zm399.844-141.062c.855-.855 1.853-.983 2.371-.983s1.516.128 2.372.983l12.786 12.786c.856.854.984 1.849.984 2.366s-.128 1.511-.992 2.373l-14.859 14.865c-1.575-6.1-5.547-21.488-7.193-27.865zm-295.923 235.626c-.623 3.424-3.27 4.6-4.38 4.946-1.117.349-3.985.893-6.468-1.589l-20.607-20.607c6.624-1.369 13.018-4.342 18.593-8.96l14.939-12.375c1.529 13.396-.114 27.786-2.077 38.585zm323.489-12.132-20.186 20.185-93.247-148.523c-2.201-3.508-6.831-4.567-10.34-2.364-3.508 2.203-4.566 6.832-2.363 10.34l95.07 151.427-1.025 1.025c-1.812 1.812-4.316 2.707-6.863 2.455-2.549-.251-4.827-1.618-6.25-3.749l-122.968-184.183 13.983-11.583 9.337 15.726c2.283 2.745 5.253 5.056 10.278 2.62 3.562-2.114 4.734-6.716 2.62-10.278l-10.542-17.755 25.926-21.476c5.87-4.863 11.347-10.276 16.277-16.089l41.74-49.214 15.561 60.282-17.109 17.109c-2.929 2.929-2.929 7.677 0 10.606 2.345 2.164 6.713 3.401 10.607 0l10.854-10.854 24.562 95.15-16.943 16.943c-2.929 2.929-2.929 7.678 0 10.606 2.346 2.164 6.712 3.401 10.607 0l10.688-10.688 14.314 55.45c1.553 6.001-.207 12.45-4.588 16.832zm17.656-92.74-13.646 13.645c-1.679-6.718-5.351-20.717-7.189-27.868l3.311-3.311c1.308-1.308 3.437-1.309 4.744 0l12.78 12.78c1.311 1.311 1.311 3.443 0 4.754z"/></g></g></svg>