<svg id="Capa_1" enable-background="new 0 0 505 505" height="512" viewBox="0 0 505 505" width="512" xmlns="http://www.w3.org/2000/svg"><g><g><path d="m397.136 84.153v322.422h-289.018v-322.422c0-25.883 20.986-46.869 46.879-46.869h195.27c7.944 0 15.433 1.978 21.991 5.479 14.798 7.87 24.878 23.45 24.878 41.39z" fill="#5f99d7"/><path d="m397.136 84.153v322.422h-24.878v-363.812c14.798 7.87 24.878 23.45 24.878 41.39z" fill="#3c87d0"/><path d="m108.118 333.909h289.019v98.941h-289.019z" fill="#0055a3"/><path d="m108.118 333.909h289.019v43.783h-289.019z" fill="#0067c5"/><path d="m397.136 271.712v36.365l-58.874-8.494-68.426-9.869c-9.35-1.354-18.807-1.597-28.199-.762-2.168.201-4.326.455-6.473.762l-42.141 6.093-84.905 12.27v-36.365l84.471-12.206 42.585-6.156c2.147-.307 4.305-.561 6.463-.762 9.382-.846 18.849-.592 28.199.751l77.131 11.127z" fill="#5de1c4"/><path d="m241.637 252.588v36.365c-2.168.201-4.326.455-6.473.762l-42.141 6.093-.434-36.302 42.585-6.156c2.147-.307 4.305-.561 6.463-.762z" fill="#0ab69f"/><path d="m397.136 271.712v36.365l-58.874-8.494 8.705-35.117z" fill="#0ab69f"/><path d="m334.401 19.419v15.485c0 25.661-20.795 46.456-46.456 46.456h-66.723c-25.65 0-46.456-20.795-46.456-46.456v-15.485c0-6.579 5.342-11.921 11.921-11.921h135.793c6.58 0 11.921 5.341 11.921 11.921z" fill="#0055a3"/><path d="m308.518 19.419v15.485c0 25.661-20.806 46.456-46.456 46.456h-40.84c-25.65 0-46.456-20.795-46.456-46.456v-15.485c0-6.579 5.342-11.921 11.921-11.921h109.9c6.589 0 11.931 5.341 11.931 11.921z" fill="#0067c5"/><path d="m274.285 298.461h-42.842c-6.471 0-11.717-5.246-11.717-11.717v-27.211c0-6.471 5.246-11.717 11.717-11.717h42.842c6.471 0 11.717 5.246 11.717 11.717v27.211c0 6.471-5.246 11.717-11.717 11.717z" fill="#d7d0d6"/><path d="m144.145 320.802v112.047h-66.755c-13.105 0-23.725-10.62-23.725-23.725v-133.298c0-13.105 10.62-23.725 23.725-23.725h49.079z" fill="#baafb9"/><path d="m144.145 320.802v112.047h-28.073v-180.748h10.398z" fill="#aa9ea9"/><path d="m451.335 275.826v133.297c0 13.105-10.62 23.725-23.725 23.725h-66.744v-112.046l17.664-68.701h49.079c13.106 0 23.726 10.62 23.726 23.725z" fill="#baafb9"/><g fill="#aa9ea9"><path d="m451.335 275.826v133.297c0 13.105-10.62 23.725-23.725 23.725h-3.744v-180.747h3.744c13.105 0 23.725 10.62 23.725 23.725z"/><path d="m108.118 432.85h289.018v-26.276h-36.27-216.721-36.027z"/></g></g><path d="m427.609 244.601h-22.974v-160.448c0-29.979-24.39-54.369-54.368-54.369h-8.367v-11.013c0-10.351-8.42-18.771-18.77-18.771h-137.089c-10.35 0-18.771 8.42-18.771 18.771v11.013h-12.273c-29.984 0-54.379 24.39-54.379 54.369v93.33c.245 9.26 14.226 10.011 15 0v-93.33c0-21.708 17.665-39.369 39.379-39.369h12.806c3.574 24.885 25.025 44.075 50.883 44.075h71.799c25.858 0 47.309-19.19 50.884-44.075h8.9c21.708 0 39.368 17.661 39.368 39.369v160.448h-11.107c-3.423 0-6.411 2.317-7.264 5.631l-2.521 9.806-9.058-1.308v-106.843c0-19.556-15.91-35.466-35.467-35.466h-9.505c-9.266.254-9.969 14.237.038 15h9.467c11.285 0 20.467 9.181 20.467 20.466v104.679l-54.551-7.875c-3.466-5.052-9.276-8.375-15.852-8.375h-42.843c-6.53 0-12.302 3.281-15.776 8.274l-55.305 7.995v-104.698c0-11.285 9.181-20.466 20.466-20.466h9.506c9.266-.254 9.969-14.237-.038-15h-9.468c-19.556 0-35.466 15.91-35.466 35.466v106.867l-9.098 1.315c-1.671-5.309-1.821-15.092-9.794-15.468h-10.852v-31.711c-.245-9.26-14.226-10.011-15 0v31.711h-23.225c-17.218 0-31.226 14.008-31.226 31.226v133.297c0 17.218 14.008 31.225 31.226 31.225h71.219l-9.432 28.602c-5.438 14.936 4.222 35.918 21.864 36.048h49.794c4.143 0 7.5-3.358 7.5-7.5s-3.357-7.5-7.5-7.5h-49.794c-7.044-1.007-9.466-8.682-7.618-16.352l10.981-33.298h177.353l10.98 33.296c1.33 5.254.936 14.958-7.618 16.353h-49.793c-4.143 0-7.5 3.358-7.5 7.5s3.357 7.5 7.5 7.5h49.793c16.699.238 27.437-20.143 21.864-36.049l-9.431-28.6h70.057c17.218 0 31.226-14.007 31.226-31.225v-133.297c-.001-17.218-14.009-31.226-31.227-31.226zm-137.125-170.742h-71.799c-19.993 0-36.269-16.197-36.408-36.158.008-.139.021-.276.021-.416 0-.181-.015-.359-.027-.537v-17.977c0-2.08 1.691-3.771 3.771-3.771h137.088c2.079 0 3.771 1.691 3.771 3.771v17.908c-.016.2-.03.401-.03.606 0 .152.014.3.023.45-.158 19.945-16.427 36.124-36.41 36.124zm-139.077 245.073-2.366-9.197 68.39-9.882c3.509 3.748 8.484 6.108 14.011 6.108h42.843c5.484 0 10.425-2.321 13.93-6.018l67.757 9.773c-3.658 10.337-1.722 18.168-3.527 16.691-6.691 0-48.427 0-92.254 0-122.808-.635-107.62 3.454-108.784-7.475zm208.323-23.83-66.228-9.553v-21.219l71.486 10.32zm-128.288-39.787h42.843c3.473 0 3.805 2.089 4.217 4.217v6.105h-22.829c-4.143 0-7.5 3.358-7.5 7.5s3.357 7.5 7.5 7.5h22.829v6.106c-.202 1.205-.028 4.217-4.217 4.217h-42.843c-1.298 0-2.446-.602-3.22-1.526-1.516-2.985-1.692-28.626-.251-32.289.762-1.103 2.032-1.83 3.471-1.83zm-19.216 8.928v21.206l-66.944 9.673-5.259-20.441zm-151.061 144.881v-133.297c0-8.947 7.278-16.226 16.226-16.226h43.266l15.988 62.151v77.322h-28.526c-4.143 0-7.5 3.358-7.5 7.5v18.774h-23.228c-8.948.001-16.226-7.278-16.226-16.224zm54.453 16.225v-11.274h174.963c4.143 0 7.5-3.358 7.5-7.5s-3.357-7.5-7.5-7.5h-138.936v-57.667h201.722v57.667h-27.203c-4.143 0-7.5 3.358-7.5 7.5s3.357 7.5 7.5 7.5h63.473v11.274zm328.217-16.225c0 8.946-7.278 16.225-16.226 16.225h-22.974v-18.774c0-4.142-3.357-7.5-7.5-7.5h-28.77v-77.325l15.979-62.149h43.265c8.947 0 16.226 7.279 16.226 16.226z"/></g></svg>