<svg id="Capa_1" enable-background="new 0 0 504.996 504.996" height="512" viewBox="0 0 504.996 504.996" width="512" xmlns="http://www.w3.org/2000/svg"><g><g><path d="m316.376 205.407v163.19h-143.93v-119.82c0-23.95 19.42-43.37 43.37-43.37z" fill="#5f99d7"/><path d="m316.376 205.407v163.19h-114.65l76.93-163.19z" fill="#3c87d0"/><path d="m270.842 453.902h-221.339c-23.2 0-42.007-18.807-42.007-42.007v-1.289c0-23.2 18.807-42.007 42.007-42.007h221.34v85.303z" fill="#baafb9"/><path d="m427.546 169.577v284.32h-205.84v-35.55c0-17.6 3.84-35 11.24-50.97l78.05-168.38c8.31-17.94 26.28-29.42 46.05-29.42z" fill="#5de1c4"/><path d="m361.786 169.577h65.76v284.32h-65.76z" fill="#0ab69f"/><path d="m414.207 484.657h-381.37c-7.365 0-13.336-5.971-13.336-13.336v-4.083c0-7.365 5.971-13.336 13.336-13.336h381.37c7.365 0 13.336 5.971 13.336 13.336v4.083c.001 7.365-5.97 13.336-13.336 13.336z" fill="#aa9ea9"/><path d="m497.496 84.967v399.69h-71.39c-20.07 0-36.34-16.27-36.34-36.34v-327.01c0-20.07 16.27-36.34 36.34-36.34z" fill="#0ab69f"/><path d="m468.036 84.967h29.46v399.69h-29.46z" fill="#01998d"/><path d="m37.961 279.691h106.175v88.904h-106.175z" fill="#e19974"/><path d="m37.961 279.691h76.304v88.904h-76.304z" fill="#e8ad8c"/><path d="m76.178 279.691h30.664v44.452h-30.664z" fill="#ffefd2"/><path d="m497.496 20.337v36.96h-62.19c-10.05 0-18.2-8.15-18.2-18.2v-.56c0-10.05 8.15-18.2 18.2-18.2z" fill="#e41f2d"/><path d="m468.036 20.337v36.96h-32.73c-10.05 0-18.2-8.15-18.2-18.2v-.56c0-10.05 8.15-18.2 18.2-18.2z" fill="#fd4755"/><path d="m417.103 199.932h80.393v45.589h-80.393z" fill="#c8effe"/><path d="m468.036 199.932h29.46v45.589h-29.46z" fill="#99e6fc"/><g fill="#0ab69f"><circle cx="58.41" cy="411.251" r="15.861"/><circle cx="120.351" cy="411.251" r="15.861"/><circle cx="182.293" cy="411.251" r="15.861"/></g></g><g><path d="m85.418 130.333h120.264c3.033 0 5.769-1.827 6.929-4.63 1.161-2.803.52-6.028-1.625-8.173l-24.381-24.38c-2.929-2.928-7.677-2.93-10.607 0-2.929 2.929-2.929 7.678 0 10.606l11.578 11.577h-102.158c-9.26.245-10.011 14.226 0 15z"/><path d="m417.103 263.386c-4.143 0-7.5 3.358-7.5 7.5s3.357 7.5 7.5 7.5h44.337c4.143 0 7.5-3.358 7.5-7.5s-3.357-7.5-7.5-7.5z"/><path d="m497.496 64.799c4.143 0 7.5-3.358 7.5-7.5v-36.964c0-4.142-3.357-7.5-7.5-7.5h-62.19c-35.72 2.162-32.282 51.249 0 51.964h5.265v12.671h-14.464c-24.174 0-43.841 19.667-43.841 43.841v40.766h-25.222c-22.609 0-43.354 13.257-52.853 33.775-.408.419-.266 2.554-2.771 2.057v-14.351c0-10.299-8.375-18.679-18.669-18.679h-49.864c-10.3 0-18.679 8.379-18.679 18.679v14.408c-27.361 1.193-49.255 23.818-49.255 51.468v111.661h-13.317v-81.404c0-4.142-3.357-7.5-7.5-7.5h-106.175c-4.143 0-7.5 3.358-7.5 7.5v85.409c-5.819 2.483-11.17 6.075-15.778 10.684-9.468 9.48-14.683 22.075-14.683 35.465 0 16.247 7.77 30.708 19.781 39.879-14.898 11.877-7.717 41.312 13.264 41.031h46.636c4.143 0 7.5-3.358 7.5-7.5s-3.357-7.5-7.5-7.5h-46.635c-7.509-.01-9.024-14.91 0-15.755h17.099 334.118c1.843 5.881 4.902 11.225 8.869 15.755h-278.842c-4.143 0-7.5 3.358-7.5 7.5s3.357 7.5 7.5 7.5l383.206-.002c4.143 0 7.5-3.358 7.5-7.5v-204.33c0-4.142-3.357-7.5-7.5-7.5s-7.5 3.358-7.5 7.5v196.83h-63.89c-14.204.255-29.421-12.813-28.841-28.841v-278.682c0-.02.003-.038.003-.058s-.003-.038-.003-.058v-48.208c0-15.903 12.938-28.841 28.841-28.841h63.89v99.962h-72.894c-4.143 0-7.5 3.358-7.5 7.5v45.589c0 4.142 3.357 7.5 7.5 7.5h80.055c.113.005.224.017.339.017 4.143 0 7.5-3.358 7.5-7.5v-.017-45.589-114.961c0-4.142-3.357-7.5-7.5-7.5h-41.926v-12.671zm-264.609 115.08h49.864c2.023 0 3.669 1.65 3.669 3.679v14.351h-57.212v-14.351c0-2.029 1.65-3.679 3.679-3.679zm-52.934 69.555c0-20.14 16.385-36.525 36.525-36.525h79.806l-13.411 28.931h-63.75c-4.143 0-7.5 3.358-7.5 7.5s3.357 7.5 7.5 7.5h56.797l-48.328 104.255h-47.64v-111.661zm-80.611 37.757v29.452h-15.664v-29.452zm-53.881 73.904v-73.904h23.217v36.952c0 4.142 3.357 7.5 7.5 7.5h30.664c4.143 0 7.5-3.358 7.5-7.5v-36.952h22.294v73.904zm-30.461 50.154c0-9.387 3.656-18.218 10.293-24.863 6.636-6.637 15.462-10.292 24.852-10.292h171.204c-4.736 13.568-7.14 27.733-7.14 42.252v28.058h-164.064c-19.379 0-35.145-15.77-35.145-35.155zm249.883 35.155v-33.707c0-12.918 2.682-25.444 7.972-37.229l5.277-11.758c3.566-8.549-8.877-14.956-13.686-6.142l-5.277 11.758c-6.162 13.729-9.286 28.321-9.286 43.371v33.707h-20.675v-28.058c0-16.2 3.374-31.902 10.029-46.671.018-.04.035-.08.053-.12.009-.021.019-.041.027-.061.088-.205.182-.409.276-.614l78.212-168.729c5.259-11.362 15.167-19.723 26.828-23.239l-65.86 146.737c-3.466 7.74 8.011 15.524 13.686 6.143l69.441-154.715h20.367v269.328h-117.384zm159.72-238.972h65.394v30.589h-65.394zm0-168.336c-.28-4.99 4.107-11.141 10.703-11.261h54.69v21.964h-54.69c-5.902 0-10.703-4.801-10.703-10.703z"/><path d="m54.349 387.89c-12.882 0-23.361 10.479-23.361 23.361s10.479 23.361 23.361 23.361c12.881 0 23.36-10.48 23.36-23.361s-10.48-23.361-23.36-23.361zm0 31.722c-4.61 0-8.361-3.751-8.361-8.361s3.751-8.361 8.361-8.361 8.36 3.75 8.36 8.361-3.75 8.361-8.36 8.361z"/><path d="m116.29 387.89c-12.882 0-23.361 10.479-23.361 23.361s10.479 23.361 23.361 23.361 23.361-10.48 23.361-23.361-10.479-23.361-23.361-23.361zm0 31.722c-4.61 0-8.361-3.751-8.361-8.361s3.751-8.361 8.361-8.361 8.361 3.75 8.361 8.361-3.751 8.361-8.361 8.361z"/><path d="m178.232 387.89c-12.882 0-23.361 10.479-23.361 23.361s10.479 23.361 23.361 23.361c12.881 0 23.36-10.48 23.36-23.361s-10.479-23.361-23.36-23.361zm0 31.722c-4.61 0-8.361-3.751-8.361-8.361s3.751-8.361 8.361-8.361 8.36 3.75 8.36 8.361-3.749 8.361-8.36 8.361z"/></g></g></svg>