<svg id="Capa_1" enable-background="new 0 0 497.792 497.792" height="512" viewBox="0 0 497.792 497.792" width="512" xmlns="http://www.w3.org/2000/svg"><g><g><path d="m85.511 30.216h328.52v54.11h-328.52z" fill="#ffefd2"/><path d="m381.771 30.216h32.26v54.11h-32.26z" fill="#fedba6"/><path d="m486.091 417.816h-206.21l-20.9-119.94c-1.79-10.34-16.63-10.34-18.42 0l-20.9 119.94h-206.21l39.08-224.17c72.43-19.67 78.15-109.32 78.15-109.32h238.18s3.71 58.12 42.96 91.03c9.5 7.97 21.08 14.46 35.19 18.29z" fill="#0ab69f"/><path d="m454.091 417.816h-174.21l-20.9-119.94c-1.79-10.34-16.63-10.34-18.42 0l-20.9 119.94h-206.21l39.08-224.17c72.43-19.67 78.15-109.32 78.15-109.32h238.18s3.71 58.12 42.96 91.03z" fill="#5de1c4"/><path d="m130.681 84.326s-5.72 89.65-78.15 109.32l11.29-64.76c4.51-25.75 26.87-44.56 53.01-44.56z" fill="#0067c5"/><path d="m77.679 317.214h114.758l-11.75 65.027h-114.759z" fill="#e9b665"/><path d="m219.661 417.816-5.93 34c-1.59 9.11-9.5 15.76-18.74 15.76h-167.59c-11.82 0-20.77-10.65-18.74-22.29l4.79-27.47z" fill="#ffefd2"/><path d="m472.141 467.576h-167.59c-9.24 0-17.15-6.65-18.74-15.76l-5.93-34h206.21l4.79 27.47c2.03 11.64-6.92 22.29-18.74 22.29z" fill="#fedba6"/><path d="m440.141 467.576h-135.59c-9.24 0-17.15-6.65-18.74-15.76l-5.93-34h174.21l4.79 27.47c2.03 11.64-6.92 22.29-18.74 22.29z" fill="#ffefd2"/><path d="m447.011 193.646c-72.43-19.67-78.15-109.32-78.15-109.32h13.85c26.14 0 48.5 18.81 53.01 44.56z" fill="#0067c5"/></g><g><path d="m191.562 309.714h-114.758c-3.628 0-6.735 2.597-7.38 6.167l-11.75 65.027c-.396 2.187.2 4.437 1.625 6.142 1.425 1.706 3.533 2.691 5.755 2.691h114.759c3.628 0 6.735-2.597 7.38-6.167l11.75-65.027c.396-2.187-.2-4.437-1.625-6.142s-3.533-2.691-5.756-2.691zm-18.016 65.027h-99.516l9.04-50.027h99.516z"/><path d="m109.45 357.228h40.011c4.142 0 7.5-3.358 7.5-7.5s-3.358-7.5-7.5-7.5h-40.011c-4.142 0-7.5 3.358-7.5 7.5s3.358 7.5 7.5 7.5z"/><path d="m497.395 443.997-55.161-316.405c-2.769-15.809-11.392-29.282-23.405-38.37 1.136-1.314 1.827-3.023 1.827-4.897v-54.11c0-4.142-3.358-7.5-7.5-7.5h-328.52c-4.142 0-7.5 3.358-7.5 7.5v54.11c0 1.874.692 3.582 1.827 4.897-12.013 9.088-20.637 22.562-23.406 38.375l-55.16 316.4c-1.349 7.736.774 15.618 5.825 21.625 5.05 6.008 12.451 9.453 20.304 9.453h167.59c12.917 0 23.906-9.24 26.129-21.972l26.832-153.949c.08-.459.266-1.534 1.82-1.534s1.74 1.075 1.821 1.542l26.831 153.942c2.222 12.73 13.21 21.971 26.128 21.971h167.59c7.853 0 15.253-3.445 20.304-9.453 5.049-6.007 7.172-13.889 5.824-21.625zm-69.937-313.823 9.106 52.229c-35.897-15.337-54.413-53.791-60.112-90.577h5.385c22.542 0 41.729 16.13 45.621 38.348zm-21.802-53.348h-67.128v-39.11h67.128zm-107.246 0-2.066-17.434c-.487-4.113-4.212-7.051-8.331-6.565-4.113.487-7.053 4.217-6.565 8.331l1.857 15.668h-26.909v-39.11h67.132v39.11zm-83.923 0 1.857-15.668c.488-4.113-2.452-7.843-6.565-8.331-4.114-.484-7.843 2.452-8.331 6.565l-2.066 17.434h-25.118v-39.11h67.132v39.11zm-122.351 0v-39.11h67.128v39.11zm23.82 15h5.378c-5.744 36.678-24.334 75.145-60.102 90.559l9.101-52.205c3.893-22.224 23.08-38.354 45.623-38.354zm89.512 358.7c-.966 5.534-5.74 9.55-11.352 9.55h-167.59c-3.413 0-6.629-1.497-8.822-4.105-2.194-2.609-3.116-6.034-2.529-9.396l3.707-21.259h190.983zm274.62 5.444c-2.193 2.609-5.409 4.105-8.822 4.105h-167.59c-5.612 0-10.386-4.016-11.351-9.549l-4.397-25.211h31.968c4.142 0 7.5-3.358 7.5-7.5s-3.358-7.5-7.5-7.5h-34.583l-19.816-113.719c-1.425-8.229-8.251-13.976-16.6-13.976s-15.175 5.747-16.599 13.967l-19.818 113.728h-190.984l36.75-210.804c46.495-14.987 71.87-61.701 78.272-107.686h61.086l-9.156 77.261c-.488 4.113 2.452 7.843 6.565 8.331.3.036.598.053.892.053 3.748 0 6.987-2.804 7.438-6.618l9.365-79.026h72.374l13.895 117.246c.452 3.813 3.69 6.618 7.438 6.618.294 0 .592-.018.892-.053 4.113-.487 7.053-4.217 6.565-8.331l-13.686-115.48h61.085c4.811 34.658 20.032 70.321 48.397 92.054 8.966 6.87 19.126 12.166 29.875 15.631l36.75 210.804h-123.064c-4.142 0-7.5 3.358-7.5 7.5s3.358 7.5 7.5 7.5h125.681l3.707 21.259c.587 3.362-.335 6.787-2.529 9.396z"/></g></g></svg>