<svg id="Capa_1" enable-background="new 0 0 505 505" height="512" viewBox="0 0 505 505" width="512" xmlns="http://www.w3.org/2000/svg"><g><g><g fill="#0067c5"><path d="m279.05 303.67c.01 2.51.22 5.03.64 7.53-2.69-12.55-13.84-21.95-27.19-21.95-13.25 0-24.33 9.26-27.12 21.67.38-2.41.58-4.84.59-7.25.13-25.24-19.62-49.24-48.82-49.24h150.71c-29.2 0-48.95 24.01-48.81 49.24z"/><path d="m90.085 254.428c-26.304 0-48.361 13.296-61.4 32.644h-21.185v-32.644z"/><path d="m497.5 254.428v32.644h-21.175c-3.601-5.345-7.889-10.228-12.772-14.496-9.756-8.535-21.852-14.609-35.506-17.009-4.227-.749-8.618-1.139-13.121-1.139z"/></g><path d="m497.5 254.428h-71.833l-109.617-52.506c-33.28-15.942-69.895-8.761-81.774 16.025l-40.82-19.554 19.82-15.707c31.023-24.55 73.341-29.279 109.012-12.188z" fill="#5f99d7"/><path d="m275.66 100.554-32.018 32.008c-19.431-19.431-56.353-14.034-82.451 12.065l-109.803 109.801h-43.888l137.368-137.368c27.976-27.976 69.453-37.579 106.878-24.724z" fill="#5f99d7"/><path d="m225.965 303.671c-.051 10.833-3.775 21.872-11.972 31.351l-46.863 54.168c-40.431 46.73-115.762 35.363-140.62-21.205l-4.247-9.684c-10.916-24.868-7.048-51.264 6.422-71.228 13.039-19.348 35.096-32.644 61.4-32.644h87.068c29.197-.001 48.945 24.005 48.812 49.242z" fill="#596c76"/><path d="m225.965 303.671c-.051 10.833-3.775 21.872-11.972 31.351l-46.863 54.168c-21.103 24.396-51.716 32.952-79.702 27.525 17.45-3.406 34.142-12.434 47.191-27.525l46.863-54.167c8.197-9.479 11.921-20.518 11.972-31.351.133-25.237-19.615-49.243-48.812-49.243h32.511c29.197-.001 48.945 24.005 48.812 49.242z" fill="#465a61"/><path d="m482.747 358.301-4.247 9.684c-24.858 56.568-100.189 67.935-140.62 21.205l-46.873-54.167c-8.197-9.479-11.911-20.518-11.962-31.351-.133-25.227 19.615-49.243 48.812-49.243h87.068c4.504 0 8.895.39 13.121 1.139 13.655 2.401 25.75 8.474 35.506 17.009 4.883 4.268 9.172 9.151 12.772 14.496 13.471 19.963 17.339 46.36 6.423 71.228z" fill="#596c76"/><path d="m482.747 358.301-4.247 9.684c-16.455 37.456-55.039 55.091-90.977 49.171 26.581-4.36 51.121-21.267 63.39-49.171l4.247-9.684c10.916-24.868 7.048-51.264-6.422-71.228-3.601-5.345-7.889-10.228-12.772-14.496-9.756-8.535-21.852-14.609-35.506-17.009-4.227-.749-8.617-1.139-13.121-1.139h27.586c4.504 0 8.895.39 13.121 1.139 13.655 2.401 25.75 8.474 35.506 17.009 4.883 4.268 9.172 9.151 12.772 14.496 13.471 19.963 17.339 46.36 6.423 71.228z" fill="#465a61"/></g><g><path d="m504.995 254.328c-.037-2.813-1.71-5.445-4.255-6.664l-175.213-83.928c-18.769-8.993-39.624-12.523-60.323-10.211-20.694 2.313-40.26 10.364-56.587 23.285l-19.821 15.706c-2.027 1.606-3.084 4.144-2.795 6.714.288 2.57 1.88 4.811 4.213 5.928l40.821 19.554c3.736 1.789 8.214.212 10.003-3.522 10.076-21.024 42.272-26.632 71.771-12.502l79.837 38.241h-323.152l96.999-96.999c11.488-11.488 25.519-18.942 39.509-20.988 13.169-1.927 24.655 1.242 32.336 8.923 2.929 2.928 7.677 2.929 10.605.001l32.019-32.008c1.83-1.829 2.588-4.472 2.005-6.993s-2.423-4.563-4.87-5.404l-23.915-8.218c-19.691-6.764-40.822-7.856-61.11-3.163-20.284 4.693-38.787 14.956-53.508 29.677l-137.366 137.367c-1.389 1.388-2.198 3.34-2.198 5.304v32.644c0 4.142 3.358 7.5 7.5 7.5h8.392c-9.653 20.989-9.991 45.112-.498 66.741l4.25 9.689c12.716 28.938 38.969 49.028 70.226 53.74 4.633.698 9.259 1.042 13.848 1.042 26.367 0 51.472-11.33 69.084-31.686 4.736-5.475 23.835-21.195 15.019-28.822-8.828-7.637-21.618 13.524-26.362 19.008-17.292 19.985-43.218 29.567-69.353 25.626-26.14-3.94-48.095-20.741-58.727-44.937l-4.248-9.687c-9.236-21.041-7.078-44.974 5.774-64.022 12.563-18.643 32.676-29.335 55.181-29.335h87.026c24.717.116 44.521 22.49 40.933 47.296-1.11 7.615-4.415 14.752-9.724 20.892-4.177 4.828-15.491 14.006-7.889 20.583 7.602 6.576 15.057-5.942 19.234-10.77 6.954-8.042 11.372-17.385 13.039-27.391 2.071-9.149 10.39-15.788 19.795-15.788 9.466 0 17.773 6.67 19.819 15.878 1.677 9.977 6.087 19.289 13.017 27.302l46.873 54.167c17.614 20.357 42.715 31.686 69.084 31.686 4.587 0 9.216-.343 13.848-1.042 31.257-4.711 57.51-24.801 70.229-53.745l4.247-9.684-.001.002c9.495-21.631 9.156-45.755-.496-66.743h8.381c4.142 0 7.5-3.358 7.5-7.5v-32.644c-.001-.034-.006-.066-.006-.1zm-273.671-46.11-23.803-11.402 10.408-8.247c28.571-22.61 68.263-27.047 101.117-11.305l145.436 69.665h-37.112l-108.081-51.77c-33.983-16.279-71.529-10.174-87.965 13.059zm-81.153-85.854c25.769-25.767 64.684-34.767 99.138-22.935l12.553 4.313-18.656 18.65c-10.587-7.566-24.295-10.5-39.375-8.293-17.162 2.51-34.188 11.468-47.944 25.224l-107.606 107.605h-22.675zm-135.171 139.564h27.915c-6.895 4.89-13.034 10.877-18.099 17.644h-9.816zm237.5 19.822c-7.836 0-15.123 2.512-21.021 6.864-2.754-10.124-8.314-19.498-15.97-26.684h73.995c-7.682 7.213-13.259 16.636-16 26.802-5.935-4.404-13.247-6.982-21.004-6.982zm223.38 73.536c0 .001 0 .001-.001.002l-4.245 9.679c-10.635 24.201-32.589 41.001-58.729 44.941-26.135 3.939-52.061-5.641-69.353-25.626l-46.872-54.166c-22.48-25.997-3.494-68.027 31.218-68.189h87.027c22.013 0 42.889 11.091 55.183 29.339 12.85 19.046 15.008 42.979 5.772 64.02zm14.12-75.714h-9.804c-5.05-6.755-11.166-12.749-18.035-17.644h27.839z"/><path d="m119.556 283.156c-3.518-2.186-8.143-1.105-10.329 2.413l-47.313 76.151c-4.235 7.243 5.619 16.613 12.741 7.916l47.313-76.151c2.186-3.519 1.106-8.143-2.412-10.329z"/><path d="m118.513 353.991c2.461 1.53 7.037 1.825 10.329-2.413l21.123-33.998c2.186-3.519 1.106-8.143-2.413-10.329-3.518-2.186-8.143-1.105-10.329 2.413l-21.123 33.999c-2.186 3.518-1.106 8.142 2.413 10.328z"/><path d="m432.771 289.195c-3.519-2.187-8.143-1.105-10.329 2.413l-43.561 70.112c-4.929 7.933 7.34 16.609 12.741 7.916l43.561-70.112c2.187-3.519 1.107-8.143-2.412-10.329z"/><path d="m389.804 289.195c-3.518-2.187-8.143-1.105-10.329 2.413l-32.342 52.055c-4.929 7.933 7.34 16.609 12.741 7.916l32.342-52.055c2.186-3.519 1.106-8.143-2.412-10.329z"/></g></g></svg>