<svg id="Capa_1" enable-background="new 0 0 505 505" height="512" viewBox="0 0 505 505" width="512" xmlns="http://www.w3.org/2000/svg"><g><g><path d="m56.15 155.305c-7.2 14.02-11.27 29.92-11.27 46.77s4.07 32.75 11.27 46.77v76.91h-28.65c-11.05 0-20-8.95-20-20v-136.73c0-11.04 8.95-20 20-20h32.17c-1.25 2.05-2.42 4.14-3.52 6.28z" fill="#bb5d4c"/><path d="m56.15 155.3c-7.2 14.03-11.27 29.92-11.27 46.78 0 16.84 4.07 32.75 11.27 46.76v76.92h-25.84v-72.16c-6.95-15.76-10.81-33.19-10.81-51.52 0-18.34 3.86-35.77 10.81-51.54v-1.51h29.36c-1.25 2.05-2.42 4.13-3.52 6.27z" fill="#a44f3e"/><path d="m278.81 206.335v62.12h-40.24v-19.59c6.6-12.84 10.57-27.25 11.19-42.53z" fill="#aa9ea9"/><path d="m238.57 409.465v55.23c0 13.11-10.62 23.74-23.74 23.74h-134.94c-13.11 0-23.74-10.63-23.74-23.74v-55.23z" fill="#bb5d4c"/><path d="m238.57 409.47v55.23c0 13.1-10.62 23.73-23.74 23.73h-39.74c13.12 0 23.74-10.63 23.74-23.73v-55.23z" fill="#a44f3e"/><path d="m238.57 248.865v160.6h-182.42v-160.62c16.99 33.08 51.46 55.72 91.21 55.72 39.74 0 74.21-22.63 91.21-55.7z" fill="#d7d0d6"/><path d="m238.57 248.86v160.61h-39.74v-118.75c16.92-9.85 30.77-24.4 39.74-41.86z" fill="#baafb9"/><path d="m497.5 254.99v51.71c0 10.52-8.53 19.06-19.06 19.06h-180.57c-10.53 0-19.06-8.54-19.06-19.06v-9.22h116.24l27.78-27.77c8.79-8.8 20.49-13.99 32.84-14.65.89-.05 1.78-.07 2.67-.07z" fill="#bb5d4c"/><path d="m497.5 254.99v51.71c0 10.52-8.53 19.06-19.06 19.06h-41.83c10.53 0 19.06-8.54 19.06-19.06v-51.64c.89-.05 1.78-.07 2.67-.07z" fill="#a44f3e"/><path d="m497.5 168.09v86.9h-39.16c-.89 0-1.78.02-2.67.07-12.35.66-24.05 5.85-32.84 14.65l-27.78 27.77h-116.24v-129.39c0-10.54 8.53-19.06 19.06-19.06h180.57c10.53 0 19.06 8.52 19.06 19.06z" fill="#d7d0d6"/><path d="m497.5 168.09v86.9h-39.16c-.89 0-1.78.02-2.67.07v-106.03h22.77c10.53 0 19.06 8.52 19.06 19.06z" fill="#baafb9"/><path d="m229.19 42.765h-84.14l2.31-26.2h79.52z" fill="#aa9ea9"/><path d="m229.19 42.77h-39.85l-2.33-26.2h39.87z" fill="#9b8e99"/><path d="m238.57 149.025v6.26c-1.1-2.13-2.26-4.22-3.51-6.26-17.96-29.64-50.52-49.44-87.7-49.44-2.47 0-4.92.09-7.35.26l5.04-57.08h84.14z" fill="#d7d0d6"/><path d="m238.57 149.03v6.25c-1.1-2.12-2.26-4.21-3.51-6.25-9.56-15.77-23.25-28.76-39.57-37.45l-6.15-68.81h39.85z" fill="#baafb9"/><path d="m238.57 155.285c-1.1-2.13-2.26-4.22-3.51-6.26-17.96-29.64-50.52-49.44-87.7-49.44-2.47 0-4.92.09-7.35.26-34.09 2.42-63.58 21.51-80.34 49.18-1.25 2.05-2.42 4.14-3.52 6.28-7.2 14.02-11.27 29.92-11.27 46.77s4.07 32.75 11.27 46.77c16.99 33.08 51.46 55.72 91.21 55.72 39.74 0 74.21-22.63 91.21-55.7 6.6-12.84 10.57-27.25 11.19-42.53.06-1.41.09-2.83.09-4.26 0-16.86-4.07-32.76-11.28-46.79z" fill="#9b8e99"/><path d="m211.97 202.067c0 7.968-1.435 15.585-4.072 22.627-3.029 8.118-7.642 15.46-13.474 21.651h-94.128c-5.832-6.191-10.446-13.533-13.474-21.651-2.636-7.042-4.072-14.659-4.072-22.627 0-7.959 1.435-15.577 4.072-22.618 3.029-8.118 7.642-15.443 13.466-21.634l.008-.008h94.128l.008.008c5.824 6.191 10.437 13.516 13.466 21.634 2.637 7.041 4.072 14.658 4.072 22.618z" fill="#7b7179"/><path d="m362.025 201.81v34.221c0 7.451 7.841 12.298 14.506 8.965l34.221-17.111c7.388-3.694 7.388-14.237 0-17.93l-34.221-17.111c-6.664-3.331-14.506 1.515-14.506 8.966z" fill="#9b8e99"/><path d="m135.67 337.167h66.437v34.026h-66.437z" fill="#fd4755"/></g><g><path d="m497.5 198.5c4.143 0 7.5-3.358 7.5-7.5v-22.916c0-14.645-11.915-26.56-26.561-26.56h-180.569c-14.646 0-26.561 11.915-26.561 26.56v30.75h-14.006c-.451-15.887-4.23-31.101-11.234-45.305.019-1.701.119-3.464-.029-5.164l-11.69-132.46c-.342-3.872-3.584-6.841-7.471-6.841h-79.52c-3.887 0-7.129 2.969-7.471 6.841l-6.805 77.105c-31.549 4.117-59.934 21.852-77.531 48.514h-28.052c-15.164 0-27.5 12.336-27.5 27.5v136.73c0 15.164 12.336 27.5 27.5 27.5h21.15v131.44c0 17.226 14.014 31.24 31.24 31.24h17.61c4.142 0 7.5-3.358 7.5-7.5s-3.358-7.5-7.5-7.5h-17.61c-8.955 0-16.24-7.285-16.24-16.24v-47.73h167.42v47.73c0 8.955-7.285 16.24-16.24 16.24h-82.83c-4.142 0-7.5 3.358-7.5 7.5s3.358 7.5 7.5 7.5h82.83c17.226 0 31.24-14.014 31.24-31.24v-188.74h25.24v30.74c0 14.646 11.915 26.56 26.561 26.56h180.569c14.646 0 26.561-11.915 26.561-26.56v-80.194c0-4.142-3.357-7.5-7.5-7.5s-7.5 3.358-7.5 7.5v20.995h-31.66c-15.416 0-29.911 6.004-40.813 16.907l-25.583 25.583h-105.635v-121.9c0-6.374 5.186-11.56 11.561-11.56h180.569c6.374 0 11.561 5.186 11.561 11.56v22.915c-.001 4.143 3.356 7.5 7.499 7.5zm-269.368-71.135c-20.463-22.259-49.7-35.047-79.908-35.276l3.691-41.823h70.41l6.91 78.304c-.367-.403-.735-.804-1.103-1.205zm-8.119-103.3.988 11.2h-67.763l.988-11.2zm-79.48 83.262c49.327-3.457 94.307 32.733 100.959 81.836 7.215 53.258-32.628 103.077-86.153 107.536-53.51 4.457-101.088-37.685-102.852-91.373-1.649-50.236 37.696-94.425 88.046-97.999zm-113.033 210.928c-6.893 0-12.5-5.607-12.5-12.5v-136.73c0-6.893 5.607-12.5 12.5-12.5h19.731c-13.496 29.705-12.99 64.817 1.418 94.099v67.631zm36.15 83.71v-76.21-52.276c43.111 50.707 124.301 50.698 167.42.007v128.479zm182.42-141.01v-10.309c5.682-11.516 9.311-24.041 10.661-36.812h14.579v47.12h-25.24zm148.98 44.03c1.989 0 3.896-.79 5.304-2.197l27.78-27.78c8.069-8.069 18.797-12.513 30.206-12.513h31.66v44.2c0 6.374-5.187 11.56-11.561 11.56h-180.569c-6.375 0-11.561-5.186-11.561-11.56v-1.71z"/><path d="m94.826 251.474c1.423 1.489 3.403 2.37 5.47 2.37h94.128c2.067 0 4.042-.853 5.459-2.357 6.619-7.025 11.68-15.158 15.04-24.164 8.171-21.824 5.091-46.965-8.15-66.143-1.747-2.531-3.658-4.948-5.712-7.236-1.813-2.02-3.768-3.638-6.637-3.638h-94.128c-1.989 0-3.905.798-5.312 2.205-.054.054-.107.109-.16.165-6.62 7.037-11.677 15.163-15.027 24.143-7.476 19.97-5.58 42.814 5.072 61.282 2.784 4.826 6.137 9.318 9.957 13.373zm106.046-29.402c-2.292 6.145-5.584 11.774-9.804 16.772h-71.852l74.525-70.1c2.96 4.104 5.354 8.562 7.134 13.333 4.786 12.784 4.783 27.212-.003 39.995zm-107.024-40.002c2.287-6.129 5.579-11.756 9.805-16.764h71.851l-74.525 70.1c-2.956-4.1-5.35-8.561-7.133-13.342-4.787-12.784-4.784-27.212.002-39.994z"/><path d="m202.107 329.667h-66.437c-4.142 0-7.5 3.358-7.5 7.5v34.026c0 4.142 3.358 7.5 7.5 7.5h66.437c4.142 0 7.5-3.358 7.5-7.5v-34.026c0-4.143-3.358-7.5-7.5-7.5zm-7.5 34.025h-51.437v-19.026h51.437z"/><path d="m202.107 456.65c4.142 0 7.5-3.358 7.5-7.5s-3.358-7.5-7.5-7.5h-32.343c-4.142 0-7.5 3.358-7.5 7.5s3.358 7.5 7.5 7.5z"/><path d="m379.886 186.137c-5.471-2.735-11.845-2.449-17.049.767s-8.312 8.789-8.312 14.907v34.221c0 6.118 3.106 11.69 8.311 14.906 2.833 1.75 6.012 2.633 9.202 2.633 2.673 0 5.354-.619 7.848-1.866l34.222-17.111c5.975-2.987 9.687-8.993 9.687-15.673s-3.712-12.686-9.687-15.673zm27.512 35.041-34.222 17.111c-1.091.547-2.007.166-2.454-.111-.447-.276-1.197-.922-1.197-2.146v-34.221c0-1.224.75-1.871 1.197-2.147.28-.173.746-.389 1.324-.389.342 0 .724.075 1.13.278l34.222 17.111c1.214.607 1.396 1.675 1.396 2.257s-.182 1.65-1.396 2.257z"/></g></g></svg>