<svg id="Capa_1" enable-background="new 0 0 505.013 505.013" height="512" viewBox="0 0 505.013 505.013" width="512" xmlns="http://www.w3.org/2000/svg"><g><g><path d="m404.35 151.377-1.207 1.935-118.846 191.367v117.296h50.466c4.91 0 9.353 1.987 12.578 5.202 3.214 3.225 5.202 7.657 5.202 12.567 0 6.939-3.974 12.942-9.769 15.865-2.403 1.217-5.129 1.904-8.01 1.904h-138.364c-2.882 0-5.597-.687-8.01-1.904-1.685-.853-3.225-1.977-4.557-3.298-3.214-3.215-5.202-7.657-5.202-12.567 0-9.81 7.959-17.769 17.769-17.769h50.466v-120.812l-116.672-187.851-1.196-1.935c-10.996-17.685 1.727-40.562 22.554-40.562h230.234c20.827 0 33.55 22.877 22.564 40.562z" fill="#c8effe"/><path d="m347.341 467.177c3.214 3.225 5.202 7.657 5.202 12.567 0 6.939-3.974 12.942-9.769 15.865-2.403 1.217-5.129 1.904-8.01 1.904h-138.364c-2.882 0-5.597-.687-8.01-1.904-1.685-.853-3.225-1.977-4.557-3.298-3.214-3.215-5.202-7.657-5.202-12.567 0-9.81 7.959-17.769 17.769-17.769h50.466v-120.812l-116.672-187.851c4.702-6.398 12.255-10.767 21.358-10.767h230.234c9.103 0 16.656 4.369 21.358 10.767l-118.847 191.367v117.296h50.466c4.911.001 9.353 1.988 12.578 5.202z" fill="#eaf6ff"/><path d="m256.015 297.981-72.761-117.155c-6.657-10.719 1.051-24.581 13.67-24.581h139.496c12.618 0 20.327 13.862 13.67 24.581l-72.761 117.155c-4.908 7.902-16.407 7.902-21.314 0z" fill="#fee903"/><path d="m128.998 151.377 19.132 30.794 18.455 29.732c-11.548 4.879-24.239 7.574-37.556 7.574-53.379 0-96.646-43.267-96.646-96.646s43.267-96.646 96.646-96.646c49.311 0 89.988 36.921 95.897 84.63h-73.374c-20.827 0-33.55 22.877-22.554 40.562z" fill="#fee903"/><path d="m128.998 151.377 19.132 30.794c-6.023 1.935-12.432 2.986-19.1 2.986-34.424 0-62.326-27.901-62.326-62.326s27.901-62.326 62.326-62.326c30.315 0 55.564 21.628 61.161 50.31h-38.638c-20.828 0-33.551 22.877-22.555 40.562z" fill="#ffefd2"/><path d="m470.981 62.825-9.275 15.086c-3.205 5.213-10.029 6.841-15.242 3.636l-45.902-28.219c-5.213-3.205-12.038-1.577-15.242 3.636l-106.144 172.66c-3.205 5.213-10.029 6.841-15.242 3.636l-15.086-9.274c-5.213-3.205-6.841-10.029-3.636-15.242l112.138-182.41c11.426-18.586 35.755-24.39 54.341-12.964l55.653 34.214c5.214 3.204 6.842 10.028 3.637 15.241z" fill="#0ab69f"/><path d="m324.287 156.246-45.108 73.374c-3.204 5.212-10.029 6.845-15.241 3.641l-15.095-9.28c-5.212-3.204-6.835-10.029-3.631-15.241l32.271-52.495h46.804z" fill="#5de1c4"/></g><path d="m479.615 52.711c-1.151-4.828-4.114-8.918-8.343-11.517l-55.653-34.214c-10.694-6.575-23.312-8.594-35.523-5.679-12.213 2.914-22.56 10.408-29.135 21.104l-49.74 80.909h-69.886c-9.214-48.69-52.07-84.63-102.306-84.63-57.426 0-104.146 46.72-104.146 104.146s46.72 104.146 104.146 104.146c11.86 0 23.42-1.97 34.457-5.847l75.881 122.173v111.173h-42.967c-12.33 0-23.179 9.337-24.994 21.54-2.238 15.046 9.784 28.998 24.994 28.998h138.363c12.331 0 23.188-9.333 25.005-21.54 2.24-15.049-9.796-28.998-25.005-28.998h-42.966v-107.656l118.924-191.484c6.616-10.65 6.928-23.552.834-34.512-6.096-10.963-17.225-17.508-29.77-17.508h-16.155l26.079-42.421c.676-1.099 1.68-1.479 2.219-1.607.538-.129 1.605-.244 2.706.433l45.902 28.219c8.729 5.366 20.193 2.63 25.56-6.098l9.274-15.086c2.599-4.23 3.397-9.217 2.245-14.044zm-439.731 70.119c0-49.155 39.99-89.146 89.146-89.146 42.035 0 78.036 29.388 86.998 69.63h-19.944c-8.557-29.495-35.825-50.31-67.054-50.31-30.898 0-57.155 20.18-66.329 48.046-.025.069-.055.133-.078.203-.014.042-.021.084-.034.125-2.189 6.763-3.385 13.968-3.385 21.451 0 22.954 11.136 43.352 28.286 56.087.16.139.323.275.498.402.151.11.313.19.47.287 11.445 8.202 25.448 13.05 40.571 13.05 5.297 0 10.545-.602 15.67-1.779l10.652 17.153c-8.477 2.622-17.297 3.947-26.322 3.947-49.155 0-89.145-39.99-89.145-89.146zm34.32 0c0-3.292.308-6.512.867-9.646l41.823 13.589-25.831 35.553c-10.38-9.981-16.859-23.992-16.859-39.496zm47.325-10.322-41.826-13.59c7.853-16.134 23.394-27.853 41.826-30.387zm-2.081 36.269c1.671 4.613 4.495 8.677 7.067 12.819l9.684 15.594c-2.369.31-4.763.466-7.17.466-9.341 0-18.141-2.354-25.847-6.491zm17.081-42.032v-38.216c19.838 2.74 36.672 16.178 43.75 34.785h-28.727c-5.362.001-10.461 1.206-15.023 3.431zm245.257 11.57c14.644 0 23.963 16.597 16.193 29.105l-120.053 193.303c-.738 1.188-1.129 2.559-1.129 3.957v117.296c0 4.142 3.357 7.5 7.5 7.5h50.466c13.232 0 13.185 20.538 0 20.538h-138.363c-13.222 0-13.173-20.538 0-20.538h50.467c4.143 0 7.5-3.358 7.5-7.5v-120.813c0-1.398-.391-2.769-1.129-3.957l-98.689-158.903c-.018-.029-.031-.061-.049-.09l-18.494-29.766-.639-1.029c-3.703-5.957-3.881-13.173-.474-19.304 3.41-6.135 9.638-9.798 16.659-9.798h38.638 34.735 67.074l-18.707 30.43h-76.368c-8.688 0-16.396 4.533-20.618 12.125s-4.007 16.532.577 23.913l72.762 117.155c3.683 5.93 10.048 9.47 17.027 9.47s13.345-3.54 17.027-9.469l32.107-51.696c2.186-3.519 1.104-8.143-2.414-10.328-3.516-2.185-8.143-1.105-10.328 2.414l-32.107 51.696c-1.336 2.151-3.441 2.383-4.285 2.383s-2.949-.232-4.285-2.383l-72.762-117.155c-2.406-3.874-.948-7.38-.21-8.708s2.948-4.416 7.509-4.416h67.147l-25.249 41.07c-2.599 4.228-3.396 9.215-2.244 14.042 1.151 4.828 4.114 8.917 8.342 11.517l15.087 9.275c3.027 1.861 6.383 2.748 9.7 2.747 6.246 0 12.354-3.145 15.859-8.845l42.914-69.806h7.939c4.561 0 6.771 3.088 7.509 4.416s2.196 4.834-.21 8.708l-22.354 35.994c-2.186 3.519-1.104 8.143 2.414 10.328 3.518 2.184 8.143 1.105 10.328-2.414l22.354-35.994c4.584-7.38 4.8-16.32.577-23.913-4.018-7.224-11.191-11.669-19.361-12.084l18.733-30.471h25.377zm-61.693 30.43h-29.193l18.707-30.43h29.193zm-9.221 15-38.085 61.951c-1.033 1.681-3.244 2.208-4.925 1.175l-15.087-9.275c-1.099-.676-1.479-1.68-1.607-2.219s-.243-1.607.434-2.707l30.078-48.926h29.192zm153.72-104.847-9.273 15.086c-1.035 1.683-3.246 2.208-4.926 1.175l-45.903-28.219c-4.227-2.599-9.214-3.396-14.042-2.245-4.828 1.152-8.918 4.115-11.518 8.343l-30.908 50.277h-29.193l44.911-73.054c9.127-14.848 29.145-19.649 44.023-10.502l55.653 34.213c1.1.676 1.479 1.681 1.608 2.22.129.538.244 1.606-.432 2.706z"/></g></svg>