<svg id="Capa_1" enable-background="new 0 0 504.979 504.979" height="512" viewBox="0 0 504.979 504.979" width="512" xmlns="http://www.w3.org/2000/svg"><g><g><path d="m157.078 402.668c-29.405 0-54.671-20.859-60.251-49.731l-6.007-31.102c8.738-.918 15.385-9.901 14.425-17.882-2.347-19.333-26.93-30.142-5.826-98.875 13.305-43.35 68.509-81.74 68.509-81.74s28.584 31.433 33.182 52.068c18.981 85.293-26.781 121.388-12.91 137.435 6.935 8.013 20.987 8.12 29.384-3.67.139 8.536.384 17.423.704 26.781l.107 3.212c1.217 34.707-26.588 63.504-61.317 63.504z" fill="#fef056"/><path d="m241.858 129.143c-4.214 14.468-7.778 27.858-10.755 40.576-10.83-33.79-33.438-60.582-59.974-81.473 0 0-73.695 31.006-103.399 101.404-3.596-30.483-5.153-58.96-3.788-80.427 2.433-38.272 23.9-87.629 102.236-100.241 79.724-12.824 93.488 59.078 75.68 120.161z" fill="#fef056"/><path d="m157.078 402.668c-3.937 0-7.8-.373-11.555-1.099 29.096-5.559 50.787-31.667 49.709-62.406l-.107-3.212c-.053-1.579.469-8.141 1.387-18.01 6.946 1.792 15.332-.715 21.072-8.77.139 8.536.384 17.423.704 26.781l.107 3.212c1.217 34.707-26.588 63.504-61.317 63.504z" fill="#f4d902"/><path d="m241.858 129.143c-4.214 14.468-7.778 27.858-10.755 40.576-3.542-11.075-8.365-21.392-14.18-31.006.726-4.748 1.334-8.066 1.771-9.571 15.396-52.804 7.191-113.695-46.818-120.94 74.677-8.556 87.352 61.341 69.982 120.941z" fill="#f4d902"/><path d="m237.601 224.273c-2.07 33.012-11.608 73.119-20.016 84.898-8.397 11.79-22.449 11.683-29.384 3.67-13.87-16.047 31.891-52.142 12.91-137.435-4.599-20.635-33.182-52.068-33.182-52.068s-55.204 38.389-68.509 81.74c-21.104 68.733 3.478 79.542 5.826 98.875.96 7.981-5.687 16.965-14.425 17.882-5.463.565-11.747-2.027-17.498-9.997-8.216-11.406-17.455-27.399-17.786-59.494-.245-23.633 4.503-44.481 12.195-62.694 29.703-70.398 103.398-101.403 103.398-101.403 26.535 20.891 49.144 47.682 59.974 81.473 5.27 16.473 7.745 34.612 6.497 54.553z" fill="#5de1c4"/><path d="m171.125 88.244 3.471-22.692"/><path d="m328.279 497.165c29.256 2.962 56.494-15.247 64.953-43.41l9.109-30.339c-8.602-1.793-14.31-11.401-12.551-19.244 4.283-18.999 29.829-27.276 15.754-97.785-8.871-44.47-59.929-88.224-59.929-88.224s-31.604 28.394-38.258 48.461c-27.475 82.947 14.419 123.468-.997 138.036-7.707 7.274-21.698 5.965-28.865-6.611-.998 8.478-2.137 17.296-3.398 26.573l-.43 3.184c-4.704 34.41 20.06 65.862 54.612 69.359z" fill="#fef056"/><path d="m271.478 216.492c2.736 14.819 4.933 28.5 6.614 41.453 14.178-32.528 39.37-56.906 67.874-75.018 0 0 70.197 38.27 92.66 111.302 6.647-29.966 11.065-58.141 11.869-79.637 1.434-38.322-14.953-89.591-91.62-110.028-78.026-20.788-98.962 49.362-87.397 111.928z" fill="#fef056"/><path d="m402.339 423.42-9.101 30.334c-8.461 28.168-35.7 46.37-64.956 43.415-1.152-.117-2.294-.267-3.425-.448 22.833-3.606 42.262-19.963 49.176-42.966l15.759-49.581c-1.761 7.841 3.947 17.454 12.547 19.246z" fill="#f4d902"/><path d="m450.491 214.596c-.8 21.489-5.217 49.667-11.865 79.638-3.404-11.054-7.895-21.318-13.081-30.76 3.19-18.213 5.228-34.954 5.751-48.877 1.43-38.325-14.959-89.592-91.62-110.035-5.708-1.515-11.118-2.55-16.218-3.137 10.19-1.323 21.947-.448 35.412 3.137 76.673 20.441 93.061 71.709 91.621 110.034z" fill="#f4d902"/><path d="m266.133 311.567c-1.265 33.052 4.185 73.916 11.364 86.482 7.167 12.576 21.158 13.885 28.865 6.611 15.416-14.569-26.478-55.089.997-138.036 6.653-20.067 38.258-48.461 38.258-48.461s51.057 43.754 59.929 88.224c14.075 70.509-11.472 78.787-15.754 97.785-1.759 7.844 3.949 17.451 12.551 19.244 5.378 1.113 11.892-.834 18.416-8.184 9.323-10.52 20.126-25.502 23.688-57.4 2.624-23.488 0-44.709-5.819-63.604-22.463-73.032-92.66-111.302-92.66-111.302-28.504 18.112-53.697 42.49-67.874 75.018-6.905 15.861-11.195 33.658-11.961 53.623z" fill="#5de1c4"/><path d="m345.971 182.925-1.168-22.926"/></g><g><path d="m236.835 21.585c-11.123-12.597-32.585-26.297-71.663-20.006-37.133 5.978-65.452 20.487-84.17 43.122-18.164 21.967-23.272 46.954-24.359 64.046-1.308 20.559-.057 48.143 3.604 79.851-8.204 20.115-12.257 41.574-12.026 63.824.342 33.207 9.898 50.886 19.203 63.804 5.892 8.167 12.181 11.455 17.296 12.618l4.928 25.517c2.08 10.759 6.754 20.981 13.52 29.562 2.564 3.252 7.281 3.81 10.533 1.246 3.253-2.564 3.811-7.28 1.246-10.533-5.289-6.708-8.944-14.703-10.571-23.119l-4.75-24.594c3.089-1.588 5.836-3.873 8-6.586 3.541-4.44 5.449-9.817 5.394-15.054-.16-15.104-12.028-28.578-13.935-43.821-2.689-21.498 3.058-47.302 12.712-66.524 13.912-27.731 43.152-52.133 55.22-61.436 9.173 10.908 24.089 30.657 26.959 43.535 3.502 15.734 4.707 29.713 4.461 42.15-.07 3.602-.267 7.196-.59 10.783-1.977 21.91-8.279 38.489-13.114 51.207-5.739 15.098-10.273 27.023-2.017 36.574 4.83 5.58 11.945 8.579 19.546 8.215 2.846-.135 5.694-.763 8.342-1.811.105 3.812.482 15.272.482 15.272.517 14.734-4.838 28.689-15.079 39.296-10.241 10.605-24 16.446-38.744 16.446-5.686 0-11.294-.887-16.668-2.636-3.937-1.283-8.171.872-9.453 4.811s.872 8.171 4.811 9.453c6.875 2.237 14.045 3.372 21.31 3.372 18.85 0 36.441-7.468 49.534-21.027s19.939-31.402 19.28-50.226c0 0-.634-20.301-.768-27.61 9.771-16.313 18.101-56.871 19.963-86.563 0-.001 0-.001 0-.001 1.201-19.193-.896-37.772-6.215-55.268 2.806-11.816 6.141-24.341 10.187-38.233v.001c10.129-34.745 12.189-81.798-12.409-109.657zm-6.534 202.219c-2.125 33.897-11.763 71.383-18.64 81.018-3.303 5.728-16.721 10.259-18.415.004.091-4.072 2.653-10.812 5.507-18.32 6.309-16.598 14.938-39.295 14.768-71.074-.066-12.435-1.479-26.261-4.906-41.657-4.974-22.32-33.732-54.138-34.954-55.481-2.533-2.786-6.739-3.263-9.831-1.111-2.341 1.628-57.492 40.389-71.397 85.695-16.401 53.414-6.352 74.323.985 89.591 2.288 4.761 4.095 8.521 4.563 12.381-.021 9.574-11.712 13.509-18.392 2.605-8.327-11.56-16.074-26.246-16.372-55.188-.217-20.869 3.688-40.954 11.606-59.7 24.245-57.46 80.063-88.032 95.426-95.553 3.36 2.756 6.583 5.561 9.669 8.414 33.403 30.888 53.26 72.396 50.383 118.376zm4.542-96.759c-1.899 6.519-3.645 12.744-5.257 18.746-11.888-23.717-29.747-43.98-50.208-60.686l2.817-18.417c.626-4.095-2.185-7.922-6.28-8.548-4.099-.623-7.921 2.187-8.547 6.28l-2.858 18.68c-36.83 17.473-70.3 45.826-91.666 80.652-1.73-21.083-2.159-39.477-1.231-54.052 1.868-29.381 16.816-80.572 95.942-93.312 5.863-.942 11.393-1.413 16.593-1.413 17.827 0 31.728 5.535 41.443 16.538 17.205 19.486 20.75 56.091 9.252 95.532z"/><path d="m448.611 229.49c-4.117-.474-7.84 2.462-8.322 6.576-1.152 9.82-2.791 20.488-4.899 31.898-17.75-36.8-48.199-68.39-83.077-89.473l-.961-18.874c-.21-4.137-3.73-7.329-7.872-7.108-4.137.211-7.32 3.735-7.109 7.872l.948 18.607c-22.038 14.563-41.849 32.919-56.064 55.321-1-6.135-2.111-12.506-3.343-19.18-7.467-40.398-.253-76.461 18.826-94.114 13.917-12.876 33.856-15.974 59.264-9.203 66.383 17.695 83.293 58.49 85.79 89.596.332 4.129 3.938 7.21 8.076 6.876 4.129-.331 7.207-3.947 6.876-8.075-1.808-22.52-9.54-42.359-22.98-58.97-16.583-20.493-41.446-35.271-73.899-43.921-38.247-10.191-60.979 1.274-73.313 12.688-27.278 25.238-29.968 72.261-23.39 107.85 2.626 14.221 4.683 27.017 6.285 39.062-7.054 16.871-11.012 35.145-11.75 54.363-1.139 29.732 3.065 70.93 11.143 88.133-.866 7.234-3.543 27.377-3.543 27.377-5.563 40.674 27.171 78.204 68.227 78.187 30.066-.001 57.149-19.763 65.951-49.065l7.473-24.891c5.204-.642 11.792-3.278 18.481-10.814 10.556-11.912 21.844-28.539 25.528-61.541 2.471-22.112.599-43.87-5.535-64.707 4.533-20.67 7.82-39.556 9.765-56.148.482-4.113-2.462-7.839-6.576-8.322zm-63.504 222.109c-7.412 24.675-31.396 40.707-57.015 38.105-14.668-1.485-27.77-8.682-36.89-20.265-9.12-11.584-13.043-26.007-11.043-40.628 0 0 1.528-11.354 2.017-15.134 2.528 1.31 5.3 2.222 8.118 2.643 7.515 1.12 14.906-1.14 20.276-6.208.287-.271.561-.545.824-.823 6.828-7.228 5.655-16.86 2.705-28.695-.567-2.276-1.201-4.633-1.855-7.071-5.944-22.131-14.926-55.575 1.292-104.538 4.153-12.525 20.986-30.676 31.21-40.604 12.688 11.989 45.814 45.953 52.502 79.475 9.789 49.038-.125 65.248-8.09 78.273-3.201 5.233-6.224 10.177-7.627 16.403-1.301 5.804-.032 12.263 3.484 17.719 1.879 2.917 4.383 5.467 7.296 7.359zm50.942-94.597c-3.211 28.762-12.398 42.594-21.844 53.253-3.942 4.442-7.947 6.507-11.276 5.821-3.068-.638-7.453-5.042-6.765-10.253.857-3.803 3.034-7.361 5.79-11.868 8.837-14.45 20.941-34.241 10.003-89.033-9.272-46.479-60.238-90.598-62.403-92.453-2.832-2.425-7.139-2.359-9.893.116-1.351 1.214-33.167 29.974-40.365 51.682-17.632 53.231-7.948 89.288-1.54 113.147 2.778 10.344 5.177 19.276 2.515 21.793-1.518 1.418-5.413 3.093-9.16 1.974-3.206-.919-6.025-3.306-8.045-6.852-5.868-10.271-11.681-48.535-10.381-82.474.737-19.216 5.213-38.547 13.627-55.879 11.955-24.627 31.732-46.196 58.885-64.219 14.536 9.034 66.985 45.072 85.319 104.679 5.989 19.449 7.85 39.826 5.533 60.566z"/><g><path d="m159.357 375.473c-20.508 0-38.053-15.304-40.812-35.598-.558-4.104 2.317-7.885 6.421-8.442s7.884 2.316 8.442 6.421c1.753 12.896 12.909 22.619 25.949 22.619 7.503 0 14.658-3.228 19.632-8.855 2.743-3.103 7.482-3.396 10.586-.653s3.396 7.483.653 10.587c-7.819 8.847-19.071 13.921-30.871 13.921z"/></g><g><path d="m336.602 470.275c-1.394 0-2.794-.07-4.197-.212-11.741-1.188-22.425-7.371-29.313-16.961-2.416-3.364-1.647-8.051 1.717-10.467 3.364-2.417 8.051-1.647 10.467 1.717 4.38 6.1 11.175 10.031 18.64 10.787 6.699.684 13.316-1.212 18.639-5.324 3.279-2.531 7.989-1.925 10.52 1.353 2.532 3.278 1.926 7.988-1.352 10.521-7.26 5.604-16.05 8.586-25.121 8.586z"/></g></g></g></svg>