<svg id="Capa_1" enable-background="new 0 0 503.025 503.025" height="512" viewBox="0 0 503.025 503.025" width="512" xmlns="http://www.w3.org/2000/svg"><g><g><path d="m336.163 100.111v39.357c0 8.532-3.453 16.242-9.041 21.823-5.581 5.588-13.297 9.041-21.816 9.041-3.741 0-7.442-.692-10.915-2.004-2.8-1.051-5.444-2.52-7.84-4.348-4.335-3.297-7.364-7.024-13.48-6.365-5.549.594-8.499 5.059-12.88 7.866-9.146 5.869-21.235 6.41-30.864 1.364-5.327-2.761-8.95-8.525-15.217-9.217-7.011-.77-10.386 4.485-15.647 7.853-9.146 5.869-21.235 6.41-30.864 1.364-9.877-5.144-16.62-15.471-16.62-27.378v-39.357c0-46.29 33.971-84.641 78.348-91.496 3.595-.531 8.454-1.063 14.251-1.09 51.132.001 92.585 41.454 92.585 92.587z" fill="#fedba6"/><path d="m314.294 100.111v39.357c0 8.532-3.447 16.242-9.041 21.823-3.055 3.062-6.75 5.477-10.863 7.037-2.8-1.051-5.444-2.52-7.84-4.348-4.335-3.297-7.364-7.024-13.48-6.365-5.549.594-8.499 5.059-12.88 7.866-9.146 5.869-21.235 6.41-30.864 1.364-5.327-2.761-8.95-8.525-15.217-9.217-7.011-.77-10.386 4.485-15.647 7.853-9.146 5.869-21.235 6.41-30.864 1.364-9.877-5.144-16.62-15.471-16.62-27.378v-39.357c0-46.29 33.971-84.641 78.348-91.496 1.11-.17 2.22-.32 3.342-.45 45.97 5.426 81.626 44.521 81.626 91.947z" fill="#ffefd2"/><path d="m378.398 353.751-16.822 108.21c-2.993 19.274-20.647 33.565-41.463 33.565h-153.072c-20.816 0-38.47-14.29-41.463-33.565l-16.822-108.21z" fill="#d8aa5e"/><path d="m334.729 353.751-16.822 108.21c-2.993 19.274-20.647 33.565-41.463 33.565h-109.403c-20.816 0-38.47-14.29-41.463-33.565l-16.822-108.21z" fill="#e9b665"/><path d="m302.077 214.803-11.715-11.715c-4.674-4.674-4.674-12.252 0-16.926l112.27-112.27c4.674-4.674 12.252-4.674 16.926 0l11.715 11.715c4.674 4.674 4.674 12.252 0 16.926l-112.27 112.27c-4.674 4.674-12.252 4.674-16.926 0z" fill="#7c4b37"/><path d="m418.714 278.182-6.537 63.99c-1.98 19.331-19.23 34.082-39.854 34.082h-257.502c-20.614 0-37.863-14.751-39.843-34.082l-6.549-63.99c-2.262-22.144 16.225-41.306 39.854-41.306h270.587c23.629 0 42.116 19.163 39.844 41.306z" fill="#d8aa5e"/><path d="m375.045 278.182-6.537 63.99c-1.98 19.331-19.23 34.082-39.854 34.082h-213.833c-20.614 0-37.863-14.751-39.843-34.082l-6.549-63.99c-2.262-22.144 16.225-41.306 39.854-41.306h226.918c23.63 0 42.117 19.163 39.844 41.306z" fill="#e9b665"/><path d="m385.41 223.865v60.29c0 13.07-5.29 24.88-13.85 33.43-8.55 8.56-20.37 13.85-33.42 13.85-5.73 0-11.4-1.06-16.72-3.07-4.29-1.61-8.34-3.86-12.01-6.66-6.64-5.05-11.28-10.76-20.65-9.75-8.5.91-13.02 7.75-19.73 12.05-14.01 8.99-32.53 9.82-47.28 2.09-8.16-4.23-13.71-13.06-23.31-14.12-10.74-1.18-15.91 6.87-23.97 12.03-14.01 8.99-32.53 9.82-47.28 2.09-15.13-7.88-25.46-23.7-25.46-41.94v-60.29c0-70.91 52.04-129.66 120.02-140.16 1.7-.26 3.4-.49 5.12-.69 5.48-.64 11.05-.98 16.71-.98 78.33 0 141.83 63.5 141.83 141.83z" fill="#ffb09e"/><path d="m351.91 223.865v60.29c0 13.07-5.28 24.88-13.85 33.43-4.68 4.69-10.34 8.39-16.64 10.78-4.29-1.61-8.34-3.86-12.01-6.66-6.64-5.05-11.28-10.76-20.65-9.75-8.5.91-13.02 7.75-19.73 12.05-14.01 8.99-32.53 9.82-47.28 2.09-8.16-4.23-13.71-13.06-23.31-14.12-10.74-1.18-15.91 6.87-23.97 12.03-14.01 8.99-32.53 9.82-47.28 2.09-15.13-7.88-25.46-23.7-25.46-41.94v-60.29c0-70.91 52.04-129.66 120.02-140.16 1.7-.26 3.4-.49 5.12-.69 70.42 8.31 125.04 68.2 125.04 140.85z" fill="#ffcebf"/><path d="m184.11 128.205c0 25.002-20.254 45.255-45.255 45.255-5.277 0-10.341-.9-15.044-2.565-17.598-6.189-30.211-22.965-30.211-42.69 0-19.713 12.613-36.49 30.211-42.69 4.703-1.665 9.767-2.565 15.044-2.565 25.002 0 45.255 20.265 45.255 45.255z" fill="#fb2b3a"/><path d="m154.011 128.205c0 19.725-12.613 36.49-30.2 42.69-17.598-6.189-30.211-22.965-30.211-42.69 0-19.713 12.613-36.49 30.211-42.69 17.587 6.2 30.2 22.977 30.2 42.69z" fill="#fd4755"/></g><g><path d="m442.28 94.07c0-5.199-2.027-10.089-5.707-13.769l-11.71-11.71c-7.592-7.592-19.944-7.592-27.536 0l-48.932 48.932c-1.547-1.527-3.126-3.019-4.735-4.475v-12.933c0-55.189-44.896-100.09-100.08-100.09-43.871-1.074-87.296 32.44-97.172 75.963-6.386-.956-14.981-.673-23.09 1.791-13.916-26.866-40.504-30.034-53.504-27.629-4.073.752-6.765 4.664-6.013 8.737s4.66 6.764 8.738 6.013c11.972-2.746 31.77 6.082 37.221 19.302-14.518 9.617-23.66 26.05-23.66 44.003 0 15.701 6.912 30.358 18.738 40.315-7.034 17.582-10.608 36.168-10.608 55.345v7.519c-21.197 6.214-35.465 25.994-33.261 47.565l.476 4.651c.422 4.121 4.109 7.115 8.225 6.697 4.121-.422 7.119-4.104 6.697-8.225l-.476-4.65c-1.312-12.839 6.359-24.757 18.339-30.1v36.832c0 20.497 11.302 39.117 29.479 48.584 17.068 8.943 38.582 7.992 54.805-2.417 20.991-16.681 17.384-12.799 39.755 2.417 17.066 8.943 38.581 7.993 54.809-2.419 23.795-22.367 22.968-3.513 45.692 5.061 6.243 2.358 12.76 3.555 19.37 3.555 14.636 0 28.389-5.7 38.72-16.044 10.35-10.338 16.05-24.095 16.05-38.736v-36.838c11.985 5.336 19.658 17.257 18.339 30.106l-6.53 63.986c-1.445 14.857-15.594 27.548-32.399 27.346h-257.5c-15.786.269-31.09-11.935-32.379-27.344l-2.439-23.831c-1.184-9.183-15.172-8.512-14.922 1.527l2.439 23.833c2.075 20.22 17.722 36.229 38.179 39.977l12.471 80.198c3.531 22.752 24.541 39.909 48.872 39.909h153.07c9.371 0 18.245-2.554 25.824-6.986 11.058-6.263 21.155-19.182 23.057-32.921l12.471-80.201c20.453-3.752 36.104-19.763 38.179-39.98l6.53-63.986c2.216-21.581-12.052-41.364-33.261-47.57v-7.516c0-20.877-4.211-40.987-12.501-59.862l56.164-56.165c3.679-3.678 5.706-8.568 5.706-13.767zm-179.75 393.955-14.985-104.27h28.836l14.985 104.27zm-43.99 0-14.985-104.27h28.835l14.985 104.27zm-43.989 0-14.985-104.27h28.835l14.985 104.27zm-41.56-27.212-11.982-77.058h23.402l14.866 103.442c-13.518-2.922-24.255-13.294-26.286-26.384zm173.529 27.212-14.985-104.27h28.836l14.536 101.146c-4.513 2.003-9.541 3.123-14.796 3.123h-13.591zm47.649-27.213c-.764 4.909-2.755 9.433-5.655 13.329l-12.989-90.385h30.627zm-253.069-332.607c0-15.992 10.128-30.305 25.221-35.622 3.992-1.419 8.208-2.138 12.529-2.138 3.82 0 7.571.563 11.16 1.677 7.294 2.25 13.661 6.61 18.424 12.626 5.349 6.715 8.176 14.826 8.176 23.457 0 20.821-16.939 37.761-37.76 37.761-6.318-.151-13.398-1.497-20.712-6.199-10.669-7.009-17.038-18.807-17.038-31.562zm276.81 155.95c.115 9.206-4.045 20.739-11.657 28.13-7.503 7.513-17.488 11.65-28.113 11.65-7.725-.066-16.46-2.414-24.19-8.2-14.027-14.31-31.571-14.524-43.795-2.085-1.773 1.51-3.447 2.936-5.175 4.043-6.622 4.249-14.455 6.326-22.249 6.174-6.062-.119-12.101-1.586-17.528-4.43-24.089-18.917-31.13-21.151-57.033-.408-11.458 6.276-25.897 6.502-37.515.414-13.215-6.882-21.425-20.404-21.425-35.288v-46.78-13.51c0-16.349 2.874-32.217 8.554-47.283 5.635 2.444 12.87 4.294 21.066 4.384 29.092 0 52.76-23.668 52.76-52.761-1.047-1.367 2.929-5.013-6.479-25.325 1.667-.808 3.349-1.579 5.036-2.311 3.8-1.647 5.545-6.064 3.897-9.864-1.646-3.801-6.063-5.548-9.865-3.897-2.774 1.203-5.527 2.512-8.242 3.893-4.398-4.368-9.508-7.9-15.132-10.469 8.905-37.791 42.954-65.151 82.754-65.206 46.913 0 85.08 38.171 85.08 85.09v1.019c-28.382-19.882-65.836-30.048-102.674-25.565-1.777.207-3.583.45-5.369.722-4.094.626-6.906 4.452-6.281 8.547.626 4.095 4.454 6.904 8.547 6.281 1.615-.247 3.248-.467 4.857-.654 81.523-10.165 151.139 56.747 150.169 133.4v13.51 46.779zm48.057-186.924-52.65 52.651c-3.667-6.332-8.281-13.481-14.763-21.304l49.38-49.38c1.743-1.744 4.58-1.744 6.323 0l11.71 11.71c.766 1.068 2.422 3.178 0 6.323z"/><path d="m267.944 143.702-26.544-12.317c-3.756-1.741-8.217-.11-9.96 3.647-1.744 3.757-.111 8.216 3.646 9.96l26.544 12.316c7.682 3.948 15.474-8.692 6.314-13.606z"/><path d="m319.952 195.931c-2.719-3.127-7.458-3.453-10.581-.735-3.125 2.72-3.454 7.457-.734 10.581l19.209 22.075c5.009 6.664 17.546-1.206 11.315-9.846z"/><path d="m266.022 236.946c-3.127-2.717-7.864-2.382-10.581.744l-19.188 22.093c-5.201 6.148 2.781 17.443 11.325 9.836l19.188-22.093c2.717-3.127 2.384-7.864-.744-10.58z"/><path d="m185.301 210.968-27.578 9.785c-7.929 3.089-5.74 16.768 5.016 14.137l27.578-9.785c3.904-1.385 5.945-5.673 4.561-9.576-1.386-3.904-5.675-5.947-9.577-4.561z"/></g></g></svg>