<svg id="Capa_1" enable-background="new 0 0 505 505" height="512" viewBox="0 0 505 505" width="512" xmlns="http://www.w3.org/2000/svg"><g><g><path d="m468.89 36.817v91.218c0 16.188-13.118 29.317-29.307 29.317h-37.613c-16.188 0-29.317-13.129-29.317-29.317v-91.218c0-16.188 13.129-29.317 29.317-29.317h37.613c16.189 0 29.307 13.129 29.307 29.317z" fill="#0055a3"/><path d="m434.793 36.817v91.218c0 16.188-13.129 29.317-29.317 29.317h-3.505c-16.188 0-29.317-13.129-29.317-29.317v-91.218c0-16.188 13.129-29.317 29.317-29.317h3.505c16.188 0 29.317 13.129 29.317 29.317z" fill="#0067c5"/><path d="m308.679 373.242v76.036h-121.448v-76.036c0-5.496 4.459-9.956 9.956-9.956 1.736.411 4.523-.374 8.41 4.636 4.853 7.975 21.985 13.886 42.363 13.886 11.76 0 22.442-1.97 30.302-5.175 5.755-2.344 9.997-5.341 12.061-8.711 4.33-6.979 17.518-6.11 18.356 5.32z" fill="#c8effe"/><path d="m278.262 376.633v72.645h-91.031v-76.036c0-5.496 4.459-9.956 9.956-9.956 1.736.411 4.523-.374 8.41 4.636 4.853 7.975 21.985 13.886 42.363 13.886 11.76 0 22.442-1.97 30.302-5.175z" fill="#eaf6ff"/><path d="m448.233 230.72v144.46c0 59.32-48.09 107.41-107.41 107.41h-32.14v-54.91h21.65c34.78 0 62.99-28.21 62.99-62.99v-133.97z" fill="#0055a3"/><path d="m420.773 230.72v144.46c0 59.32-48.09 107.41-107.41 107.41h-4.68v-54.91h21.65c34.78 0 62.99-28.21 62.99-62.99v-133.97z" fill="#0067c5"/><path d="m332.551 439.312v37.707c0 11.314-9.168 20.482-20.481 20.482h-128.22c-11.314 0-20.481-9.168-20.481-20.482v-37.707c0-11.314 9.167-20.481 20.481-20.481h128.22c11.314-.001 20.481 9.167 20.481 20.481z" fill="#01998d"/><path d="m295.56 439.312v37.707c0 11.314-9.168 20.482-20.481 20.482h-91.229c-11.314 0-20.481-9.168-20.481-20.482v-37.707c0-11.314 9.167-20.481 20.481-20.481h91.228c11.315-.001 20.482 9.167 20.482 20.481z" fill="#0ab69f"/><path d="m436.099 310.595h-111.782c-6.741 0-13.222-2.686-18.003-7.467l-8.825-8.815-31.619-31.619c-9.914-9.831-25.905-9.831-35.819 0l-31.619 31.619-8.835 8.815c-4.77 4.781-11.252 7.467-17.993 7.467h-111.783c-15.639 0-27.585-13.969-25.148-29.421l25.926-164.318c1.96-12.372 12.621-21.487 25.159-21.487h324.406c12.538 0 23.198 9.116 25.159 21.487l25.926 164.318c2.425 15.452-9.511 29.421-25.15 29.421z" fill="#0ab69f"/><path d="m412.445 310.595h-88.127c-6.741 0-13.222-2.686-18.003-7.467l-8.825-8.815-31.619-31.619c-9.914-9.831-25.905-9.831-35.819 0l-31.619 31.619-8.835 8.815c-4.77 4.781-11.252 7.467-17.993 7.467h-111.784c-15.639 0-27.585-13.969-25.148-29.421l25.926-164.318c1.96-12.372 12.621-21.487 25.159-21.487h300.751c12.538 0 23.199 9.116 25.159 21.487l25.926 164.318c2.425 15.452-9.511 29.421-25.149 29.421z" fill="#5de1c4"/><path d="m380.929 266.521h-50.338c-8.421 0-16.489-2.997-22.4-8.317l-37.831-34.077c-12.31-11.096-32.49-11.096-44.8 0l-37.831 34.077c-5.911 5.32-13.979 8.317-22.4 8.317h-50.348c-19.507 0-34.305-15.587-30.966-32.636l15.628-79.79c2.613-13.347 15.69-23.095 30.966-23.095h234.692c15.286 0 28.363 9.748 30.976 23.095l15.628 79.79c3.339 17.049-11.459 32.636-30.976 32.636z" fill="#eaf6ff"/><path d="m340.173 266.521h-9.582c-8.421 0-16.489-2.997-22.4-8.317l-37.831-34.077c-12.31-11.096-32.49-11.096-44.8 0l-37.831 34.077c-5.911 5.32-13.979 8.317-22.4 8.317h-50.348c-19.507 0-34.305-15.587-30.966-32.636l15.628-79.79c2.613-13.347 15.69-23.095 30.966-23.095h193.936c15.286 0 28.352 9.748 30.966 23.095l15.628 79.79c3.339 17.049-11.449 32.636-30.966 32.636z" fill="#c8effe"/><path d="m293.31 321.152-33.123 17.101c-3.837 1.981-8.037 2.966-12.227 2.966s-8.389-.985-12.227-2.966l-33.123-17.101c-10.121-5.227-12.237-18.791-4.179-26.838l31.619-31.619c4.957-4.916 11.438-7.373 17.91-7.373s12.953 2.458 17.91 7.373l31.619 31.619c8.058 8.046 5.942 21.611-4.179 26.838z" fill="#01998d"/><path d="m247.96 255.32v85.898c-4.19 0-8.389-.985-12.227-2.966l-33.123-17.101c-10.121-5.227-12.237-18.791-4.179-26.838l31.619-31.619c4.957-4.916 11.439-7.374 17.91-7.374z" fill="#0ab69f"/></g><g><path d="m477.266 128.029v-91.21c0-20.302-16.512-36.819-36.809-36.819h-37.61c-20.302 0-36.819 16.517-36.819 36.819v51.051h-205.03c-4.143 0-7.5 3.357-7.5 7.5s3.357 7.5 7.5 7.5h250.04c8.896 0 16.361 6.377 17.752 15.157l25.919 164.305c1.176 7.497-2.516 14.972-9.182 18.598-2.64 1.434-5.516 2.16-8.55 2.16h-111.79c-4.724 0-9.352-1.918-12.696-5.264l-40.464-40.464c-12.44-12.329-33.027-12.573-45.773-.57-.21.198-.424.39-.63.594l-40.466 40.447c-3.333 3.341-7.955 5.257-12.681 5.257h-111.78c-5.264 0-10.243-2.294-13.661-6.293-3.413-3.995-4.9-9.265-4.081-14.458l25.93-164.307c1.391-8.785 8.853-15.162 17.742-15.162h40.369c4.143 0 7.5-3.357 7.5-7.5s-3.357-7.5-7.5-7.5h-40.369c-16.313 0-30.007 11.698-32.559 27.82l-25.93 164.311c-1.505 9.532 1.227 19.206 7.494 26.541 6.271 7.339 15.407 11.548 25.064 11.548h111.779c5.496 0 10.914-1.416 15.704-4.007 1.998 5.912 6.169 10.793 11.864 13.732l33.122 17.101c4.817 2.487 10.235 3.803 15.668 3.803s10.851-1.315 15.667-3.803l33.123-17.101h.001c5.693-2.94 9.863-7.82 11.862-13.731 4.794 2.591 10.21 4.006 15.699 4.006h61.511v46.6c0 29.898-23.771 54.335-53.405 55.437-4.306-4.569-10.025-7.558-16.235-8.481v-38.406c0-10.706-9.923-18.986-20.435-17.166-8.823 1.528-12.248 10.327-20.321 13.612-7.299 2.981-17.053 4.623-27.464 4.623-20.258 0-33.437-6.141-35.946-10.261-8.941-14.841-32.284-7.757-32.284 9.191v38.396c-13.481 1.999-23.859 13.646-23.859 27.674v37.71c0 15.429 12.552 27.98 27.979 27.98h128.221c10.477 0 19.944-5.919 24.715-14.91h4.035c29.038 0 56.758-10.859 78.054-30.578 3.039-2.813 3.222-7.56.407-10.599-2.813-3.038-7.559-3.223-10.599-.407-18.515 17.143-42.615 26.584-67.862 26.584h-.771v-35.78c0-1.555-.139-3.203-.401-4.743 34.481-4.572 61.172-34.166 61.172-69.877v-46.6h35.279c1.525 0 3.115-.113 4.63-.327v57.417c0 17.833-4.754 35.333-13.746 50.609-2.102 3.569-.911 8.166 2.658 10.268 3.567 2.102 8.166.912 10.268-2.658 10.35-17.58 15.82-37.712 15.82-58.219v-63.595c9.713-7.233 14.833-19.384 12.919-31.584l-18.415-116.74c15.17-4.607 26.156-18.781 26.156-35.231zm-181.586 179.602c-.462 2.976-2.261 5.475-4.937 6.856l-33.124 17.101c-5.398 2.789-12.171 2.789-17.571 0l-33.122-17.101c-2.677-1.382-4.477-3.881-4.938-6.856-.461-2.97.493-5.889 2.621-8.015l31.596-31.597c6.837-6.779 18.405-6.794 25.235-.023l31.623 31.624c2.124 2.122 3.077 5.042 2.617 8.011zm-100.074 65.609c-.09-.851 2.09-3.986 4.455-1.419 6.471 10.624 25.616 17.488 48.775 17.488 12.311 0 24.078-2.037 33.127-5.732 7.465-3.038 12.725-6.99 15.642-11.761.065.248 2.843-3.39 4.451 1.424v38.09h-106.45zm117.341 116.76h-128.221c-7.157 0-12.979-5.823-12.979-12.98v-37.71c0-7.157 5.822-12.979 12.979-12.979h128.221c6.03.262 12.723 4.681 12.979 12.979 0 0-.014 38.357-.038 38.679-.065.87-.214 1.73-.451 2.57-1.564 5.558-6.7 9.441-12.49 9.441zm149.319-361.971c0 9.026-5.574 16.899-13.53 20.183l-5.131-32.526c-2.552-16.118-16.249-27.816-32.568-27.816h-30.01v-51.051c0-12.031 9.788-21.819 21.819-21.819h37.61c12.025 0 21.81 9.788 21.81 21.819z"/><path d="m93.156 152.654-15.628 79.789c-1.91 9.753.623 19.48 7.134 27.391 7.421 9.016 18.79 14.187 31.192 14.187h50.348c10.342 0 20.079-3.638 27.42-10.245l37.833-34.078c9.419-8.491 25.336-8.492 34.759.001l37.833 34.079c7.339 6.605 17.076 10.243 27.418 10.243h50.338c12.408 0 23.78-5.171 31.203-14.188 6.51-7.909 9.044-17.637 7.134-27.39l-15.629-79.789c-3.308-16.893-19.431-29.154-38.336-29.154h-234.693c-18.9 0-35.018 12.262-38.326 29.154zm128.258 65.9-37.829 34.075c-4.513 4.062-10.849 6.392-17.383 6.392h-14.943l29.323-48.76c2.134-3.55.987-8.158-2.563-10.293-3.549-2.135-8.157-.988-10.293 2.563l-33.972 56.49h-17.901c-7.786 0-15.117-3.26-19.611-8.719-3.608-4.385-5.027-9.703-3.994-14.976l15.628-79.789c1.933-9.872 11.86-17.037 23.605-17.037h74.752l-22.995 38.237c-2.134 3.55-.987 8.158 2.563 10.293 1.21.728 2.542 1.073 3.858 1.073 2.545 0 5.027-1.296 6.435-3.636l27.644-45.968h77.858l-42.715 71.028c-3.288-.79-6.667-1.195-10.049-1.195-9.929.001-19.86 3.408-27.418 10.222zm168.376-63.017 15.629 79.789c1.032 5.272-.386 10.59-3.995 14.974-4.494 5.461-11.83 8.721-19.621 8.721h-50.338c-6.534 0-12.87-2.33-17.381-6.39l-37.829-34.076c-1.142-1.029-2.344-1.971-3.586-2.845l46.432-77.209h47.074c11.751-.001 21.682 7.164 23.615 17.036z"/></g></g></svg>