<svg id="Capa_1" enable-background="new 0 0 504.961 504.961" height="512" viewBox="0 0 504.961 504.961" width="512" xmlns="http://www.w3.org/2000/svg"><g><g><path d="m448.744 299.149c0 109.519-88.792 198.311-198.323 198.311-7.533 0-14.973-.418-22.297-1.244-99.034-11.079-176.026-95.081-176.026-197.067z" fill="#008b81"/><path d="m405.406 299.149c0 101.975-78.248 185.989-177.282 197.067-99.034-11.079-176.026-95.081-176.026-197.067z" fill="#01998d"/><path d="m448.746 299.153v.67c0 21.63-17.54 39.16-39.17 39.16h-53.88c-21.63 0-39.16-17.53-39.16-39.16 0 15.34-8.83 28.62-21.68 35.04-5.27 2.64-11.21 4.12-17.5 4.12h-53.87c-21.63 0-39.18-17.53-39.18-39.16 0 15.34-8.82 28.62-21.66 35.04-5.27 2.64-11.21 4.12-17.5 4.12h-53.88c-21.63 0-39.17-17.53-39.17-39.16v-.67l39.02-111.31c2.59-7.38 9.56-12.33 17.39-12.33h283.84c7.82 0 14.79 4.95 17.38 12.33z" fill="#fedba6"/><path d="m405.406 299.153v.67c0 21.63-17.53 39.16-39.16 39.16h-10.55c-21.63 0-39.16-17.53-39.16-39.16 0 15.34-8.83 28.62-21.68 35.04-5.27 2.64-11.21 4.12-17.5 4.12h-53.87c-21.63 0-39.18-17.53-39.18-39.16 0 15.34-8.82 28.62-21.66 35.04-5.27 2.64-11.21 4.12-17.5 4.12h-53.88c-21.63 0-39.17-17.53-39.17-39.16v-.67l39.02-111.31c2.59-7.38 9.56-12.33 17.39-12.33h240.5c7.82 0 14.8 4.95 17.38 12.33z" fill="#ffefd2"/><path d="m465.496 73.193-6.2 14.89c-2.57 6.16-9.63 9.08-15.79 6.51l-42.44-17.66c-10.5-4.37-22.56.61-26.93 11.12l-28.4 68.25-8 19.21h-43.64l8-19.21 39.81-95.7c10.18-24.45 38.23-36.01 62.67-25.84l54.4 22.63c6.16 2.56 9.08 9.641 6.52 15.8z" fill="#5de1c4"/><path d="m152.366 88.534-41.48 24.13c-5.48-9.43-17.57-12.62-27-7.14-24.85-42.71.38-84.53.91-85.41.01-.01.01-.01.01-.01s49.6-1.73 74.7 41.43c-9.43 5.48-12.62 17.579-7.14 27z" fill="#fef056"/><g fill="#fd4755"><path d="m84.796 20.113c-.53.88-25.76 42.7-.91 85.41-9.43 5.49-12.63 17.58-7.14 27l-25.61 14.9c-25.86-44.45-10.79-101.44 33.66-127.31z"/><path d="m212.126 53.774-25.61 14.9c-5.49-9.43-17.58-12.63-27.01-7.14-25.1-43.16-74.7-41.43-74.7-41.43 44.45-25.85 101.46-10.781 127.32 33.67z"/></g></g><path d="m472.439 61.083c-1.996-4.839-5.755-8.608-10.582-10.614l-54.4-22.63c-28.214-11.739-60.727 1.663-72.476 29.884l-45.886 110.291h-108.863l-38.046-64.882 13.951-8.116c1.719-1 2.971-2.642 3.479-4.565 1.174-4.441-2.677-8.088-2.409-12.589.24-4.039 2.575-7.813 6.067-9.843 5.761-3.35 13.404-1.334 16.759 4.43 2.234 2.752 5.253 5.105 10.253 2.709l25.61-14.9c3.581-2.083 4.794-6.674 2.711-10.254-27.896-47.953-89.61-64.275-137.572-36.384-.013.008-.024.018-.037.026-47.929 27.913-64.235 89.611-36.346 137.55 2.037 3.502 6.744 4.753 10.254 2.711l25.61-14.9c1.72-1.001 2.972-2.644 3.48-4.568 1.172-4.435-2.653-8.076-2.414-12.583.198-3.722 2.226-7.206 5.276-9.296 5.784-3.965 13.975-2.265 17.542 3.873 2.036 3.502 6.746 4.759 10.255 2.714l14.563-8.472 33.623 57.34h-54.337c-10.993 0-20.825 6.971-24.468 17.349l-8.133 23.199c-1.371 3.909.688 8.188 4.596 9.56 3.91 1.366 8.188-.688 9.559-4.597l8.132-23.196c1.536-4.375 5.68-7.314 10.313-7.314h283.84c4.627 0 8.768 2.939 10.303 7.312l38.581 110.058c-.001.131-.004.261-.005.392-.506 17.019-14.505 30.708-31.649 30.708h-53.88c-17.458 0-31.66-14.203-31.66-31.66 0-4.143-3.358-7.5-7.5-7.5s-7.5 3.357-7.5 7.5c0 12.072-6.718 22.928-17.54 28.335-4.404 2.206-9.161 3.325-14.14 3.325h-53.87c-17.469 0-31.68-14.203-31.68-31.66 0-4.143-3.358-7.5-7.5-7.5s-7.5 3.357-7.5 7.5c0 12.074-6.711 22.931-17.52 28.335-4.404 2.206-9.161 3.325-14.14 3.325h-53.88c-17.135 0-31.128-13.675-31.648-30.681-.001-.141-.004-.281-.005-.422l20.423-58.258c1.371-3.909-.688-8.188-4.597-9.56-3.908-1.369-8.188.688-9.559 4.597l-20.862 59.513c-.449 1.281-.425 2.587-.403 3.92.351 50.415 19.057 98.732 52.785 136.199 33.791 37.537 79.92 61.289 129.885 66.879 7.605.856 15.389 1.291 23.137 1.291 35.36 0 70.24-9.119 100.87-26.371 29.688-16.723 55.012-40.797 73.232-69.622 2.213-3.502 1.169-8.134-2.332-10.348-3.5-2.214-8.134-1.168-10.347 2.332-35.231 55.734-95.576 89.009-161.423 89.009-7.189 0-14.408-.402-21.463-1.197-83.628-9.356-149.432-71.768-165.552-151.529 7.781 5.807 17.425 9.249 27.859 9.249h53.88c7.333 0 14.351-1.653 20.854-4.912 7.65-3.824 13.906-9.505 18.343-16.35 8.334 12.79 22.767 21.262 39.143 21.262h53.87c7.333 0 14.351-1.653 20.852-4.911 7.657-3.825 13.919-9.507 18.36-16.354 8.331 12.791 22.759 21.265 39.128 21.265h53.88c10.44 0 20.09-3.446 27.873-9.259-2.424 11.969-5.997 23.681-10.719 35.052-1.589 3.826.224 8.215 4.05 9.804 2.734 1.05 7.525.576 9.803-4.05 10.215-24.597 15.469-50.661 15.645-77.486.02-1.318.041-2.606-.404-3.872l-39.021-111.313c-3.642-10.375-13.47-17.346-24.457-17.346h-43.363l32.078-77.08c1.345-3.234 3.868-5.751 7.104-7.088 3.234-1.336 6.792-1.332 10.02.013l42.434 17.657c9.958 4.152 21.44-.577 25.601-10.549l6.202-14.896c2.01-4.831 2.016-10.154.02-14.991zm-270.848-9.857-13.271 7.721c-5.129-4.921-11.962-7.589-18.926-7.589-2.296 0-4.608.29-6.876.886-11.701-17.218-29.235-29.357-49.082-35.318 32.956-7.137 68.078 5.813 88.155 34.3zm-134.12 64.406c-1.203 4.549-1.214 9.224-.083 13.659l-13.259 7.715c-14.881-31.616-8.707-68.657 13.939-93.78-4.659 20.234-2.922 41.566 6.255 60.313-3.265 3.329-5.628 7.464-6.852 12.093zm45.221-12.697c-5.125-4.917-11.955-7.583-18.918-7.583-1.435-1.439-5.33 3.687-7.49-1.719-9.059-21.105-6.992-45.497 2.944-65.911 11.015.706 41.372 5.152 60.354 32.199-3.077 3.262-5.309 7.26-6.487 11.719-1.202 4.548-1.213 9.223-.083 13.658zm345.88-32.625-6.198 14.886c-.974 2.334-3.657 3.445-5.987 2.473l-42.439-17.659c-6.929-2.885-14.567-2.895-21.508-.028-6.938 2.865-12.346 8.261-15.228 15.191l-34.476 82.841h-27.394l43.488-104.528c8.57-20.583 32.283-30.361 52.866-21.798l54.403 22.631c1.128.469 2.007 1.352 2.475 2.484.467 1.134.466 2.381-.002 3.507z"/></g></svg>