<svg id="Capa_1" enable-background="new 0 0 504.995 504.995" height="512" viewBox="0 0 504.995 504.995" width="512" xmlns="http://www.w3.org/2000/svg"><g><g><path d="m381.394 60.416h47.621v78.758h-47.621z" fill="#7b7179" transform="matrix(.707 .707 -.707 .707 189.247 -257.294)"/><path d="m389 432.046c-48.373 48.372-113.414 69.944-176.634 64.691-50.847-4.226-100.527-25.785-139.421-64.691-87.267-87.267-87.267-228.766 0-316.044 38.894-38.894 88.574-60.454 139.421-64.68 63.22-5.253 128.262 16.307 176.634 64.68 87.267 87.278 87.267 228.777 0 316.044z" fill="#aa9ea9"/><path d="m351.775 432.046c-38.906 38.906-88.562 60.466-139.409 64.691-50.847-4.226-100.527-25.785-139.421-64.691-87.267-87.267-87.267-228.766 0-316.044 38.894-38.894 88.574-60.454 139.421-64.68 50.847 4.226 100.504 25.786 139.409 64.68 87.267 87.278 87.267 228.777 0 316.044z" fill="#baafb9"/><path d="m369.471 376.202c-5.043 6.805-10.646 13.331-16.821 19.505-6.175 6.175-12.7 11.778-19.505 16.809-35.812 26.498-79.586 37.318-121.888 32.462-37.26-4.272-73.388-20.696-101.963-49.271-61.038-61.026-66.641-156.499-16.821-223.863 5.043-6.817 10.646-13.33 16.821-19.505 6.163-6.175 12.688-11.778 19.494-16.809 24.735-18.291 53.263-29.124 82.492-32.474 50.345-5.755 102.745 10.657 141.371 49.283 61.037 61.038 66.64 156.511 16.82 223.863z" fill="#fedba6"/><path d="m330.064 376.202c-5.043 6.805-10.646 13.331-16.821 19.505-6.175 6.175-12.7 11.778-19.505 16.809-24.735 18.292-53.252 29.112-82.481 32.462-37.26-4.272-73.388-20.696-101.963-49.271-61.038-61.026-66.641-156.499-16.821-223.863 5.043-6.817 10.646-13.33 16.821-19.505 6.163-6.175 12.688-11.778 19.494-16.809 24.735-18.291 53.263-29.124 82.492-32.474 37.26 4.272 73.376 20.696 101.963 49.283 61.038 61.038 66.641 156.511 16.821 223.863z" fill="#ffefd2"/><path d="m307.983 208.383-47.617 95.033-15.117-15.116-43.665-43.665 87.516-43.844 2.491-1.253 5.026-2.521c7.287-3.654 15.013 4.08 11.366 11.366z" fill="#fb2b3a"/><path d="m260.366 303.416-95.041 47.625c-7.279 3.647-15.012-4.087-11.366-11.366l3.766-7.517 43.859-87.523 43.665 43.665z" fill="#0067c5"/><path d="m289.101 200.791-43.852 87.509-43.664-43.665z" fill="#fd4755"/><path d="m245.249 288.3-87.523 43.858 43.859-87.523z" fill="#0473ce"/><g fill="#7b7179"><path d="m369.471 376.202c-5.043 6.805-10.646 13.331-16.821 19.505-6.175 6.175-12.7 11.778-19.505 16.809l-24.105-24.105c-10.027-10.027-10.027-26.287 0-36.314 5.019-5.019 11.58-7.517 18.163-7.517 6.572 0 13.144 2.498 18.163 7.517z"/><path d="m152.916 195.973c-5.008 5.008-11.591 7.517-18.151 7.517-6.584 0-13.144-2.51-18.163-7.517l-24.128-24.128c5.043-6.817 10.646-13.33 16.821-19.505 6.163-6.175 12.688-11.778 19.494-16.809l24.128 24.128c10.026 10.026 10.026 26.287-.001 36.314z"/></g></g><g><path d="m168.685 357.746 95.041-47.624c1.422-.71 2.633-1.926 3.345-3.346l47.617-95.034c.001 0 .001-.001.002-.002 3.134-6.261 1.96-13.504-2.992-18.451-4.947-4.945-12.186-6.112-18.442-2.976l-95.03 47.615c-1.422.713-2.632 1.925-3.346 3.346l-47.625 95.042c-6.727 13.425 7.952 28.183 21.43 21.43zm131.295-154.024c.829-.418 1.711.475 1.298 1.302l-42.96 85.738-44.078-44.078zm-139.315 139.313 42.967-85.746 44.079 44.08-85.746 42.967c-.824.411-1.714-.476-1.3-1.301z"/><path d="m137.969 367.031c-2.93-2.928-7.678-2.929-10.606.001l-17.934 17.935c-16.339-17.903-28.64-39.301-35.736-62.332-1.219-3.959-5.417-6.18-9.375-4.96s-6.179 5.418-4.959 9.376c8.544 27.734 23.978 53.309 44.633 73.96 85.773 85.771 235.517 60.725 288.539-48.482 52.239-107.595-17.562-239.484-136.008-256.312-64.903-9.221-131.087 18.465-170.078 71.167-25.817 34.91-38.048 78.089-34.437 121.583.343 4.129 3.969 7.195 8.095 6.854 4.128-.343 7.196-3.967 6.854-8.095-3.066-36.939 6.335-73.619 26.546-104.249 5.869 5.869 11.593 11.932 17.629 17.629 13.208 12.465 33.904 13.354 47.09.169 13.128-13.127 12.34-33.801-.071-46.993-5.715-6.074-11.819-11.819-17.717-17.717 21.444-14.141 46.05-23.119 71.701-26.059 47.738-5.451 94.607 9.8 129.783 41.962l-17.939 17.94c-6.825 6.825 3.771 17.442 10.607 10.605l17.945-17.946c50.406 55.285 56.965 139.223 15.915 201.497-5.859-5.859-11.576-11.909-17.599-17.598-13.205-12.472-33.918-13.362-47.107-.175-13.128 13.126-12.34 33.802.071 46.993 5.711 6.07 11.812 11.812 17.706 17.706-32.159 21.254-70.667 30.481-109.403 26.035-34.747-3.984-66.429-18.444-92.092-41.94l17.95-17.951c2.926-2.925 2.926-7.674-.003-10.603zm14.967-189.216c0 15.868-19.809 24.052-31.031 12.854l-19.464-19.463c7.597-9.463 16.239-18.117 25.706-25.71l19.466 19.465c3.432 3.433 5.323 7.999 5.323 12.854zm156.084 192.44c0-15.859 19.828-24.068 31.043-12.854l19.439 19.438c-7.602 9.468-16.244 18.115-25.716 25.712l-19.443-19.443c-3.432-3.432-5.323-7.997-5.323-12.853z"/><path d="m441.141 134.489c4.588 4.586 12.241 4.586 16.828-.001l28.911-28.912c11.682-11.681 18.114-27.211 18.114-43.729 0-33.702-28.141-61.842-61.843-61.842-16.518 0-32.048 6.433-43.728 18.113l-28.913 28.912c-4.639 4.64-4.639 12.188 0 16.828l13.175 13.175-13.025 13.026c-45.143-34.316-101.545-50.977-158.915-46.211-118.837 9.876-212.541 112.65-211.74 231.774.798 118.654 95.262 219.892 213.673 228.734 150.687 11.253 273.827-129.101 243.557-276.887-.832-4.059-4.795-6.672-8.853-5.843-4.058.831-6.674 4.795-5.843 8.853 14.628 71.42-7.369 144.789-58.844 196.263-105.152 105.156-289.306 71.334-349.89-64.533-54.731-122.742 18.615-269.582 150.08-298.97 101.687-22.731 209.899 34.576 248.072 131.562 1.518 3.854 5.87 5.752 9.726 4.231 3.854-1.517 5.749-5.871 4.231-9.726-7.788-19.788-18.166-38.182-30.962-54.977l13.015-13.015zm-57.831-79.045 26.721-26.72c8.847-8.847 20.609-13.72 33.121-13.72 25.529 0 46.843 21.308 46.843 46.842 0 12.513-4.873 24.275-13.721 33.123l-26.719 26.72-10.982-10.982 16.616-16.616c2.929-2.93 2.929-7.678 0-10.607l-33.674-33.674c-2.93-2.928-7.678-2.928-10.607 0l-16.616 16.616zm-.961 44.14 33.864-33.865 23.067 23.067-33.853 33.852c-3.557-4.085-18.984-19.498-23.078-23.054z"/></g></g></svg>