<svg id="Capa_1" enable-background="new 0 0 490 490" height="512" viewBox="0 0 490 490" width="512" xmlns="http://www.w3.org/2000/svg"><g><g><path d="m320.361 56.804-22.53 62.213h-105.662l-22.53-62.213z" fill="#c8effe"/><path d="m296.603 56.804-22.53 62.213h-81.904l-22.53-62.213z" fill="#eaf6ff"/><path d="m233.988 442.03v36.308h-161.094v-72.512c0-13.788 16.296-23.345 31.571-18.505l114.352 36.205c9.123 2.889 15.171 10.258 15.171 18.504z" fill="#008b81"/><path d="m233.988 469.225v9.113h-161.094v-45.318c0-13.788 16.296-23.345 31.571-18.505l114.352 36.205c9.123 2.89 15.171 10.259 15.171 18.505z" fill="#01998d"/><path d="m404.267 182.303v296.036h-77.879v-296.036c0-7.1 5.759-12.849 12.849-12.849h52.191c7.091-.001 12.839 5.748 12.839 12.849z" fill="#baafb9"/><path d="m374.957 182.303v296.036h-48.569v-296.036c0-7.1 5.759-12.849 12.849-12.849h22.881c7.09-.001 12.839 5.748 12.839 12.849z" fill="#d7d0d6"/><path d="m482.146 120.295v333.318h-77.879v-333.318c0-6.616 5.759-11.981 12.849-11.981h52.191c7.091 0 12.839 5.365 12.839 11.981z" fill="#8b8089"/><path d="m452.836 120.295v333.318h-48.569v-333.318c0-6.616 5.759-11.981 12.849-11.981h22.881c7.09 0 12.839 5.365 12.839 11.981z" fill="#9b8e99"/><g fill="#fd4755"><path d="m311.526 347.03h-133.053l25.802-228.013h81.45z"/><path d="m174.056 386.052h47.186l-57.63 92.286z"/><path d="m326.388 478.338-57.63-92.286h47.186z"/></g><path d="m285.632 119.017-40.632 44.069-40.632-44.069z" fill="#fb2b3a"/><path d="m311.526 347.03h-133.053l66.527-71.884z" fill="#fb2b3a"/><path d="m245 275.15-52.081-55.798 52.081-56.265 52.081 56.265z" fill="#fb2b3a"/><path d="m315.944 386.052h-141.888l4.417-39.022h133.053z" fill="#c8effe"/><path d="m174.056 386.052h118.13l-4.418-39.023h-109.295z" fill="#eaf6ff"/><path d="m221.263 11.662h47.475v45.142h-47.475z" fill="#fb2b3a"/><path d="m221.263 11.662h30.58v45.142h-30.58z" fill="#fd4755"/><path d="m482.26 412.926v46.054c0 10.691-8.667 19.358-19.358 19.358h-136.514v-4.861c0-33.439 27.112-60.551 60.561-60.551z" fill="#01998d"/><path d="m72.894 287.985v190.353h-45.793c-10.692 0-19.361-8.669-19.361-19.361v-170.981c0-7.101 5.749-12.849 12.849-12.849h39.466c7.09-.001 12.839 5.748 12.839 12.838z" fill="#aa9ea9"/><path d="m40.312 287.985v190.353h-13.21c-10.692 0-19.361-8.669-19.361-19.361v-170.981c0-7.101 5.749-12.849 12.849-12.849h6.894c7.09-.001 12.828 5.748 12.828 12.838z" fill="#baafb9"/></g><g><path d="m221.724 95.651h46.551c4.275 0 7.74-3.465 7.74-7.74s-3.465-7.74-7.74-7.74h-46.551c-4.275 0-7.74 3.465-7.74 7.74s3.465 7.74 7.74 7.74z"/><path d="m104.983 162.234h39.734c4.275 0 7.74-3.465 7.74-7.74s-3.465-7.74-7.74-7.74h-39.734c-4.275 0-7.74 3.465-7.74 7.74-.001 4.275 3.464 7.74 7.74 7.74z"/><path d="m78.665 228.286c4.275 0 7.74-3.465 7.74-7.74v-39.734c0-4.275-3.465-7.74-7.74-7.74s-7.74 3.465-7.74 7.74v39.734c0 4.275 3.465 7.74 7.74 7.74z"/><path d="m12.613 162.234h39.734c4.275 0 7.74-3.465 7.74-7.74s-3.465-7.74-7.74-7.74h-39.734c-4.275 0-7.74 3.465-7.74 7.74s3.465 7.74 7.74 7.74z"/><path d="m78.665 135.917c4.275 0 7.74-3.465 7.74-7.74v-39.735c0-4.275-3.465-7.74-7.74-7.74s-7.74 3.465-7.74 7.74v39.734c0 4.276 3.465 7.741 7.74 7.741z"/><path d="m108.853 132.047c1.98 0 3.962-.756 5.474-2.267l16.518-16.518c3.023-3.024 3.023-7.924 0-10.947-3.024-3.022-7.924-3.022-10.947 0l-16.518 16.518c-3.923 4.033-2.255 12.946 5.473 13.214z"/><path d="m103.379 179.208c-3.023 3.024-3.023 7.924 0 10.947l16.518 16.518c2.421 2.232 6.928 3.51 10.947 0 3.023-3.024 3.023-7.924 0-10.947l-16.518-16.518c-3.023-3.022-7.923-3.022-10.947 0z"/><path d="m43.004 179.208-16.518 16.518c-3.023 3.024-3.023 7.924 0 10.947 1.512 1.511 3.493 2.267 5.474 2.267s3.962-.756 5.474-2.267l16.518-16.518c3.023-3.024 3.023-7.924 0-10.947-3.024-3.022-7.925-3.022-10.948 0z"/><path d="m43.004 129.78c6.168 6.684 17.951-2.939 10.947-10.947l-16.518-16.518c-3.024-3.022-7.924-3.022-10.947 0-3.023 3.024-3.023 7.924 0 10.947z"/><circle cx="432.697" cy="137.815" r="7.74"/><circle cx="32.481" cy="303.033" r="7.74"/><circle cx="353.555" cy="256.324" r="7.74"/><circle cx="353.555" cy="289.853" r="7.74"/><circle cx="432.697" cy="204.874" r="7.74"/><circle cx="432.697" cy="171.344" r="7.74"/><path d="m489.887 121.153c0-11.348-9.232-20.58-20.58-20.58h-52.192c-11.353 0-20.589 9.232-20.589 20.58v41.225c-1.634-.419-3.336-.666-5.099-.666h-52.192c-11.353 0-20.589 9.236-20.589 20.59v158.805l-24.258-214.351c4.181.55 9.135-.734 10.718-5.105l22.53-62.213c.86-2.373.508-5.015-.94-7.08-1.449-2.066-3.814-3.296-6.337-3.296h-43.883v-37.404c0-4.275-3.465-7.74-7.74-7.74h-47.475c-4.275 0-7.74 3.465-7.74 7.74v37.406h-43.884c-2.524 0-4.888 1.23-6.337 3.296-1.448 2.065-1.8 4.708-.94 7.08l22.53 62.213c1.569 4.332 6.544 5.66 10.719 5.105l-30.733 271.574-58.073-18.389c-8.829-2.798-18.282-1.976-26.168 2.097v-94.054c0-11.348-9.232-20.579-20.58-20.579h-39.466c-11.353-.001-20.589 9.236-20.589 20.588v88.747c0 4.275 3.465 7.74 7.74 7.74s7.74-3.465 7.74-7.74v-88.747c0-2.816 2.292-5.108 5.108-5.108h39.466c2.812 0 5.099 2.287 5.099 5.098v182.613h-38.051c-6.408 0-11.621-5.213-11.621-11.621v-43.057c0-4.275-3.465-7.74-7.74-7.74s-7.741 3.465-7.741 7.74v43.057c0 14.944 12.158 27.102 27.102 27.102l233.378.004h.001c4.274 0 7.739-3.465 7.74-7.739s-3.464-7.74-7.739-7.741l-18.753-.003v-28.57c0-11.584-8.269-21.986-20.577-25.884l-7.997-2.531 12.379-19.823h38.932l47.964 76.808-14.858.002c-4.275.001-7.74 3.467-7.739 7.741.001 4.275 3.467 7.74 7.741 7.739l165.327-.004c14.943 0 27.099-12.156 27.099-27.099zm-155.758 61.15c0-2.817 2.291-5.109 5.108-5.109h52.192c2.812 0 5.099 2.292 5.099 5.109v27.745c0 4.275 3.465 7.74 7.74 7.74s7.74-3.465 7.74-7.74v-88.894c0-2.812 2.291-5.099 5.108-5.099h52.192c2.812 0 5.099 2.287 5.099 5.099v284.033h-62.398v-159.017c0-4.275-3.465-7.74-7.74-7.74s-7.74 3.465-7.74 7.74v159.017c-24.239 0-46.377 5.415-62.398 25.042v-247.926zm-19.275 262.953-32.139-51.467h26.315zm-132.134-66.948 2.664-23.539h119.23l2.664 23.539zm62.28-203.826 41.513 44.848-41.513 44.476-41.514-44.476zm0 112.061 48.816 52.746h-97.632zm10.569-11.373 35.708-38.257 9.907 87.544zm-.032-112.094 24.39-26.453 6.808 60.158zm-10.537-11.409-22.967-24.909h45.935zm-10.537 11.409-31.198 33.704 6.808-60.158zm-35.741 73.837 35.709 38.257-45.617 49.288zm-23.578 208.345.154-1.361 5.671-50.108h26.316zm53.859-425.86h31.994v29.666h-31.994zm-48.329 45.146h128.652l-16.924 46.732h-94.803zm-100.039 341.282c0-4.439 3.057-7.339 4.879-8.674 4.536-3.324 10.902-4.264 16.615-2.452l60.971 19.307-6.402 56.591h-76.063zm145.613 36.204v28.568h-48.676l27.118-43.424 11.79 3.731c5.842 1.851 9.768 6.321 9.768 11.125zm248.271 16.95c0 6.406-5.212 11.618-11.618 11.618h-128.691c1.49-27.602 25.109-49.931 52.739-49.931h87.57z"/></g></g></svg>