<svg id="Capa_1" enable-background="new 0 0 504.907 504.907" height="512" viewBox="0 0 504.907 504.907" width="512" xmlns="http://www.w3.org/2000/svg"><g><g><path d="m432.144 347.431-97.923 37.731-60.368 23.256-60.353 23.256-165.452 63.746c-20.589 7.933-40.887-8.162-40.62-28.04.031-3.439.688-6.97 2.056-10.524l89.218-231.567 16.378-42.515 16.393-42.531 26-67.483z" fill="#fedba6"/><path d="m402.048 317.335-97.923 37.731-60.368 23.256-60.353 23.256-165.452 63.746c-3.554 1.368-7.085 2.025-10.524 2.056.031-3.439.688-6.97 2.056-10.524l89.218-231.567 16.378-42.515 16.393-42.531 26-67.483z" fill="#ffefd2"/><g fill="#fb2b3a"><circle cx="96.482" cy="408.421" r="26.749"/><path d="m115.088 228.33c-5.778 0-11.303-1.078-16.385-3.042l16.378-42.515 16.393-42.531c17.066 6.58 29.179 23.141 29.171 42.531 0 25.159-20.398 45.557-45.557 45.557z"/><path d="m165.307 351.29c-18.801 0-34.949-11.395-41.904-27.658-2.354-5.503-3.661-11.548-3.661-17.906.008-25.167 20.405-45.564 45.564-45.564 6.359 0 12.404 1.307 17.906 3.661 16.263 6.955 27.658 23.103 27.658 41.904.001 25.158-20.397 45.555-45.563 45.563z"/></g><path d="m141.309 327.293c-6.359 0-12.404-1.307-17.906-3.661-2.354-5.503-3.661-11.548-3.661-17.906.008-25.167 20.405-45.564 45.564-45.564 6.359 0 12.404 1.307 17.906 3.661 2.354 5.503 3.661 11.548 3.661 17.906.008 25.166-20.39 45.564-45.564 45.564z" fill="#fd4755"/><path d="m360.611 275.897c-8.246 8.246-19.641 13.344-32.221 13.344-18.495 0-34.414-11.028-41.56-26.84-2.568-5.717-4.005-12.06-4.005-18.724 0-12.58 5.098-23.975 13.344-32.221z" fill="#fb2b3a"/><path d="m337.767 253.053c-8.246 8.246-19.641 13.344-32.221 13.344-6.672-.008-13.007-1.437-18.716-3.997-2.568-5.717-4.005-12.06-4.005-18.724 0-12.58 5.098-23.975 13.344-32.221z" fill="#fd4755"/><path d="m334.221 385.162-60.368 23.256-60.353 23.256c-2.79-7.207-4.318-15.048-4.318-23.256 0-.581.008-1.169.023-1.765.932-34.896 29.508-62.905 64.648-62.905 18.388 0 34.987 7.673 46.749 19.985 5.862 6.121 10.516 13.389 13.619 21.429z" fill="#fb2b3a"/><path d="m320.602 363.732-56.387 21.72-55.01 21.2c.932-34.896 29.508-62.905 64.648-62.905 18.388 0 34.987 7.673 46.749 19.985z" fill="#fd4755"/><path d="m493.2 306.719-40.712 40.712c-5.617 5.617-14.727 5.617-20.344 0l-274.671-274.672c-5.617-5.617-5.617-14.727 0-20.344l40.712-40.712c5.617-5.617 14.727-5.617 20.344 0l274.671 274.672c5.617 5.617 5.617 14.727 0 20.344z" fill="#d8aa5e"/><path d="m458.809 272.328-40.712 40.712c-5.617 5.617-14.727 5.617-20.344 0l-240.28-240.28c-5.617-5.617-5.617-14.727 0-20.344l40.712-40.712c5.617-5.617 14.727-5.617 20.344 0l240.28 240.28c5.617 5.617 5.617 14.727 0 20.344z" fill="#e9b665"/></g><g><path d="m498.506 281.073-211.327-211.327c-2.93-2.928-7.678-2.928-10.607 0-2.929 2.93-2.929 7.678 0 10.607l211.327 211.327c2.685 2.684 2.685 7.051 0 9.734l-40.716 40.716c-2.684 2.686-7.051 2.686-9.734 0l-274.676-274.675c-1.301-1.3-2.017-3.028-2.017-4.867 0-1.838.716-3.566 2.017-4.866l40.716-40.716c2.685-2.684 7.051-2.684 9.733 0l39.685 39.683c2.928 2.928 7.677 2.929 10.606-.001 2.929-2.929 2.929-7.677 0-10.606l-39.683-39.684c-8.533-8.532-22.415-8.53-30.948 0l-40.715 40.716c-4.134 4.133-6.41 9.628-6.41 15.474 0 4.083 1.133 7.982 3.211 11.379l-86.372 224.174c-1.489 3.865.437 8.206 4.302 9.694 3.865 1.489 8.205-.437 9.694-4.302l26.602-69.043c24.83 5.692 50.848-7.65 60.777-31.086 10.402-24.552.208-53.899-23.004-66.95l19.356-50.237 125.615 125.615c-6.883 9.137-10.613 20.201-10.613 31.843 0 29.259 23.804 53.063 53.063 53.063 11.642 0 22.706-3.73 31.842-10.613l58.458 58.458-80.543 31.032c-12.967-25.282-40.599-41.043-68.962-39.219-26.2 1.685-49.943 18.104-60.917 41.932-7.01 15.22-8.452 32.723-4.09 48.904l-158.826 61.192c-8.486 3.272-17.392 1.383-23.823-5.048s-8.317-15.337-5.048-23.823l47.404-123.035c1.489-3.865-.437-8.206-4.302-9.694-3.867-1.491-8.206.437-9.694 4.302l-47.404 123.034c-11.414 29.621 18.595 59.696 48.26 48.261l380.2-146.486c3.482 2.12 7.423 3.203 11.373 3.203 5.604 0 11.208-2.134 15.475-6.399l40.716-40.716c8.531-8.534 8.531-22.417-.001-30.95zm-281.825 127.348c0-31.526 25.648-57.175 57.175-57.175 20.948 0 40.27 11.72 50.19 29.8l-105.786 40.758c-1.045-4.356-1.579-8.833-1.579-13.383zm-63.535-225.651c0 20.987-17.075 38.063-38.063 38.063-2.169 0-4.311-.188-6.418-.546l26.829-69.635c10.787 6.905 17.652 19.036 17.652 32.118zm175.24 98.968c-20.987 0-38.063-17.075-38.063-38.063 0-7.619 2.224-14.897 6.364-21.091l52.79 52.79c-6.195 4.14-13.472 6.364-21.091 6.364z"/><path d="m62.233 408.421c0 18.885 15.364 34.249 34.249 34.249s34.249-15.364 34.249-34.249-15.364-34.248-34.249-34.248-34.249 15.363-34.249 34.248zm53.498 0c0 10.614-8.635 19.249-19.249 19.249s-19.249-8.635-19.249-19.249c0-10.613 8.635-19.248 19.249-19.248s19.249 8.635 19.249 19.248z"/><path d="m112.247 305.725c0 29.259 23.804 53.063 53.063 53.063 14.174 0 27.499-5.52 37.521-15.541 2.929-2.93 2.929-7.678 0-10.607-2.93-2.928-7.678-2.928-10.607 0-7.188 7.189-16.747 11.148-26.914 11.148-20.987 0-38.063-17.075-38.063-38.063s17.075-38.063 38.063-38.063 38.063 17.075 38.063 38.063c0 4.143 3.357 7.5 7.5 7.5s7.5-3.357 7.5-7.5c0-29.259-23.804-53.063-53.063-53.063s-53.063 23.804-53.063 53.063z"/><path d="m231.534 254.453c2.91 0 5.679-1.704 6.897-4.548l6.879-16.05c1.632-3.807-.132-8.216-3.939-9.848s-8.217.133-9.848 3.939l-6.879 16.05c-1.632 3.807.132 8.216 3.939 9.848.964.414 1.966.609 2.951.609z"/><path d="m203.805 209.118c.927 0 1.868-.173 2.78-.537 3.847-1.537 5.719-5.9 4.183-9.747l-6.478-16.215c-1.537-3.848-5.905-5.717-9.747-4.183-3.847 1.537-5.719 5.9-4.183 9.747l6.478 16.215c1.172 2.935 3.989 4.72 6.967 4.72z"/><path d="m335.864 337.438c.358 0 .721-.025 1.085-.078l17.28-2.503c4.1-.594 6.941-4.398 6.348-8.498-.594-4.101-4.408-6.939-8.498-6.348l-17.28 2.503c-4.1.594-6.941 4.398-6.348 8.498.541 3.735 3.747 6.426 7.413 6.426z"/></g></g></svg>