<svg id="Capa_1" enable-background="new 0 0 504.993 504.993" height="512" viewBox="0 0 504.993 504.993" width="512" xmlns="http://www.w3.org/2000/svg"><g><g><path d="m496.622 435.635c0 28.404-22.786 51.467-51.058 51.928-.29.013-.593.013-.884.013h-438.051v-366.265h438.935v262.383c13.978.224 26.637 6 35.841 15.204 9.401 9.402 15.217 22.391 15.217 36.737z" fill="#ffefd2"/><path d="m445.559 331.833c-20.917 5.44-42.156 10.494-63.686 15.175-16.391 3.548-32.934 6.88-49.649 9.977 10.518-45.49 28.001-88.306 51.291-127.268h62.053z" fill="#f4d902"/><path d="m381.874 347.008c-16.391 3.548-32.934 6.88-49.649 9.977 10.518-45.49 28.001-88.306 51.291-127.268z" fill="#fee903"/><path d="m283.991 405.913c-1.793 16.931-2.716 34.126-2.716 51.532 0 10.114.317 20.162.923 30.131h-275.569v-61.686h.554c95.258.001 187.932-6.909 276.808-19.977z" fill="#5de1c4"/><path d="m496.622 435.635c0 28.404-22.786 51.467-51.058 51.928-.29.013-.593.013-.884.013h-122.844c-.659-9.956-1.002-20.004-1.002-30.131 0-19.648 1.279-38.992 3.745-57.954 27.48-4.681 54.578-9.956 81.255-15.81h38.847c13.688 0 27.045 5.538 36.724 15.217 9.401 9.402 15.217 22.391 15.217 36.737z" fill="#0ab69f"/><path d="m459.779 435.635c0 28.404-22.786 51.467-51.058 51.928-.29.013-.593.013-.884.013h-86.002c-.659-9.956-1.002-20.004-1.002-30.131 0-19.648 1.279-38.992 3.745-57.954 27.48-4.681 54.578-9.956 81.255-15.81h2.004c13.687 0 27.045 5.538 36.724 15.217 9.403 9.402 15.218 22.391 15.218 36.737z" fill="#5de1c4"/><path d="m445.564 148.686c-12.646 13.081-24.487 26.926-35.432 41.471h35.432v39.559h-62.055c-23.287 38.966-40.772 81.782-51.282 127.275 38.676-7.173 76.494-15.586 113.337-25.16v42.658c-39.361 9.613-79.738 17.973-120.985 25.001-2.466 18.962-3.745 38.307-3.745 57.954 0 10.127.343 20.175 1.002 30.131h-39.638c-.607-9.969-.923-20.017-.923-30.131 0-17.406.923-34.601 2.716-51.532-88.876 13.068-181.55 19.977-276.809 19.977h-.553v-39.559h.554c97.711 0 192.548-7.675 283.072-22.114 9.296-47.708 25.608-92.924 47.827-134.501h-331.453v-39.559h124.506c38.03 0 68.859-30.817 68.859-68.846h40.416c0 26.149-9.257 50.121-24.672 68.846h145.96c16.325-24.619 34.852-47.669 55.304-68.846h28.562z" fill="#eaf6ff"/><path d="m199.989 121.309c.007 38.039-30.831 68.85-68.855 68.85l-124.512.002.002-68.853z" fill="#fee903"/><path d="m417.001 121.32c-20.46 21.181-38.975 44.223-55.302 68.838l-145.96-.003c15.413-18.716 24.669-42.692 24.671-68.843z" fill="#fee903"/><path d="m312.466 487.578-30.268.003.004-.011z" fill="#fef056"/><path d="m144.775 266.171c-5.539.283-9.298.492-16.318 3.425-14.165 6.275-24.061 20.452-24.061 36.954 0 14.862 11.939 43.021 23.889 60.182 3.078 4.406 10.121 13.885 16.489 14.471 12.648 0 40.378-52.354 40.378-74.653.001-22.3-18.078-40.379-40.377-40.379z" fill="#e41f2d"/><path d="m128.457 269.596c-14.165 6.275-24.061 20.452-24.061 36.954 0 14.862 11.939 43.021 23.889 60.182 11.951-17.162 24.244-45.333 24.244-60.182.001-16.502-9.895-30.679-24.072-36.954z" fill="#fd4755"/><path d="m496.622 69.357v366.278c0-14.347-5.815-27.335-15.217-36.737-9.197-9.133-22.344-15.183-36.724-15.217h-38.847v-366.265h38.847c14.334 0 27.322 5.815 36.724 15.217 9.401 9.402 15.217 22.39 15.217 36.724z" fill="#d7d0d6"/><path d="m455.533 69.357v315.471c-3.508-.752-7.134-1.147-10.852-1.147h-38.847v-366.212c13.45.567 25.582 6.264 34.482 15.164 9.402 9.402 15.217 22.39 15.217 36.724z" fill="#e5e1e5"/></g><g><path d="m497.493 126.756c4.142 0 7.5-3.357 7.5-7.5v-49.899c0-15.872-6.184-30.798-17.414-42.028-11.23-11.229-26.155-17.413-42.027-17.413h-38.847c-4.142 0-7.5 3.357-7.5 7.5v96.396h-391.705c-4.142 0-7.5 3.357-7.5 7.5v366.266c0 4.143 3.358 7.5 7.5 7.5h105.723c4.142 0 7.5-3.357 7.5-7.5s-3.358-7.5-7.5-7.5h-98.223v-46.718c88.28-.313 176.167-6.574 261.485-18.66-1.871 21.734-2.306 43.585-1.321 65.377h-117.24c-4.142 0-7.5 3.357-7.5 7.5s3.358 7.5 7.5 7.5h287.628c32.396 0 59.441-27.047 59.441-59.441v-273.271c0-4.143-3.358-7.5-7.5-7.5s-7.5 3.357-7.5 7.5v233.787c-10.29-11.94-28.03-20.129-44.441-19.971h-31.347v-351.265h31.347c22.998-.55 44.925 20.102 44.441 44.441v49.898c0 4.143 3.358 7.501 7.5 7.501zm-98.288 208.876c-18.419 4.221-37.191 8.193-56.049 11.826 10.018-38.655 25.293-75.669 45.504-110.242h10.545zm0-205.206c-14.644 16.427-28.302 33.962-40.64 52.232h-127.353c10.091-16.19 16.068-34.732 17.315-53.847h150.677v1.615zm-206.315-1.615c-3.713 30.3-29.592 53.847-60.884 53.847h-117.006v-53.847zm-60.574 147.663c4.234-1.795 8.709-2.804 13.33-2.804 18.129 0 32.878 14.749 32.878 32.879 0 8.471-5.423 24.6-13.495 40.135-9.066 17.448-16.724 25.381-19.446 26.867-4.319-2.243-7.553-7.255-10.271-11.106-11.799-16.942-22.544-43.584-22.544-55.896 0-12.99 7.671-24.789 19.548-30.075zm44.872 79.308c7.897-14.727 16.336-35.394 16.336-49.232 0-26.4-21.478-47.879-47.878-47.879-6.681 0-13.219 1.474-19.356 4.067-17.327 7.677-28.522 24.874-28.522 43.812 0 17.438 13.099 47.041 25.264 64.509.938 1.349 1.91 2.673 2.916 3.972-36.779 2.371-73.812 3.629-110.947 3.768v-141.582h311.62c-19.159 38.151-33.202 78.575-41.821 120.407-38.63 6.04-77.829 10.793-117.394 14.261 3.165-4.482 6.428-9.849 9.782-16.103zm112.989 124.295c-1.139-24.466-.436-49.017 2.144-73.374.244-2.306-.592-4.594-2.264-6.199-1.672-1.606-3.995-2.351-6.286-2.011-87.562 12.875-177.946 19.56-268.771 19.885v-24.559c92.798-.347 185.657-7.576 277.308-22.195 3.109-.496 5.578-2.881 6.18-5.972 9.016-46.268 24.856-90.813 47.081-132.4 1.242-2.324 1.173-5.131-.182-7.392-1.355-2.26-3.797-3.644-6.433-3.644h-323.954v-24.559h117.006c39.573 0 72.212-30.257 75.994-68.847h25.5c-1.549 20.674-9.465 40.526-22.681 56.58-1.844 2.24-2.23 5.344-.992 7.968 1.239 2.625 3.88 4.299 6.782 4.299h145.96c2.514 0 4.86-1.259 6.25-3.354 9.368-14.122 19.547-27.819 30.385-40.896v68.809h-14.824c-2.639 0-5.084 1.387-6.438 3.652-24.067 40.271-41.614 83.818-52.152 129.435-.569 2.464.141 5.048 1.89 6.875 1.749 1.826 4.3 2.65 6.785 2.188 21.737-4.029 43.47-8.505 64.739-13.33v26.602c-24.621 5.311-49.827 10.17-75.014 14.46-3.247.553-5.753 3.16-6.178 6.427-3.513 27.016-4.582 54.343-3.25 81.553-8.194-.001-16.389-.001-24.585-.001zm155.375-88.896c11.696 0 23.148 4.745 31.421 13.021 8.396 8.396 13.02 19.559 13.02 31.434 0 24.097-20.345 44.441-44.441 44.441h-115.767c-1.252-24.725-.455-49.549 2.425-74.139 25.324-4.395 50.62-9.354 75.295-14.757z"/><path d="m291.956 270.518c1.816-4.73-.547-10.037-5.277-11.853s-10.037.547-11.852 5.277c-1.816 4.73.547 10.037 5.277 11.852 4.73 1.817 10.037-.546 11.852-5.276z"/><path d="m366.407 424.237c-4.73-1.816-10.037.547-11.853 5.277s.547 10.037 5.277 11.852c4.73 1.816 10.037-.547 11.852-5.277 1.817-4.73-.545-10.036-5.276-11.852z"/></g></g></svg>