<svg id="Capa_1" enable-background="new 0 0 504.992 504.992" height="512" viewBox="0 0 504.992 504.992" width="512" xmlns="http://www.w3.org/2000/svg"><g><g><path d="m97.918 250.122h-26.793c3.609 5.998 5.691 13.033 5.691 20.559v18.518h-6.316c-.338 0-11.351.174-11.351 23.235-.113-.543-.185-1.097-.226-1.651h-2.738c-10.09 0-18.283-8.172-18.283-18.283v-42.379h-4.583c-14.253 0-25.819-11.556-25.819-25.809v-95.34c0-9.31 4.83-17.196 11.874-21.718l64.476 19.996c8.193 2.543 14.612 9.003 17.073 17.237l21.728 72.402c4.973 16.56-7.434 33.233-24.733 33.233z" fill="#5de1c4"/><path d="m128.977 250.122h-26.793c3.609 5.998 5.691 13.033 5.691 20.559v18.518h-31.059v-18.518c0-7.526-2.082-14.561-5.691-20.559h26.793c17.298 0 29.705-16.673 24.732-33.233l-21.728-72.402c-2.461-8.234-8.88-14.694-17.073-17.237l-64.476-19.995c6.111-3.937 13.873-5.332 21.595-2.933l73.94 22.928c8.193 2.543 14.612 9.003 17.073 17.237l21.728 72.402c4.974 16.56-7.433 33.233-24.732 33.233z" fill="#0ab69f"/><path d="m354.428 373.014-29.746 83.312c-5.137 14.376-25.717 13.648-29.808-1.066l-1.6-5.742-15.063-54.089c-1.005-3.589-3.261-6.716-6.357-8.798l-26.752-17.934c-15.658-10.5-22.415-30.115-16.57-48.029l8.029-24.537c2.102-6.429 8.101-10.787 14.868-10.787h71.121c7.137 0 13.371 4.84 15.145 11.751l1.261 4.912 15.893 61.851c.779 3.025.625 6.214-.421 9.156z" fill="#0ab69f"/><path d="m320.591 373.014-27.316 76.504-15.063-54.089c-1.005-3.589-3.261-6.716-6.357-8.798l-26.752-17.934c-15.658-10.5-22.415-30.115-16.57-48.029l8.029-24.537c2.102-6.429 8.101-10.787 14.868-10.787h37.283c7.137 0 13.371 4.84 15.145 11.751 1.519 11.495 19.996 64.816 16.733 75.919z" fill="#5de1c4"/><path d="m478.715 431.779v21.225c0 17.196-15.832 30.013-32.648 26.445-19.977-7.427-36.369 5.119-49.885-1.999-9.044-4.286-15.494-13.474-15.494-24.445v-21.225c0-12.52 8.613-23.409 20.795-26.301l14.96-3.548 7.024-1.661c4.102-.974 8.377-.974 12.469 0l21.984 5.209c12.192 2.891 20.795 13.78 20.795 26.3z" fill="#0ab69f"/><path d="m452.189 431.779v21.225c0 10.972-6.45 20.159-15.494 24.445-12.398-3.548-27.437 6.853-40.513 0-9.044-4.286-15.494-13.474-15.494-24.445v-21.225c0-12.52 8.613-23.409 20.795-26.301l14.96-3.548 14.95 3.548c12.193 2.892 20.796 13.781 20.796 26.301z" fill="#5de1c4"/><path d="m370.609 147.963c-22.558 0-28.034 16.406-28.034 50.582s-17.083 33.838-17.083 33.838h-34.566c-.01 0-.021 0-.021 0h-27.06c-18.559 0-31.807-17.985-26.291-35.704l18.683-60.108c3.579-11.515 14.232-19.359 26.291-19.359h107.214c.001 0 3.425 30.751-19.133 30.751z" fill="#5de1c4"/><path d="m496.598 184.498-16.273 91.485c-2.184 12.305-11.33 21.882-22.938 24.968v23.122c0 29.521-26.527 43.753-42.882 26.65-1.6-1.682-3.107-3.661-4.481-5.957l-25.583-42.759h-45.486l-1.261-4.912c-1.774-6.911-8.008-11.751-15.145-11.751h-31.654v-52.961h1.682.021 32.894s17.083.338 17.083-33.838 5.476-50.582 28.034-50.582 19.134-30.751 19.134-30.751h50.48c35.642 0 62.62 32.207 56.375 67.286z" fill="#0ab69f"/><path d="m463.683 184.498-16.273 91.485c-2.184 12.305-11.33 21.882-22.938 24.968v23.122c0 11.536-4.05 20.743-9.967 26.65-1.6-1.682-3.107-3.661-4.481-5.957l-25.583-42.759h-45.486l-1.261-4.912c-1.774-6.911-8.008-11.751-15.145-11.751h-31.654v-52.961h1.682.021 32.894s17.083.338 17.083-33.838 5.476-50.582 28.034-50.582 19.134-30.751 19.134-30.751h17.565c35.642 0 62.62 32.207 56.375 67.286z" fill="#5de1c4"/><path d="m183.866 385.914-29.08 71.972c-6.06 15.001-26.598 16.663-35.007 2.912-.041-.062-.082-.113-.113-.174l-46.091-77.006c-1.21-2.01-2.041-4.225-2.471-6.521l-11.956-64.661c0-23.061 11.013-23.235 11.351-23.235h48.788c3.609 0 7.157.984 10.254 2.881l29.223 17.862c25.81 15.79 36.422 47.915 25.102 75.97z" fill="#0ab69f"/><path d="m150.316 385.914-29.08 71.972c-.42 1.036-.902 2.01-1.456 2.912-.041-.062-.082-.113-.113-.174l-46.091-77.006c-1.21-2.01-2.041-4.225-2.471-6.521l-11.956-64.661c0-23.061 11.013-23.235 11.351-23.235h15.237c3.609 0 7.157.984 10.254 2.881l29.223 17.862c25.809 15.79 36.422 47.915 25.102 75.97z" fill="#5de1c4"/><path d="m197.924 88.122-13.556 34.566c-3.661 9.331-14.376 11.751-21.707 7.26-2.574-1.569-4.727-3.989-6.009-7.26l-13.556-34.566c-3.825-9.762 3.374-20.323 13.863-20.323h27.101c10.491 0 17.689 10.561 13.864 20.323z" fill="#0ab69f"/><path d="m182.225 88.122-13.556 34.566c-1.282 3.271-3.435 5.691-6.009 7.26-2.574-1.569-4.727-3.989-6.009-7.26l-13.556-34.566c-3.825-9.762 3.374-20.323 13.863-20.323h11.413c10.481 0 17.679 10.561 13.854 20.323z" fill="#5de1c4"/><path d="m380.689 24.948c-7.321 0-14.304 1.436-20.692 4.04-20.067 8.172-34.207 27.87-34.207 50.869 0 20.805 17.226 60.836 33.961 83.917 7.649 10.562 15.196 17.565 20.938 17.565 17.196 0 54.899-71.162 54.899-101.482s-24.579-54.909-54.899-54.909zm11.197 70.762c-3.168 2.246-7.024 3.558-11.197 3.558-10.715 0-19.411-8.695-19.411-19.41 0-10.725 8.695-19.41 19.411-19.41 4.163 0 8.008 1.302 11.166 3.538 4.983 3.507 8.244 9.31 8.244 15.873 0 6.55-3.24 12.344-8.213 15.851z" fill="#e41f2d"/><path d="m380.689 99.268c-10.715 0-19.411-8.695-19.411-19.41 0-10.725 8.695-19.41 19.411-19.41 4.163 0 8.008 1.302 11.166 3.538-4.789-15.914-16.611-28.783-31.859-34.996-20.067 8.172-34.207 27.87-34.207 50.869 0 20.805 17.226 60.836 33.961 83.917 13.074-18.078 26.803-46.573 32.135-68.065-3.168 2.244-7.023 3.557-11.196 3.557z" fill="#fd4755"/></g><g><path d="m380.688 106.768c14.838 0 26.911-12.072 26.911-26.911 0-14.838-12.072-26.91-26.911-26.91s-26.91 12.072-26.91 26.91c0 14.839 12.072 26.911 26.91 26.911zm0-38.821c6.567 0 11.911 5.343 11.911 11.91s-5.343 11.911-11.911 11.911-11.91-5.344-11.91-11.911 5.343-11.91 11.91-11.91z"/><path d="m162.678 303.548-29.227-17.868c-5.57-3.406-11.698-4.125-18.081-3.985v-11.012c0-4.445-.621-8.842-1.827-13.065h15.438c21.933 0 38.231-21.822 31.911-42.88l-21.724-72.412c-3.192-10.635-11.433-18.949-22.043-22.241l-73.938-22.925c-21.114-6.553-43.187 9.744-43.187 31.813v95.336c0 17.386 13.392 31.703 30.406 33.183v35.013c0 12.984 9.647 23.758 22.151 25.528l11.176 60.425c.594 3.213 1.745 6.251 3.408 9.008l46.091 77.01c11.311 18.89 40.273 16.629 48.513-3.784l29.074-71.964v-.002c12.746-31.579.912-67.4-28.141-85.178zm14.231 79.562v-.002l-29.075 71.967c-3.688 9.137-16.671 10.151-21.733 1.696l-46.103-77.03c-.741-1.229-1.251-2.578-1.516-4.012l-11.822-63.924c.114-11.173 3.154-14.701 4.351-15.127 3.858-.254 6.938-3.433 6.999-7.366.065-4.142-3.24-7.552-7.382-7.616-2.834-.077-7.218 1.21-10.932 4.865-3.736 3.678-6.178 9.049-7.311 16.021-4.071-1.542-6.979-5.471-6.979-10.077v-42.387c0-6.768-6.834-7.763-12.087-7.5-10.101 0-18.319-8.213-18.319-18.309v-95.336c0-12.133 12.153-21.081 23.743-17.487l73.939 22.925c5.834 1.811 10.366 6.382 12.121 12.227l21.723 72.412c3.468 11.553-5.481 23.568-17.543 23.568h-26.803c-5.659 0-9.367 6.481-6.426 11.367 3.02 5.019 4.616 10.792 4.616 16.698v18.512c0 12.078 18.661 5.251 25.256 9.282l29.224 17.867c22.774 13.935 32.05 42.014 22.059 66.766z"/><path d="m459.655 398.183-21.986-5.213c-5.44-1.289-13.775-2.201-15.271 5.049-1.138 6.16 4.749 9.681 11.813 9.547l21.984 5.213c8.846 2.098 15.025 9.911 15.025 19.003v21.224c0 12.219-11.618 21.658-23.594 19.104-10.65-3.242-23.478-4.013-35.841 0-11.976 2.551-23.594-6.883-23.594-19.104v-21.224c0-8.211 5.184-15.595 12.9-18.372 9.101-3.277 4.022-17.384-5.08-14.113-13.649 4.913-22.82 17.968-22.82 32.485v21.224c0 21.623 20.545 38.276 41.714 33.775 11.281-4.543 23.951-.91 36.837.764 18.813 0 34.477-15.776 34.477-34.539v-21.224c0-16.075-10.924-29.891-26.564-33.599z"/><path d="m489.863 132.883c-12.338-14.727-30.433-23.173-49.644-23.173h-3.276c3.296-9.685 6.144-20.692 6.144-29.854 0-34.412-27.992-62.409-62.399-62.409s-62.399 27.997-62.399 62.409c0 9.185 2.782 20.187 6 29.854h-41.76c-15.26 0-28.933 10.086-33.454 24.635l-18.682 60.104c-6.92 22.226 10.223 45.434 33.452 45.434h19.555v37.957h-31.97c-10.041 0-18.881 6.415-21.998 15.957l-8.033 24.548c-6.852 21.015 1.176 44.283 19.525 56.586l26.747 17.927c1.546 1.037 2.816 2.797 3.314 4.585l16.661 59.831c5.904 21.184 36.628 22.483 44.1 1.574l29.747-83.313c1.466-4.399 1.786-9.035.622-13.541l-13.484-52.483h31.557l23.396 39.101c8.088 13.52 21.426 19.619 34.812 15.925 13.188-3.644 26.495-17.569 26.495-40.466v-17.822c11.815-5.178 20.524-16.027 22.824-28.954l16.27-91.48c3.363-18.913-1.784-38.206-14.122-52.932zm-109.175-100.435c26.136 0 47.399 21.268 47.399 47.409 0 7.986-3.147 20.238-8.863 34.508-.008.02-.021.038-.029.059-5.817 14.536-13.659 29.553-21.516 41.198-3.613 5.355-7.537 10.77-12.37 15.1-2.157 1.934-4.009 3.86-6.748 2.189-3.803-2.32-6.893-6.043-9.644-9.467-4.978-6.195-9.212-12.976-13.114-19.887-5.143-9.115-9.961-19.208-13.833-29.085-.004-.01-.01-.019-.014-.029-5.59-14.26-8.669-26.542-8.669-34.587.003-26.141 21.266-47.408 47.401-47.408zm-33.102 333.281c.412 1.6.3 3.276-.235 4.802l-29.736 83.279c-2.62 7.343-13.417 6.991-15.517-.561l-16.666-59.842c-1.468-5.242-4.892-9.972-9.403-13.005l-26.751-17.934c-12.8-8.583-18.4-24.815-13.62-39.468l8.03-24.539c1.098-3.359 4.208-5.617 7.739-5.617h71.121c3.716 0 6.956 2.515 7.881 6.116zm141.63-182.542-16.27 91.48c-1.631 9.169-8.495 16.641-17.486 19.036-3.284.875-5.569 3.849-5.569 7.247v23.12c0 14.929-8.029 23.946-15.489 26.007-6.793 1.882-13.335-1.464-17.945-9.167l-25.58-42.75c-1.354-2.264-3.798-3.649-6.436-3.649h-39.698c-2.87-9.846-11.878-16.667-22.192-16.667h-24.151v-37.961h27.092v-.001c1.787-.017 17.037-.817 22.577-22.854 2.349-9.34-12.195-13.01-14.547-3.658-2.625 10.441-7.568 11.431-8.179 11.514h-34.386c-.02 0-.038-.003-.058-.003h-27.05c-13.262 0-23.09-13.257-19.128-25.974l18.679-60.108c2.574-8.276 10.451-14.086 19.127-14.086h47.405c4.041 9.676 8.683 19.131 13.932 28.211-4.564 6.536-7.148 15.698-8.202 28.712-.777 9.598 14.172 10.827 14.951 1.211.502-6.192 1.392-11.23 2.684-15.185 8.171 11.392 15.755 18.229 22.656 20.411 17.562 5.557 32.33-20.548 39.463-32.472 6.573-10.994 12.142-22.535 15.747-30.89h9.057c14.761 0 28.665 6.49 38.146 17.806s13.435 26.139 10.85 40.67zm-163.629 41.694c-.016.001-.045.002-.095.002h-.118c.097-.005.169-.004.213-.002zm-.05-.013c.018 0 .082.007.062.012-.065-.01-.074-.012-.062-.012z"/><path d="m184.062 60.302h-27.104c-15.495 0-26.52 16.073-20.841 30.555l13.552 34.567c7.267 18.537 34.408 18.553 41.681 0l13.552-34.567c4.328-11.036-.995-23.909-11.844-28.669-2.828-1.241-5.908-1.886-8.996-1.886zm6.875 25.08-13.552 34.567c-2.413 6.155-11.337 6.157-13.751 0l-13.552-34.567c-1.851-4.723 1.777-10.08 6.876-10.08h27.104c5.117 0 8.748 5.302 6.875 10.08z"/><ellipse cx="429.705" cy="321.453" rx="7.69" ry="7.69" transform="matrix(.987 -.16 .16 .987 -45.943 72.982)"/><path d="m123.248 230.578c4.247 0 7.69-3.443 7.69-7.69s-3.443-7.69-7.69-7.69-7.69 3.443-7.69 7.69c-.001 4.247 3.443 7.69 7.69 7.69z"/><path d="m156.359 350.4c-4.247 0-7.69 3.443-7.69 7.69s3.443 7.69 7.69 7.69 7.69-3.443 7.69-7.69-3.443-7.69-7.69-7.69z"/></g></g></svg>