<svg id="Capa_1" enable-background="new 0 0 505 505" height="512" viewBox="0 0 505 505" width="512" xmlns="http://www.w3.org/2000/svg"><g><g><path d="m288.821 269.613v213.218h-236.468c-24.774 0-44.85-20.088-44.85-44.85v-168.368z" fill="#aa9ea9"/><path d="m245.984 269.613v213.218h-193.631c-24.774 0-44.85-20.088-44.85-44.85v-168.368z" fill="#baafb9"/><path d="m288.821 193.266v76.347h-281.318l50.788-76.347z" fill="#e41f2d"/><path d="m245.984 193.266v76.347h-238.481l50.788-76.347z" fill="#fd4755"/><path d="m497.5 42.916v396.748c0 23.841-19.326 43.167-43.167 43.167h-165.512v-439.915c0-11.454 9.293-20.747 20.759-20.747h167.173c11.465 0 20.747 9.293 20.747 20.747z" fill="#baafb9"/><path d="m454.663 42.916v396.748c0 23.841-19.326 43.167-43.167 43.167h-122.675v-439.915c0-11.454 9.293-20.747 20.759-20.747h124.336c11.454 0 20.747 9.293 20.747 20.747z" fill="#d7d0d6"/><path d="m441.639 347.074v135.757h-96.958v-135.757c0-20.099 13.206-37.115 31.417-42.837 4.254-1.342 8.781-2.059 13.479-2.059h7.166c24.797.001 44.896 20.1 44.896 44.896z" fill="#465a61"/><path d="m407.515 347.074v135.757h-62.834v-135.757c0-20.099 13.206-37.115 31.417-42.837 18.211 5.722 31.417 22.738 31.417 42.837z" fill="#596c76"/><path d="m176.837 23.488h72.468v201.366h-72.468z" fill="#f4d902"/><path d="m176.837 23.488h48.194v201.366h-48.194z" fill="#fee903"/><g fill="#5de1c4"><path d="m67.36 318.306h54.042v85.551h-54.042z"/><path d="m331.667 72.183h122.994v42.117h-122.994z"/><path d="m331.667 151.153h122.994v42.117h-122.994z"/></g></g><g><path d="m497.5 100.749c4.142 0 7.5-3.357 7.5-7.5v-50.333c0-15.575-12.672-28.247-28.248-28.247h-167.173c-15.582 0-28.258 12.672-28.258 28.247v42.825h-24.516v-62.253c0-4.143-3.358-7.5-7.5-7.5h-72.468c-4.142 0-7.5 3.357-7.5 7.5v162.278h-111.046c-2.51 0-4.854 1.256-6.245 3.346l-50.702 76.218c-.863 1.239-1.344 2.767-1.344 4.277v168.369c0 28.865 23.484 52.35 52.35 52.35l311.032.005c9.674 0 9.674-15 0-15h-11.2v-128.257c0-49.635 81.958-49.654 81.958 0v128.257h-35.496c-9.674 0-9.674 15 0 15h55.69c27.938 0 50.667-22.729 50.667-50.667v-307.173c0-9.697-15-9.697-15 0v307.173c0 19.667-16 35.667-35.667 35.667h-5.194v-128.257c0-69.029-111.958-69.079-111.958 0v128.257h-40.858l-.002-432.415c0-7.305 5.948-13.247 13.258-13.247h167.173c7.305 0 13.248 5.942 13.248 13.247v50.333c-.001 4.143 3.357 7.5 7.499 7.5zm-240.695 61.853h24.516v23.165h-24.516zm24.516-61.861v46.86h-24.516v-46.86zm-96.984-69.753h57.468v186.365h-57.468zm-122.028 169.779h107.028v24.087c0 4.143 3.358 7.5 7.5 7.5h72.468c4.142 0 7.5-3.357 7.5-7.5v-24.087h24.516v61.341h-259.818zm-47.309 237.21v-160.864h266.321v198.213h-228.971c-20.595 0-37.35-16.755-37.35-37.349z"/><path d="m121.401 310.806h-54.041c-4.142 0-7.5 3.357-7.5 7.5v85.551c0 4.143 3.358 7.5 7.5 7.5h54.042c4.142 0 7.5-3.357 7.5-7.5v-85.551c-.001-4.143-3.359-7.5-7.501-7.5zm-7.5 85.55h-39.041v-70.551h39.042v70.551z"/><path d="m462.161 72.183c0-4.143-3.358-7.5-7.5-7.5h-122.994c-4.142 0-7.5 3.357-7.5 7.5v42.117c0 4.143 3.358 7.5 7.5 7.5h122.994c4.142 0 7.5-3.357 7.5-7.5zm-15 34.617h-107.994v-27.117h107.994z"/><path d="m454.661 143.652h-122.994c-4.142 0-7.5 3.357-7.5 7.5v42.118c0 4.143 3.358 7.5 7.5 7.5h122.994c4.142 0 7.5-3.357 7.5-7.5v-42.118c0-4.142-3.358-7.5-7.5-7.5zm-7.5 42.119h-107.994v-27.118h107.994z"/><path d="m178.106 347.193h51.054c4.142 0 7.5-3.357 7.5-7.5s-3.358-7.5-7.5-7.5h-51.054c-4.142 0-7.5 3.357-7.5 7.5s3.358 7.5 7.5 7.5z"/><path d="m229.16 374.969h-51.054c-4.142 0-7.5 3.357-7.5 7.5s3.358 7.5 7.5 7.5h51.054c4.142 0 7.5-3.357 7.5-7.5s-3.358-7.5-7.5-7.5z"/><path d="m213.071 71.068c4.712 0 8.531-3.819 8.531-8.531 0-4.711-3.819-8.531-8.531-8.531s-8.531 3.819-8.531 8.531 3.82 8.531 8.531 8.531z"/><path d="m213.071 132.491c4.712 0 8.531-3.819 8.531-8.531s-3.819-8.531-8.531-8.531-8.531 3.82-8.531 8.531c0 4.712 3.82 8.531 8.531 8.531z"/><path d="m213.071 193.915c4.712 0 8.531-3.82 8.531-8.531s-3.819-8.531-8.531-8.531-8.531 3.819-8.531 8.531c0 4.711 3.82 8.531 8.531 8.531z"/><circle cx="213.071" cy="154.672" r="8.531"/><circle cx="213.071" cy="93.249" r="8.531"/></g></g></svg>