<svg id="Capa_1" enable-background="new 0 0 504.799 504.799" height="512" viewBox="0 0 504.799 504.799" width="512" xmlns="http://www.w3.org/2000/svg"><g><g><path d="m93.68 195.004h72.5v263.21h-72.5z" fill="#fb2b3a"/><path d="m93.68 195.004h41v263.21h-41z" fill="#fd4755"/><path d="m338.42 195.004h72.5v263.21h-72.5z" fill="#fb2b3a"/><path d="m338.42 195.004h41v263.21h-41z" fill="#fd4755"/><path d="m108.074 117.261h43.71v38.905h-43.71z" fill="#a44f3e"/><path d="m108.07 117.264h26.61v38.9h-26.61z" fill="#bb5d4c"/><path d="m352.82 117.264h43.71v38.9h-43.71z" fill="#a44f3e"/><path d="m352.82 117.264h26.6v38.9h-26.6z" fill="#bb5d4c"/><path d="m495.989 26.734-24.72 51.62h-437.939l-24.72-51.62c-4.18-8.7 2.16-18.78 11.82-18.78l155.67 20.44c50.58 6.64 101.82 6.64 152.4 0l129.08-16.95 26.59-3.49c9.66 0 16 10.08 11.819 18.78z" fill="#008b81"/><path d="m460.479 26.734-24.72 51.62h-402.429l-24.72-51.62c-4.18-8.7 2.16-18.78 11.82-18.78l155.67 20.44c50.58 6.64 101.82 6.64 152.4 0l129.08-16.95c3.97 3.71 5.55 9.78 2.899 15.29z" fill="#01998d"/><path d="m56.019 156.164h392.5v38.84h-392.5z" fill="#fb2b3a"/><path d="m56.019 156.164h361.5v38.84h-361.5z" fill="#fd4755"/><path d="m216.79 78.354h71.02v77.81h-71.02z" fill="#fedba6"/><path d="m216.79 78.354h45.56v77.81h-45.56z" fill="#ffefd2"/><path d="m94.85 78.354h71.02v38.91h-71.02z" fill="#fb2b3a"/><path d="m94.85 78.354h48.74v38.91h-48.74z" fill="#fd4755"/><path d="m339.159 78.354h71.02v38.91h-71.02z" fill="#fb2b3a"/><path d="m339.159 78.354h49.17v38.91h-49.17z" fill="#fd4755"/><path d="m324.259 458.214h100.82v38.71h-100.82z" fill="#fedba6"/><path d="m324.259 458.214h68.32v38.71h-68.32z" fill="#ffefd2"/><path d="m79.52 458.214h100.82v38.71h-100.82z" fill="#fedba6"/><path d="m79.52 458.214h68.28v38.71h-68.28z" fill="#ffefd2"/></g><g><path d="m501.618 10.092c-3.68-5.848-11.281-10.495-18.423-9.57l-77.606 10.19c-4.106.54-6.999 4.306-6.46 8.413.539 4.106 4.303 6.995 8.413 6.46l77.025-10.114c3.918.25 6.36 4.486 4.662 8.026l-22.686 47.358h-428.488l-22.687-47.362c-1.698-3.539.751-7.772 4.664-8.021l155.093 20.364c51.211 6.715 103.14 6.715 154.351 0l42.538-5.585c4.106-.539 6.999-4.306 6.46-8.413-.539-4.106-4.304-6.992-8.413-6.46l-42.537 5.585c-49.915 6.546-100.533 6.545-150.446 0l-155.674-20.441c-15.483-2.005-25.786 16.485-19.561 29.456l24.726 51.618c1.247 2.604 3.877 4.26 6.764 4.26h54.02v31.405c0 4.143 3.357 7.5 7.5 7.5h5.723v23.905h-44.553c-4.143 0-7.5 3.357-7.5 7.5v38.836c0 4.143 3.357 7.5 7.5 7.5h30.16v248.215h-6.662c-4.143 0-7.5 3.357-7.5 7.5v38.71c0 4.143 3.357 7.5 7.5 7.5h100.815c4.143 0 7.5-3.357 7.5-7.5v-38.71c0-4.143-3.357-7.5-7.5-7.5h-6.662v-248.215h157.25v248.215h-6.663c-4.143 0-7.5 3.357-7.5 7.5v38.71c0 4.143 3.357 7.5 7.5 7.5h100.816c4.143 0 7.5-3.357 7.5-7.5v-38.71c0-4.143-3.357-7.5-7.5-7.5h-6.662v-52.721c0-4.143-3.357-7.5-7.5-7.5s-7.5 3.357-7.5 7.5v52.721h-57.491v-248.215h57.491v162.493c0 4.143 3.357 7.5 7.5 7.5s7.5-3.357 7.5-7.5v-162.493h30.1c4.143 0 7.5-3.357 7.5-7.5v-38.836c0-4.143-3.357-7.5-7.5-7.5h-44.49v-23.905h6.156c4.143 0 7.5-3.357 7.5-7.5v-31.405h53.586c2.887 0 5.517-1.656 6.764-4.26l24.724-51.613c3.083-6.425 2.658-13.86-1.137-19.891zm-84.04 455.625v23.71h-85.816v-23.71zm-122.267-317.051v-23.905h50.004v23.905zm36.348-38.905h-36.348v-23.905h36.348zm-51.348-23.905v62.811h-56.023v-62.811zm-121.027 62.81v-23.905h50.004v23.905zm50.004-38.905h-35.914v-23.905h35.914zm-50.914-23.905v23.905h-56.022v-23.905zm-42.8 38.905h28.71v23.905h-28.71zm57.263 364.666h-85.816v-23.71h85.815v23.71zm268.178-301.925h-296.335c-4.143 0-7.5 3.357-7.5 7.5s3.357 7.5 7.5 7.5h13.994v248.215h-57.491v-248.215h6.891c4.143 0 7.5-3.357 7.5-7.5s-3.357-7.5-7.5-7.5h-44.551v-23.836h377.492zm-51.99-38.836h-28.71v-23.905h28.71zm13.656-38.905h-56.022v-23.905h56.022z"/><path d="m252.8 134.464c4.143 0 7.5-3.357 7.5-7.5v-19.1c0-4.143-3.357-7.5-7.5-7.5s-7.5 3.357-7.5 7.5v19.1c0 4.143 3.357 7.5 7.5 7.5z"/></g></g></svg>