<svg id="Capa_1" enable-background="new 0 0 504.977 504.977" height="512" viewBox="0 0 504.977 504.977" width="512" xmlns="http://www.w3.org/2000/svg"><g><g><path d="m497.488 374.796h-490l15.06-49.85h459.88z" fill="#9b8e99"/><path d="m458.898 374.796h-451.41l15.06-49.85h421.29z" fill="#aa9ea9"/><path d="m38.188 285.606h428.6v39.34h-428.6z" fill="#baafb9"/><path d="m38.188 285.606h393.27v39.34h-393.27z" fill="#d7d0d6"/><path d="m439.908 285.606h-95.67c15.499-42.93 35.171-72.863 69.73-96.35l13.06-8.83c4.7-3.18 10.89.96 9.74 6.52l-2.2 10.68c-5.47 26.58-4.41 54.09 3.09 80.17z" fill="#c8effe"/><path d="m415.908 285.606h-71.67c14.455-40.753 34.824-72.341 67.78-95.01l-1.45 7.03c-5.47 26.58-4.41 54.09 3.09 80.17z" fill="#eaf6ff"/><path d="m394.368 285.606h-142.7l12.19-30.18c18.63-46.14 50.6-85.67 91.82-113.54l5.01-3.38 14.47-9.79c7.01-4.75 16.24 1.43 14.54 9.72l-3.29 15.94c-8.16 39.65-6.58 80.68 4.61 119.59z" fill="#62dbfb"/><path d="m365.368 285.606h-113.7l12.19-30.18c18.63-46.14 50.6-85.67 91.82-113.54l5.01-3.38c-12.266 48.6-10.968 99.744 4.68 147.1z" fill="#99e6fc"/><path d="m160.738 285.606h-95.67l2.25-7.81c7.5-26.08 8.56-53.59 3.09-80.17-.087-.406-2.085-10.121-2.2-10.68-1.15-5.56 5.04-9.7 9.74-6.52l13.06 8.83c27.63 18.68 49.07 45.19 61.56 76.12z" fill="#c8effe"/><path d="m130.238 285.606h-65.17l2.25-7.81c7.5-26.08 8.56-53.59 3.09-80.17l-.28-1.35c23 18.05 40.94 41.86 51.94 69.1z" fill="#eaf6ff"/><path d="m250.218 285.606h-142.7l3.34-11.64c11.2-38.91 12.78-79.94 4.61-119.59l-2.07-10.07-1.21-5.87c-1.7-8.29 7.53-14.47 14.54-9.72l19.48 13.17c41.22 27.87 73.19 67.4 91.82 113.54z" fill="#62dbfb"/><path d="m213.898 285.606h-106.38l3.34-11.64c11.2-38.91 12.78-79.94 4.61-119.59l-2.07-10.07c39.53 27.71 70.21 66.3 88.31 111.12z" fill="#99e6fc"/><path d="m344.238 285.606h-183.5l4.3-14.97c14.39-50.03 16.43-102.8 5.93-153.79l-4.22-20.49c-.07-.34-.13-.68-.17-1.02-1.26-10.15 10.13-17.39 18.86-11.49l25.06 16.94c53 35.84 94.11 86.68 118.07 146.01z" fill="#c8effe"/><path d="m308.388 285.606h-147.65l4.3-14.97c14.39-50.03 16.43-102.8 5.93-153.79l-4.22-20.49c-.07-.34-.13-.68-.17-1.02l8.06 5.45c53.01 35.84 94.12 86.68 118.08 146.01z" fill="#eaf6ff"/><circle cx="308.39" cy="81.726" fill="#ffefd2" r="30.231"/></g><g><path d="m504.668 372.628-15.06-49.851c-.957-3.165-3.873-5.331-7.18-5.331h-8.138v-31.844c0-4.143-3.358-7.5-7.5-7.5h-21.239c-8.938-28.235-8.645-60.636-1.439-89.637 2.46-11.897-11.221-21.065-21.285-14.252l-13.06 8.83c-7.395 4.999-14.387 10.575-20.933 16.644.093-18.74 4.01-40.932 8.211-59.744 2.973-14.505-13.808-25.765-26.088-17.439l-19.481 13.17c-18.68 12.635-35.557 27.603-50.282 44.579-29.646-43.009-68.803-73.721-111.555-102.619-14.271-9.649-33.702 3.357-30.237 20.235l4.22 20.489c2.081 10.115 3.665 20.369 4.744 30.647-5.809-4.714-11.807-9.178-17.957-13.332l-19.474-13.166c-5.727-3.88-13.146-3.907-18.901-.063-5.76 3.846-8.583 10.714-7.192 17.503 3.878 18.843 7.468 37.542 8.108 56.85-5.611-4.949-11.533-9.557-17.741-13.754l-13.058-8.829c-10.045-6.798-23.748 2.355-21.289 14.245l2.2 10.678c2.249 10.928 3.354 22.125 3.286 33.281-.059 9.657 14.94 9.78 15 .092.074-12.201-1.135-24.446-3.594-36.398l-1.619-7.858 10.672 7.216c9.406 6.36 18.123 13.716 25.95 21.893-1.076 20.746-5.172 40.823-10.888 60.74h-26.845c1.117-4.047 2.096-8.162 2.916-12.259 1.899-9.485-12.811-12.427-14.708-2.943-.859 4.293-3.807 15.202-3.807 15.202h-21.239c-4.142 0-7.5 3.357-7.5 7.5v31.844h-8.138c-3.307 0-6.223 2.166-7.18 5.331l-15.06 49.851c-1.426 4.72 2.275 9.669 7.18 9.669h490c4.909-.001 8.605-4.952 7.18-9.67zm-86.499-177.158 10.672-7.215c-6.193 30.061-7.128 60.004 1.111 89.848h-29.94c-5.476-18.874-9.438-37.957-10.713-57.605 8.596-9.469 18.295-17.879 28.87-25.028zm-242.105-105.427c.778-.521 2.84-1.563 5.174.018l25.059 16.938c42.526 28.755 77.641 67.888 101.667 113.256 1.939 3.661 6.477 5.058 10.138 3.118 3.66-1.938 5.056-6.478 3.118-10.138-3.569-6.74-7.42-13.406-11.462-19.896 14.507-17.335 31.345-32.54 50.121-45.24l19.486-13.174c1.885-.67 2.88-.005 2.988 1.994l-3.291 15.944c-8.542 41.521-6.475 84.574 5.342 125.238h-35.107l-13.774-34.113c-1.551-3.84-5.922-5.699-9.763-4.146-3.841 1.551-5.697 5.921-4.146 9.762l11.506 28.498h-162.423c9.683-33.717 15.049-68.154 14.309-103.312-.571-27.154-5.456-53.457-10.911-79.942-.384-1.873.385-3.744 1.969-4.805zm-55.701 44.877c.719-.48 1.444-.477 2.164.01l19.483 13.172c9.741 6.58 19.093 13.958 27.837 21.959 1.366 36.957-4.585 72.631-14.756 108.042h-37.616c15.292-45.889 10.686-96.611 2.888-143.183zm-102.774 232.377 10.528-34.851 73.014-.001c4.142 0 7.5-3.357 7.5-7.5s-3.358-7.5-7.5-7.5h-55.443v-24.339h413.6v24.339h-324.8c-4.142 0-7.5 3.357-7.5 7.5s3.358 7.5 7.5 7.5l342.371.001 10.528 34.851z"/><path d="m470.839 406.64h-71.865c-4.142 0-7.5 3.357-7.5 7.5s3.358 7.5 7.5 7.5h71.865c4.142 0 7.5-3.357 7.5-7.5s-3.358-7.5-7.5-7.5z"/><path d="m363.915 406.64h-38.563c-4.142 0-7.5 3.357-7.5 7.5s3.358 7.5 7.5 7.5h38.563c4.142 0 7.5-3.357 7.5-7.5s-3.358-7.5-7.5-7.5z"/><path d="m344.714 445.983h-110.151c-4.142 0-7.5 3.357-7.5 7.5s3.358 7.5 7.5 7.5h110.151c4.142 0 7.5-3.357 7.5-7.5s-3.358-7.5-7.5-7.5z"/><path d="m160.735 406.64h-119.206c-4.142 0-7.5 3.357-7.5 7.5s3.358 7.5 7.5 7.5h119.207c4.142 0 7.5-3.357 7.5-7.5s-3.359-7.5-7.501-7.5z"/><path d="m308.39 119.457c20.805 0 37.731-16.926 37.731-37.731s-16.926-37.731-37.731-37.731-37.731 16.926-37.731 37.731 16.926 37.731 37.731 37.731zm0-60.463c12.534 0 22.731 10.197 22.731 22.731s-10.197 22.731-22.731 22.731-22.731-10.197-22.731-22.731 10.197-22.731 22.731-22.731z"/></g></g></svg>