<svg id="Capa_1" enable-background="new 0 0 504.984 504.984" height="512" viewBox="0 0 504.984 504.984" width="512" xmlns="http://www.w3.org/2000/svg"><g><g><g fill="#9b8e99"><circle cx="286.688" cy="416.175" r="32.826"/><circle cx="50.302" cy="416.175" r="32.826"/><circle cx="199.868" cy="416.175" r="32.826"/></g><path d="m495.365 339.281c-.36 1.6-.77 3.19-1.24 4.76-11.6 40.26-52.26 72.13-93.12 72.13h-393.5v-243.12h241.59c30.35 0 57.67 9.8 77.91 27.95l8.63 7.74 24.26 21.76c18.46 16.55 43.39 25.5 71.1 25.5 23 0 41.7 9.31 53.36 24.39 4.38 5.68 7.76 12.17 10 19.28 3.7 11.771 4.26 25.271 1.01 39.61z" fill="#baafb9"/><path d="m418.405 339.281c-.36 1.6-.77 3.19-1.24 4.76-11.6 40.26-52.25 72.13-93.12 72.13h-316.54v-243.12h164.63c30.36 0 57.68 9.8 77.91 27.95l8.63 7.74 24.26 21.76c18.46 16.55 43.39 25.5 71.11 25.5 23 0 41.7 9.31 53.35 24.39 4.39 5.68 7.76 12.17 10 19.28 3.7 11.771 4.27 25.271 1.01 39.61z" fill="#d7d0d6"/><path d="m495.361 339.279c-.358 1.607-.771 3.193-1.238 4.767h-54.198l10.077-44.371h44.349c3.704 11.771 4.268 25.27 1.01 39.604z" fill="#fee903"/><path d="m430.999 255.999h-185.715l10.729-47.259h79.62l24.259 21.762c18.461 16.549 43.394 25.497 71.107 25.497z" fill="#0ab69f"/><path d="m385.586 255.999h-140.302l10.729-47.259h34.207l24.26 21.762c18.46 16.549 43.393 25.497 71.106 25.497z" fill="#5de1c4"/><path d="m118.916 208.74-10.74 47.259h-100.676v-47.259z" fill="#0ab69f"/><path d="m73.187 208.74-10.739 47.259h-54.948v-47.259z" fill="#5de1c4"/><path d="m215.025 130.912h-102.159l-42.769 42.147h168.933z" fill="#8b8089"/><path d="m112.867 130.912h51.853l23.999 42.144h-118.626z" fill="#9b8e99"/><path d="m270.575 299.672c-5.85 25.95-28.89 44.37-55.48 44.37h-207.59v-44.37z" fill="#3c87d0"/><path d="m214.665 299.672c-5.85 25.95-28.89 44.37-55.48 44.37h-151.68v-44.37z" fill="#5f99d7"/></g><g><path d="m501.506 297.424c-2.498-7.94-6.272-15.215-11.222-21.622-13.611-17.606-34.666-27.303-59.285-27.303-26.034 0-48.892-8.154-66.099-23.58l-24.26-21.763c-.006-.005-.013-.01-.019-.015l-8.614-7.727c-21.466-19.254-50.911-29.857-82.912-29.857h-5.708l-21.846-38.357c-1.333-2.342-3.821-3.788-6.517-3.788h-25.004l13.341-59.929h260.462c4.143 0 7.5-3.357 7.5-7.5s-3.357-7.5-7.5-7.5h-266.476-33.442-144.114c-4.143 0-7.5 3.357-7.5 7.5s3.357 7.5 7.5 7.5h134.76l-13.341 59.929h-28.344c-1.97 0-3.861.775-5.265 2.158l-40.577 39.986h-59.524c-4.143 0-7.5 3.357-7.5 7.5v35.683 47.26 48.366c0 4.143 3.357 7.5 7.5 7.5 3.148 0 5.839-1.941 6.951-4.69h118.353l-6.669 29.371h-111.365c-.812-3.265-3.754-5.688-7.27-5.688-4.143 0-7.5 3.357-7.5 7.5v77.814c-.004 4.797 5.123 8.358 10.69 7.5 1.262 6.683 4.173 12.788 8.3 17.872-3.765.4-6.698 3.584-6.698 7.456 0 4.143 3.357 7.5 7.5 7.5h295.645c4.143 0 7.5-3.357 7.5-7.5 0-3.338-2.181-6.162-5.194-7.135 4.265-5.147 7.269-11.371 8.558-18.193h74.706c21.367 0 43.435-8.007 62.137-22.547 18.565-14.433 32.127-33.967 38.17-54.945.515-1.732.975-3.501 1.366-5.256 3.43-15.11 3.025-30.152-1.174-43.5zm-12.936 9.751c-.565 1.992 3.786 4.327-.296 29.371h-38.955l6.671-29.371zm-121.239-61.602c1.106.712 1.958 1.242 4.794 2.926h-117.447l7.324-32.26h70.758c11.438 9.755 21.339 20.548 34.571 29.334zm-197.413-182.09h18.075l-13.34 59.929h-18.075zm-53.978 74.929h31.284 33.442 29.998l15.46 27.145h-137.729zm-100.94 77.827h94.521l-7.331 32.26h-87.19zm133.185 90.936h112.073c-7.757 17.679-25.191 29.371-45.166 29.371h-73.575zm98.891 116.498c1.259 6.664 4.157 12.752 8.265 17.828h-24.129c4.109-5.076 7.008-11.165 8.267-17.828zm-47.214 17.827c-11.351 0-20.98-7.512-24.184-17.827h48.377c-3.203 10.315-12.837 17.827-24.193 17.827zm-39.606-17.827c1.259 6.664 4.157 12.752 8.265 17.828h-86.875c4.109-5.076 7.008-11.165 8.267-17.828h25.77c.023 0 .047.004.07.004.015 0 .03-.004.046-.004zm-77.132-15h-65.645-2.479v-57.127h107.73l-12.971 57.127zm-8.634 15c-3.204 10.315-12.839 17.827-24.194 17.827-11.351 0-20.98-7.512-24.184-17.827zm212.193 17.827c-11.351 0-20.98-7.512-24.184-17.827h48.377c-3.204 10.315-12.838 17.827-24.193 17.827zm114.323-32.827h-81.496-65.644-21.177-65.644-41.905l12.971-57.127h76.981c30.312 0 56.136-20.652 62.801-50.222.501-2.224-.036-4.554-1.459-6.334-1.423-1.779-3.578-2.815-5.857-2.815h-118.986l.001-.004c.918-4.039-1.613-8.057-5.653-8.974-4.037-.917-8.057 1.614-8.974 5.653l-.755 3.324h-121.21v-28.676h93.176c3.502 0 6.537-2.423 7.313-5.838l10.74-47.26c.506-2.225-.028-4.559-1.452-6.341-1.423-1.783-3.58-2.821-5.861-2.821h-103.916v-20.683h55.071c.009 0 .017.002.026.002h91.456l-16.752 73.781c-.918 4.039 1.613 8.057 5.653 8.974.559.127 1.117.188 1.667.188 3.424 0 6.517-2.361 7.307-5.842l17.506-77.102h62.095c.01 0 .02-.002.03-.002h10.037c25.126 0 48.34 7.301 66.328 20.683h-59.41c-3.502 0-6.538 2.424-7.313 5.84l-10.729 47.26c-.506 2.224.029 4.558 1.452 6.34 1.424 1.782 3.58 2.82 5.861 2.82h185.715c19.871 0 36.711 7.627 47.416 21.475 1.745 2.259 3.294 4.669 4.661 7.201h-33.073c-3.502 0-6.538 2.424-7.313 5.839l-10.078 44.371c-.506 2.225.029 4.558 1.452 6.341 1.423 1.782 3.58 2.82 5.861 2.82h43.565c-13.938 32.709-48.346 57.129-82.485 57.129z"/><path d="m447.588 441.501h-96.285c-4.143 0-7.5 3.357-7.5 7.5s3.357 7.5 7.5 7.5h96.285c4.143 0 7.5-3.357 7.5-7.5s-3.358-7.5-7.5-7.5z"/><path d="m391.801 292.17h-48.297c-4.143 0-7.5 3.357-7.5 7.5s3.357 7.5 7.5 7.5h48.297c4.143 0 7.5-3.357 7.5-7.5s-3.358-7.5-7.5-7.5z"/></g></g></svg>