<svg id="Capa_1" enable-background="new 0 0 505 505" height="512" viewBox="0 0 505 505" width="512" xmlns="http://www.w3.org/2000/svg"><g><g><path d="m180.12 167.29v-85.86h-76.04v59.73c0 31.46 17.59 60.28 45.56 74.67l80.01 41.14c14.99 7.7 24.41 23.15 24.41 40v162.34c0 21.09-17.1 38.19-38.19 38.19h-147.53c-21.09 0-38.19-17.1-38.19-38.19v-421.78c0-16.58 13.45-30.03 30.03-30.03h163.85c16.58 0 30.03 13.45 30.03 30.03v104.56c0 17.07-5.79 32.79-15.5 45.31-10.3 13.26-26.52 15.4-39.26 9.66-10.85-4.88-19.18-15.47-19.18-29.77z" fill="#c8effe"/><path d="m180.12 167.29v-85.86h-103.4v59.73c0 31.46 17.59 60.28 45.57 74.67l80 41.14c14.99 7.7 24.41 23.15 24.41 40v162.34c0 21.09-17.09 38.19-38.18 38.19h-120.18c-21.09 0-38.19-17.1-38.19-38.19v-421.78c0-16.58 13.45-30.03 30.03-30.03h136.49c16.59 0 30.03 13.45 30.03 30.03v104.56c0 17.07-5.78 32.79-15.5 45.31-3.43 4.42-7.51 7.6-11.9 9.66-10.85-4.88-19.18-15.47-19.18-29.77z" fill="#eaf6ff"/><path d="m474.85 121.37v51.22h-49.89c0-7.75-3.14-14.78-8.23-19.86-5.08-5.09-12.11-8.23-19.86-8.23h-281.09c-23.35 0-42.27-18.92-42.27-42.26v-.01c0-23.34 18.92-42.26 42.27-42.26h270.83c16.34 0 32.37 4.93 46.31 14.25l26.99 18.03c9.28 6.2 14.94 17.24 14.94 29.12z" fill="#a44f3e"/><path d="m442.85 121.37v51.22h-17.89c0-7.75-3.14-14.78-8.23-19.86-5.08-5.09-12.11-8.23-19.86-8.23h-281.09c-23.35 0-42.27-18.92-42.27-42.26v-.01c0-23.34 18.92-42.26 42.27-42.26h238.83c16.34 0 32.37 4.93 46.31 14.25l26.99 18.03c9.28 6.2 14.94 17.24 14.94 29.12z" fill="#bb5d4c"/><path d="m69.75 343.92h144.71v113.28h-144.71z" fill="#e41f2d"/><path d="m69.75 343.92h119.43v113.28h-119.43z" fill="#fd4755"/></g><g><path d="m464.077 86.014-26.987-18.028c-15.182-10.15-32.638-15.516-50.479-15.516h-50.151c-4.143 0-7.5 3.357-7.5 7.5s3.357 7.5 7.5 7.5h50.149c14.864 0 29.437 4.49 42.145 12.986l26.989 18.03c7.159 4.783 11.606 13.552 11.606 22.884v43.72h-35.676c-3.453-16.203-18.262-28.09-34.802-28.09h-281.09c-19.822 0-35.991-17.321-34.686-37.081 1.189-18.005 16.645-32.449 34.686-32.449h186.013c4.143 0 7.5-3.357 7.5-7.5s-3.357-7.5-7.5-7.5h-40.234v-14.94c0-20.694-16.836-37.53-37.529-37.53h-163.851c-20.694 0-37.53 16.836-37.53 37.53v160.66c0 4.143 3.357 7.5 7.5 7.5s7.5-3.357 7.5-7.5v-160.66c0-12.423 10.107-22.53 22.53-22.53h163.851c12.423 0 22.529 10.107 22.529 22.53v14.94h-130.779c-27.443 0-49.771 22.322-49.771 49.771 0 19.897 12.459 38.447 30.848 46.036 2.441 31.521 20.996 59.633 49.353 74.224l80.013 41.141c12.544 6.444 20.337 19.215 20.337 33.329v162.34c0 16.923-13.768 30.69-30.689 30.69h-147.532c-16.923 0-30.69-13.768-30.69-30.69v-223.795c0-4.143-3.357-7.5-7.5-7.5s-7.5 3.357-7.5 7.5v223.794c0 25.193 20.497 45.69 45.69 45.69h147.53c25.193 0 45.689-20.497 45.689-45.69v-162.34c0-19.763-10.914-37.646-28.48-46.67l-80.008-41.139c-22.264-11.456-37.291-32.886-40.728-57.279 1.142.078 2.288.118 3.437.118h56.84c0 8.043-.774 16.618 1.029 24.513 2.95 12.918 12.334 23.517 24.671 28.265 34.866 13.42 58.965-22.404 62.623-52.778h135.926c7.673 0 14.876 4.414 18.363 11.251 2.877 5.641.55 16.839 9.727 16.839h49.89c4.143 0 7.5-3.357 7.5-7.5v-51.22c.001-14.494-6.83-27.711-18.272-35.356zm-231.44 96.785c-8.102 10.431-19.759 11.145-27.967 8.329-8.242-2.824-17.05-10.57-17.05-23.838v-15.29h58.201c-1.661 11.201-6.151 21.728-13.184 30.799z"/><path d="m62.25 457.202c0 4.143 3.357 7.5 7.5 7.5h144.71c4.143 0 7.5-3.357 7.5-7.5v-59.682c0-4.143-3.357-7.5-7.5-7.5s-7.5 3.357-7.5 7.5v52.182h-129.71v-98.285h129.71v14.435c0 4.143 3.357 7.5 7.5 7.5s7.5-3.357 7.5-7.5v-21.935c0-4.143-3.357-7.5-7.5-7.5h-144.71c-4.143 0-7.5 3.357-7.5 7.5z"/><path d="m125.459 305.519c0 4.143 3.357 7.5 7.5 7.5h81.501c4.143 0 7.5-3.357 7.5-7.5s-3.357-7.5-7.5-7.5h-81.501c-4.142 0-7.5 3.357-7.5 7.5z"/><path d="m69.75 313.019h26.604c4.143 0 7.5-3.357 7.5-7.5s-3.357-7.5-7.5-7.5h-26.604c-4.143 0-7.5 3.357-7.5 7.5s3.358 7.5 7.5 7.5z"/><path d="m150.96 259.62h-81.21c-4.143 0-7.5 3.357-7.5 7.5s3.357 7.5 7.5 7.5h81.21c4.143 0 7.5-3.357 7.5-7.5s-3.357-7.5-7.5-7.5z"/><path d="m114.75 393.06c-4.143 0-7.5 3.357-7.5 7.5s3.357 7.5 7.5 7.5h54.71c4.143 0 7.5-3.357 7.5-7.5s-3.357-7.5-7.5-7.5z"/></g></g></svg>